<svg width="26" height="26" viewBox="0 0 26 26" fill="none" xmlns="http://www.w3.org/2000/svg">
<g clip-path="url(#clip0)">
<path d="M19.364 17.0911L15.5001 13.2273C15.3746 13.1018 15.3746 12.8982 15.5001 12.7727L19.364 8.9089C19.9915 8.28131 19.9915 7.26364 19.364 6.63606C18.7364 6.00847 17.7187 6.00847 17.0911 6.63606L13.2273 10.4999C13.1018 10.6254 12.8982 10.6254 12.7727 10.4999L8.90888 6.63606C8.2813 6.00847 7.26362 6.00847 6.63604 6.63606C6.00845 7.26364 6.00845 8.28131 6.63604 8.9089L10.4999 12.7727C10.6254 12.8982 10.6254 13.1018 10.4999 13.2273L6.63604 17.0911C6.00845 17.7187 6.00845 18.7364 6.63604 19.364C7.26362 19.9916 8.2813 19.9916 8.90888 19.364L12.7727 15.5001C12.8982 15.3746 13.1018 15.3746 13.2273 15.5001L17.0911 19.364C17.7187 19.9916 18.7364 19.9916 19.364 19.364C19.9915 18.7364 19.9915 17.7187 19.364 17.0911Z" fill="black"/>
</g>
<defs>
<clipPath id="clip0">
<rect width="18" height="18" fill="white" transform="translate(13 0.272095) rotate(45)"/>
</clipPath>
</defs>
</svg>
