<svg width="27" height="23" viewBox="0 0 27 23" fill="none" xmlns="http://www.w3.org/2000/svg">
<mask id="path-1-outside-1" maskUnits="userSpaceOnUse" x="0" y="0" width="27" height="23" fill="black">
<rect fill="white" width="27" height="23"/>
<path d="M25.9999 16.6005C25.9999 15.1376 25.5619 13.7251 24.733 12.5156C24.1368 11.6456 23.369 10.9231 22.4793 10.3863C23.5268 9.39428 24.1822 7.9922 24.1822 6.43904C24.1822 3.43998 21.7422 1 18.7432 1C16.9649 1 15.299 1.8795 14.2872 3.32326C14.0301 3.28581 13.7674 3.26561 13.5 3.26561C13.2326 3.26561 12.9699 3.28588 12.7128 3.32326C11.7009 1.8795 10.035 1 8.25677 1C5.25771 1 2.81773 3.43998 2.81773 6.43904C2.81773 7.9922 3.47313 9.39428 4.5207 10.3863C3.63093 10.9231 2.86317 11.6456 2.26704 12.5155C1.43814 13.7251 1 15.1376 1 16.6005V19.6258H6.24326V21.8914H20.7568V19.6258H26V16.6005H25.9999ZM18.7432 2.34241C21.0021 2.34241 22.8399 4.18015 22.8399 6.43911C22.8399 8.69807 21.0021 10.5358 18.7432 10.5358C18.7028 10.5358 18.6623 10.5352 18.6217 10.534C18.6248 10.5254 18.6274 10.5166 18.6304 10.508C18.7003 10.3098 18.7587 10.1061 18.8054 9.89812C18.8087 9.88336 18.8125 9.86873 18.8156 9.85389C18.8278 9.79778 18.8385 9.74114 18.8489 9.68436C18.8538 9.65751 18.8588 9.63073 18.8633 9.60382C18.8718 9.55314 18.8794 9.50227 18.8865 9.45119C18.8914 9.41569 18.8958 9.38018 18.9 9.34461C18.9053 9.29951 18.9105 9.25434 18.9147 9.2089C18.919 9.16252 18.9222 9.11608 18.9253 9.06956C18.9277 9.03292 18.9308 8.99641 18.9324 8.95956C18.9361 8.88056 18.9382 8.80143 18.9385 8.72223C18.9385 8.71639 18.9389 8.71069 18.9389 8.70478C18.9389 8.70163 18.9387 8.69847 18.9387 8.69532C18.9385 8.61444 18.9362 8.53404 18.9326 8.4539C18.9315 8.43061 18.9301 8.40739 18.9287 8.38416C18.9248 8.31604 18.9196 8.24825 18.9132 8.1808C18.9118 8.1655 18.9105 8.15019 18.909 8.13496C18.7062 6.17453 17.4677 4.49654 15.681 3.72039C16.4509 2.85545 17.5645 2.34241 18.7432 2.34241ZM12.0825 4.86078C12.0956 4.85601 12.1088 4.85152 12.1219 4.84682C12.1627 4.83226 12.2037 4.81843 12.245 4.80507C12.2763 4.79507 12.3078 4.78541 12.3394 4.77615C12.3625 4.76937 12.3856 4.76286 12.4087 4.75641C12.4501 4.74507 12.4916 4.734 12.5335 4.72386C12.8436 4.64856 13.167 4.60768 13.4998 4.60768C13.8329 4.60795 14.1564 4.64889 14.4666 4.7242C14.5083 4.73426 14.5495 4.74527 14.5907 4.75655C14.6142 4.76306 14.6377 4.76964 14.661 4.77655C14.6922 4.78574 14.7234 4.79527 14.7543 4.80514C14.7961 4.81863 14.8377 4.83259 14.8789 4.84736C14.8916 4.85185 14.9043 4.85615 14.9169 4.86078C16.2869 5.36745 17.3142 6.58677 17.5467 8.0665C17.5485 8.07831 17.5502 8.09019 17.552 8.10207C17.5594 8.15221 17.5657 8.20275 17.5712 8.25342C17.5732 8.27208 17.5754 8.29067 17.5772 8.30939C17.5816 8.35564 17.5849 8.40222 17.5879 8.44893C17.5891 8.46893 17.5908 8.48887 17.5917 8.50893C17.5945 8.5686 17.5961 8.6286 17.5963 8.68894C17.5963 8.69418 17.5966 8.69928 17.5966 8.70451C17.5966 8.70693 17.5965 8.70941 17.5965 8.71183C17.5963 8.77022 17.5946 8.82821 17.592 8.886C17.5912 8.90419 17.5904 8.92238 17.5893 8.9405C17.5862 8.99634 17.582 9.05191 17.5767 9.10708C17.5746 9.12842 17.5718 9.1497 17.5693 9.17098C17.5653 9.20668 17.5607 9.24232 17.5557 9.27776C17.5518 9.30535 17.5479 9.333 17.5435 9.36045C17.5367 9.40226 17.5292 9.44381 17.5212 9.48522C17.514 9.52207 17.5061 9.55878 17.4979 9.59543C17.493 9.61751 17.4879 9.63959 17.4826 9.66154C17.4695 9.71597 17.4552 9.77007 17.4399 9.82396C17.4338 9.84537 17.4281 9.86692 17.4216 9.88812C17.4123 9.919 17.4022 9.9496 17.3922 9.98021C17.3842 10.0047 17.3759 10.0291 17.3674 10.0534C17.3577 10.081 17.3482 10.1086 17.338 10.136C17.3206 10.1825 17.3024 10.2286 17.2834 10.2743C17.2749 10.2947 17.2659 10.3149 17.2571 10.3353C17.2405 10.3733 17.2235 10.4112 17.2058 10.4486C17.2037 10.453 17.2016 10.4575 17.1995 10.4619C17.1932 10.4752 17.1868 10.4886 17.1803 10.5018C17.1605 10.5424 17.1398 10.5825 17.1186 10.6222C17.1103 10.6376 17.1023 10.6533 17.0939 10.6686C17.0934 10.6696 17.0928 10.6706 17.0923 10.6715C17.0691 10.7138 17.0448 10.7554 17.0202 10.7968C17.0104 10.8131 17.0007 10.8296 16.9907 10.8458C16.9639 10.8893 16.9363 10.9324 16.9079 10.9748C16.8903 11.0012 16.8718 11.027 16.8535 11.053C16.838 11.075 16.8226 11.0971 16.8067 11.1188C16.7861 11.1468 16.7651 11.1746 16.7437 11.2021C16.7292 11.2209 16.7146 11.2395 16.6998 11.258C16.6773 11.2862 16.6545 11.3142 16.6313 11.3418C16.6169 11.3589 16.6021 11.3757 16.5874 11.3926C16.5632 11.4203 16.5391 11.4481 16.5143 11.4751C16.4995 11.4912 16.4842 11.5066 16.4692 11.5224C16.4288 11.565 16.3874 11.6067 16.3453 11.6476C16.3202 11.6718 16.2953 11.6961 16.2697 11.7197C16.252 11.736 16.2338 11.7518 16.2157 11.7679C16.1863 11.794 16.1567 11.8198 16.1266 11.8451C16.1113 11.8579 16.0959 11.8706 16.0804 11.8832C16.0439 11.9128 16.007 11.9419 15.9695 11.9704C15.9593 11.9781 15.9492 11.9859 15.9389 11.9936C15.257 12.5005 14.413 12.801 13.4999 12.801C12.5868 12.801 11.7426 12.5005 11.0607 11.9934C11.0506 11.9859 11.0407 11.9782 11.0307 11.9706C10.9931 11.942 10.956 11.9128 10.9194 11.883C10.904 11.8704 10.8886 11.8579 10.8735 11.8451C10.8432 11.8198 10.8135 11.7938 10.784 11.7676C10.7661 11.7516 10.748 11.7359 10.7303 11.7197C10.7046 11.6961 10.6796 11.6717 10.6545 11.6475C10.6122 11.6065 10.5708 11.5646 10.5302 11.5219C10.5154 11.5063 10.5002 11.491 10.4857 11.4752C10.4608 11.4481 10.4367 11.4202 10.4125 11.3925C10.3978 11.3756 10.383 11.3589 10.3686 11.3418C10.3453 11.3142 10.3226 11.2862 10.3001 11.2581C10.2853 11.2395 10.2706 11.2209 10.2561 11.2021C10.2349 11.1746 10.2138 11.1469 10.1932 11.1189C10.1773 11.0971 10.1618 11.075 10.1463 11.0529C10.1281 11.027 10.1097 11.0012 10.0921 10.9749C10.0636 10.9323 10.0358 10.889 10.0089 10.8453C9.99907 10.8293 9.98954 10.8131 9.97987 10.797C9.95484 10.755 9.93034 10.7129 9.90678 10.67C9.89812 10.6542 9.88994 10.6382 9.88141 10.6223C9.8602 10.5825 9.83946 10.5422 9.81953 10.5016C9.81242 10.4872 9.8055 10.4726 9.79859 10.4581C9.79752 10.4559 9.79651 10.4537 9.7955 10.4515C9.77691 10.4123 9.75912 10.3727 9.74174 10.3328C9.73349 10.3138 9.7251 10.2949 9.71718 10.2758C9.69771 10.2291 9.67912 10.182 9.66133 10.1344C9.65174 10.1088 9.64288 10.0829 9.63382 10.0571C9.62449 10.0305 9.61549 10.0038 9.6067 9.97705C9.59724 9.94806 9.58771 9.91907 9.57885 9.88994C9.56563 9.84638 9.55314 9.80255 9.5414 9.75845C9.53314 9.72751 9.52569 9.6963 9.51811 9.66516C9.5122 9.64066 9.5065 9.61617 9.50106 9.59153C9.49435 9.56133 9.48757 9.5312 9.48153 9.50086C9.4722 9.45361 9.46367 9.40609 9.45602 9.3583C9.45186 9.33253 9.44824 9.30669 9.44455 9.28092C9.43911 9.24273 9.43421 9.20433 9.42985 9.16581C9.4277 9.14681 9.42522 9.12782 9.42327 9.10883C9.4177 9.05225 9.41347 8.99527 9.41025 8.93808C9.40931 8.92164 9.40857 8.90519 9.40783 8.88875C9.40508 8.82761 9.40313 8.76626 9.40313 8.70451C9.40313 8.63834 9.40501 8.57263 9.40817 8.50719C9.40904 8.4894 9.41052 8.47175 9.41152 8.45403C9.41448 8.4049 9.41803 8.35591 9.42273 8.30718C9.42434 8.2902 9.42629 8.27329 9.4281 8.25637C9.43387 8.20362 9.44039 8.15113 9.44817 8.09898C9.44965 8.08885 9.45112 8.07865 9.45273 8.06851C9.68449 6.58791 10.7119 5.36778 12.0825 4.86078ZM4.16008 6.43911C4.16008 4.18021 5.99781 2.34241 8.25677 2.34241C9.43555 2.34241 10.5491 2.85552 11.319 3.72026C9.53173 4.49667 8.29295 6.17547 8.09073 8.1367C8.08932 8.14999 8.08831 8.16335 8.08703 8.1767C8.08032 8.24657 8.07502 8.31671 8.07099 8.38725C8.06979 8.40873 8.06844 8.43014 8.06744 8.45168C8.06361 8.53565 8.06099 8.61988 8.06099 8.70471C8.06099 8.79036 8.06348 8.8758 8.0675 8.96117C8.06911 8.99553 8.07193 9.02956 8.07415 9.06372C8.07744 9.11285 8.08079 9.16198 8.08536 9.21098C8.08938 9.25454 8.09435 9.29783 8.09945 9.34112C8.10388 9.37884 8.10858 9.41643 8.11381 9.45401C8.12066 9.50334 8.12804 9.55247 8.13616 9.6014C8.14106 9.63046 8.14643 9.65946 8.15174 9.68845C8.1618 9.74322 8.17207 9.79785 8.18375 9.85201C8.18764 9.86987 8.19207 9.88759 8.1961 9.90537C8.24167 10.1069 8.29825 10.3043 8.36564 10.4967C8.36993 10.5091 8.37369 10.5216 8.37805 10.534C8.33758 10.5352 8.29704 10.5358 8.25664 10.5358C5.99781 10.5357 4.16008 8.698 4.16008 6.43911ZM7.36861 14.9966C7.35385 15.0199 7.33975 15.0436 7.32525 15.067C7.29458 15.1166 7.26418 15.1662 7.23478 15.2164C7.21834 15.2443 7.2025 15.2725 7.18652 15.3007C7.16008 15.3472 7.13397 15.3939 7.1086 15.4409C7.09263 15.4705 7.07692 15.5003 7.06135 15.53C7.03692 15.5768 7.01309 15.6238 6.98974 15.671C6.97504 15.7007 6.96041 15.7303 6.94618 15.7601C6.92242 15.8098 6.89953 15.8599 6.87691 15.9101C6.86463 15.9375 6.85201 15.9646 6.84013 15.992C6.81396 16.0522 6.78899 16.1128 6.76449 16.1736C6.75731 16.1914 6.74966 16.209 6.74268 16.2267C6.7116 16.3057 6.68187 16.3853 6.65368 16.4652C6.64724 16.4835 6.64147 16.5021 6.63509 16.5204C6.61388 16.582 6.59321 16.6438 6.57368 16.7059C6.56475 16.7344 6.5565 16.7631 6.5479 16.7917C6.53213 16.8443 6.51663 16.897 6.50206 16.95C6.4934 16.9815 6.48515 17.0131 6.47689 17.0448C6.4636 17.0957 6.45085 17.1467 6.43877 17.1979C6.43105 17.2303 6.42354 17.2628 6.41635 17.2952C6.40481 17.3471 6.394 17.3992 6.3836 17.4514C6.37736 17.4827 6.37092 17.514 6.36508 17.5455C6.35454 17.6023 6.34508 17.6594 6.33588 17.7165C6.33159 17.7433 6.32682 17.77 6.32279 17.7969C6.31031 17.8808 6.29897 17.9649 6.28944 18.0494C6.2893 18.0504 6.28923 18.0514 6.28917 18.0524C6.28051 18.1292 6.27306 18.2062 6.26682 18.2835H2.34234V16.6005C2.34234 14.3012 3.66415 12.237 5.73498 11.2559C6.48938 11.6524 7.34693 11.8781 8.25671 11.8781C8.51981 11.8781 8.78371 11.8587 9.0456 11.8202C9.08641 11.8783 9.12789 11.9359 9.17084 11.9924C9.18534 12.0114 9.20037 12.03 9.21514 12.0488C9.25756 12.103 9.30058 12.1566 9.34501 12.2092C9.3632 12.2307 9.38186 12.2518 9.40038 12.2731C9.442 12.3209 9.48428 12.368 9.5275 12.4143C9.55019 12.4386 9.57328 12.4626 9.59636 12.4866C9.6359 12.5273 9.67597 12.5674 9.71671 12.607C9.73201 12.6218 9.74644 12.6375 9.76188 12.6522C9.70355 12.6874 9.64576 12.7236 9.58851 12.7604C9.57918 12.7664 9.57006 12.7727 9.56079 12.7787C9.50354 12.8159 9.4469 12.8539 9.39079 12.8926C9.37139 12.906 9.35206 12.9196 9.33273 12.9332C9.28273 12.9684 9.23326 13.0042 9.1842 13.0407C9.1687 13.0522 9.15299 13.0635 9.13762 13.0752C9.0752 13.1224 9.01352 13.1704 8.95264 13.2196C8.93936 13.2303 8.92633 13.2414 8.91305 13.2522C8.86459 13.2919 8.8166 13.3322 8.76921 13.3732C8.75082 13.389 8.73257 13.405 8.71431 13.421C8.66686 13.4629 8.62001 13.5053 8.57363 13.5483C8.56155 13.5595 8.5492 13.5705 8.53719 13.5819C8.48027 13.6354 8.42423 13.69 8.36899 13.7455C8.35463 13.7599 8.3406 13.7746 8.32637 13.7891C8.28409 13.8323 8.24228 13.8759 8.201 13.9201C8.18462 13.9377 8.16825 13.9553 8.152 13.9731C8.10556 14.0238 8.05979 14.0752 8.01475 14.1274C8.0077 14.1356 8.00039 14.1435 7.99334 14.1517C7.94199 14.2117 7.89179 14.2728 7.84226 14.3344C7.82843 14.3516 7.81494 14.3691 7.80132 14.3865C7.76407 14.4338 7.72735 14.4816 7.69124 14.5298C7.67728 14.5485 7.66326 14.567 7.6495 14.5858C7.60225 14.6502 7.5556 14.7152 7.5103 14.7813C7.46164 14.8523 7.41452 14.9242 7.36861 14.9966ZM7.5856 20.5491V19.6259V18.8661C7.5856 18.7916 7.58701 18.7174 7.58976 18.6434C7.59064 18.619 7.59258 18.5948 7.59379 18.5705C7.59621 18.5211 7.59849 18.4717 7.60211 18.4225C7.60433 18.3926 7.60768 18.363 7.61037 18.3332C7.61426 18.2899 7.61775 18.2464 7.62258 18.2033C7.62614 18.1718 7.63077 18.1404 7.6348 18.109C7.64003 18.068 7.64493 18.0269 7.65097 17.9861C7.65587 17.9536 7.66178 17.9214 7.66715 17.889C7.67373 17.8497 7.67983 17.8102 7.68722 17.7711C7.69346 17.738 7.70071 17.7053 7.70749 17.6723C7.71527 17.6343 7.72272 17.5962 7.73125 17.5585C7.73876 17.5252 7.74735 17.4922 7.75541 17.4591C7.76447 17.4222 7.77313 17.385 7.78286 17.3483C7.79172 17.315 7.80152 17.282 7.81091 17.2489C7.82112 17.2128 7.83105 17.1767 7.84192 17.1409C7.85206 17.1076 7.8632 17.0746 7.87387 17.0415C7.88528 17.0064 7.89635 16.9713 7.90837 16.9364C7.91978 16.9035 7.93206 16.8708 7.94401 16.8381C7.95663 16.8036 7.96898 16.769 7.9822 16.7347C7.99482 16.7022 8.00824 16.67 8.02133 16.6377C8.03509 16.6039 8.04864 16.57 8.06301 16.5365C8.0769 16.5042 8.09153 16.4722 8.10596 16.4403C8.12079 16.4073 8.13549 16.3743 8.15093 16.3416C8.16603 16.3098 8.18187 16.2783 8.19751 16.2467C8.21348 16.2145 8.22926 16.1822 8.24577 16.1503C8.26208 16.1189 8.27906 16.0879 8.2959 16.0568C8.31295 16.0253 8.3298 15.9938 8.34738 15.9627C8.36483 15.9318 8.38295 15.9014 8.40087 15.8709C8.419 15.8401 8.43698 15.8093 8.45571 15.7789C8.4743 15.7486 8.4935 15.7188 8.51262 15.6889C8.53182 15.6589 8.55088 15.6289 8.57061 15.5992C8.59035 15.5695 8.61062 15.5403 8.63088 15.511C8.65109 15.4818 8.67122 15.4526 8.69189 15.4237C8.7127 15.3948 8.73411 15.3662 8.75552 15.3375C8.77673 15.3091 8.79787 15.2807 8.81955 15.2527C8.84143 15.2245 8.86385 15.1966 8.88627 15.1687C8.90848 15.141 8.93076 15.1135 8.95345 15.0862C8.97634 15.0588 8.99969 15.0318 9.02305 15.0048C9.04634 14.9779 9.0697 14.951 9.09352 14.9244C9.11735 14.8978 9.14171 14.8716 9.16601 14.8455C9.19031 14.8194 9.2146 14.7934 9.23937 14.7677C9.2642 14.742 9.28951 14.7166 9.31488 14.6913C9.34018 14.666 9.36562 14.6408 9.39139 14.6159C9.4171 14.5912 9.4432 14.5667 9.46945 14.5424C9.49576 14.5179 9.5222 14.4936 9.54898 14.4695C9.57569 14.4456 9.60267 14.4221 9.62986 14.3987C9.65711 14.3751 9.68456 14.3517 9.71228 14.3286C9.73986 14.3056 9.76771 14.283 9.79577 14.2605C9.82403 14.2379 9.85248 14.2154 9.88121 14.1932C9.9096 14.1713 9.93826 14.1497 9.96705 14.1282C9.99632 14.1064 10.0258 14.0848 10.0556 14.0635C10.0847 14.0427 10.1141 14.0221 10.1437 14.0017C10.174 13.9809 10.2045 13.9603 10.2353 13.9399C10.2651 13.9202 10.2953 13.9007 10.3255 13.8814C10.3569 13.8615 10.3884 13.8418 10.4202 13.8225C10.4508 13.8038 10.4816 13.7853 10.5126 13.7672C10.5448 13.7484 10.5773 13.7298 10.61 13.7115C10.6413 13.6939 10.6729 13.6765 10.7046 13.6594C10.7378 13.6416 10.7713 13.6241 10.805 13.6068C10.837 13.5903 10.869 13.5741 10.9014 13.5582C10.9268 13.5457 10.9525 13.5337 10.9782 13.5215C11.7326 13.918 12.5903 14.1437 13.5 14.1437C14.4097 14.1437 15.2674 13.918 16.0217 13.5215C16.0472 13.5336 16.0727 13.5456 16.0979 13.558C16.1307 13.5741 16.1631 13.5904 16.1955 13.607C16.2287 13.6241 16.2619 13.6415 16.2948 13.6591C16.3269 13.6764 16.3588 13.6939 16.3904 13.7117C16.4227 13.7298 16.4548 13.7482 16.4866 13.7668C16.5181 13.7852 16.5493 13.8039 16.5803 13.8229C16.6117 13.842 16.6427 13.8613 16.6736 13.881C16.7043 13.9005 16.7348 13.9203 16.7651 13.9403C16.7955 13.9604 16.8256 13.9808 16.8556 14.0014C16.8854 14.022 16.9152 14.0427 16.9446 14.0638C16.9741 14.0849 17.0032 14.1062 17.0322 14.1278C17.0613 14.1495 17.0903 14.1713 17.1189 14.1934C17.1474 14.2154 17.1756 14.2377 17.2036 14.2602C17.2318 14.2828 17.2599 14.3056 17.2877 14.3287C17.3152 14.3516 17.3425 14.3749 17.3696 14.3983C17.3969 14.4219 17.4241 14.4456 17.451 14.4697C17.4775 14.4935 17.5038 14.5177 17.5299 14.5419C17.5563 14.5665 17.5827 14.5912 17.6087 14.6162C17.6342 14.6408 17.6594 14.6658 17.6845 14.6908C17.71 14.7163 17.7355 14.7419 17.7605 14.7678C17.7851 14.7933 17.8093 14.8191 17.8334 14.845C17.858 14.8714 17.8824 14.8978 17.9065 14.9246C17.9301 14.9509 17.9533 14.9776 17.9763 15.0043C17.9999 15.0314 18.0235 15.0587 18.0465 15.0863C18.0691 15.1134 18.0912 15.1408 18.1133 15.1683C18.1358 15.1964 18.1584 15.2243 18.1804 15.2528C18.202 15.2807 18.223 15.3089 18.2441 15.3372C18.2656 15.3659 18.287 15.3947 18.308 15.4238C18.3286 15.4525 18.3486 15.4816 18.3687 15.5107C18.389 15.5401 18.4095 15.5695 18.4293 15.5993C18.4488 15.6287 18.4678 15.6585 18.4868 15.6883C18.5061 15.7185 18.5254 15.7485 18.5442 15.779C18.5627 15.8091 18.5805 15.8397 18.5985 15.8702C18.6166 15.9009 18.6349 15.9316 18.6524 15.9627C18.6699 15.9937 18.6867 16.0251 18.7037 16.0564C18.7206 16.0876 18.7377 16.1187 18.754 16.1502C18.7705 16.182 18.7862 16.2143 18.8022 16.2465C18.8178 16.2781 18.8337 16.3096 18.8488 16.3416C18.8642 16.3742 18.8789 16.4071 18.8936 16.44C18.9081 16.4722 18.9228 16.5041 18.9367 16.5365C18.951 16.5698 18.9644 16.6034 18.9781 16.637C18.9914 16.6696 19.0049 16.7021 19.0176 16.7349C19.0308 16.769 19.043 16.8034 19.0556 16.8378C19.0676 16.8706 19.0799 16.9033 19.0913 16.9364C19.1034 16.9713 19.1145 17.0067 19.1259 17.0419C19.1366 17.0749 19.1477 17.1077 19.1577 17.1409C19.1687 17.1767 19.1785 17.2129 19.1888 17.2489C19.1982 17.282 19.208 17.315 19.2169 17.3483C19.2266 17.385 19.2353 17.4221 19.2443 17.4591C19.2524 17.4922 19.261 17.5252 19.2685 17.5585C19.277 17.5962 19.2844 17.6342 19.2922 17.6722C19.299 17.7051 19.3063 17.7379 19.3125 17.7711C19.3198 17.8099 19.3259 17.849 19.3324 17.8881C19.3379 17.9208 19.3439 17.9533 19.3488 17.9861C19.3549 18.0266 19.3597 18.0674 19.3649 18.1081C19.369 18.1398 19.3737 18.1714 19.3773 18.2033C19.3821 18.2464 19.3856 18.2898 19.3895 18.3331C19.3922 18.3629 19.3955 18.3925 19.3978 18.4224C19.4014 18.4716 19.4037 18.5211 19.4061 18.5706C19.4073 18.5948 19.4092 18.619 19.4101 18.6433C19.4129 18.7173 19.4143 18.7916 19.4143 18.8661V19.6257V20.5491H7.5856V20.5491ZM20.7335 18.2835C20.7203 18.12 20.7014 17.9575 20.6773 17.796C20.6735 17.7704 20.669 17.7451 20.6649 17.7196C20.6555 17.6611 20.6458 17.6028 20.635 17.5446C20.6293 17.514 20.623 17.4836 20.6169 17.453C20.6064 17.3999 20.5954 17.347 20.5836 17.2942C20.5765 17.2624 20.5691 17.2306 20.5616 17.1989C20.5493 17.1471 20.5365 17.0955 20.523 17.044C20.5149 17.0128 20.5068 16.9817 20.4982 16.9505C20.4835 16.897 20.4678 16.8437 20.4518 16.7905C20.4434 16.7624 20.4353 16.7343 20.4265 16.7063C20.4067 16.6433 20.3858 16.5806 20.3642 16.518C20.3582 16.5006 20.3527 16.4829 20.3465 16.4655C20.3182 16.3853 20.2885 16.3055 20.2573 16.2263C20.2505 16.2093 20.2432 16.1925 20.2364 16.1755C20.2116 16.114 20.1862 16.0526 20.1597 15.9916C20.148 15.9646 20.1356 15.9379 20.1235 15.9109C20.1007 15.8602 20.0776 15.8097 20.0536 15.7595C20.0395 15.7301 20.025 15.7009 20.0106 15.6717C19.987 15.624 19.9629 15.5766 19.9383 15.5294C19.9229 15.4999 19.9074 15.4705 19.8915 15.4411C19.866 15.3939 19.8399 15.3471 19.8133 15.3004C19.7973 15.2723 19.7815 15.2443 19.7652 15.2164C19.7357 15.166 19.7051 15.1161 19.6743 15.0663C19.6599 15.0431 19.646 15.0197 19.6313 14.9967C19.5853 14.9243 19.5382 14.8524 19.4895 14.7813C19.4441 14.7151 19.3975 14.6502 19.3502 14.5857C19.3365 14.5671 19.3226 14.5486 19.3088 14.5301C19.2724 14.4816 19.2356 14.4336 19.1982 14.3861C19.1847 14.369 19.1714 14.3517 19.1577 14.3347C19.1081 14.2728 19.0577 14.2116 19.0062 14.1515C18.9995 14.1438 18.9926 14.1362 18.9859 14.1284C18.9405 14.0758 18.8943 14.024 18.8475 13.9729C18.8314 13.9553 18.8152 13.9379 18.799 13.9205C18.7575 13.876 18.7154 13.832 18.6729 13.7886C18.6589 13.7743 18.6451 13.7599 18.6309 13.7458C18.5756 13.6902 18.5193 13.6354 18.4623 13.5817C18.4505 13.5706 18.4384 13.5599 18.4266 13.5489C18.38 13.5056 18.3329 13.463 18.2852 13.421C18.2671 13.405 18.2488 13.3892 18.2306 13.3733C18.1831 13.3323 18.1351 13.292 18.0866 13.2522C18.0733 13.2414 18.0604 13.2304 18.0471 13.2196C17.9863 13.1705 17.9246 13.1224 17.8622 13.0753C17.8467 13.0636 17.8308 13.0522 17.8152 13.0406C17.7663 13.0043 17.7171 12.9686 17.6673 12.9336C17.6478 12.9198 17.6283 12.9061 17.6087 12.8926C17.5531 12.8542 17.4971 12.8166 17.4404 12.7799C17.4305 12.7734 17.4207 12.7667 17.4108 12.7603C17.3536 12.7236 17.296 12.6876 17.2378 12.6524C17.2528 12.6381 17.2669 12.6229 17.2817 12.6084C17.3234 12.5681 17.3642 12.5272 17.4045 12.4856C17.427 12.4623 17.4493 12.439 17.4714 12.4154C17.5153 12.3684 17.5581 12.3205 17.6004 12.272C17.6184 12.2514 17.6365 12.2309 17.6541 12.21C17.6992 12.1567 17.7429 12.1023 17.7859 12.0471C17.8 12.0292 17.8145 12.0114 17.8283 11.9933C17.8714 11.9365 17.9131 11.8787 17.9541 11.8203C18.216 11.8588 18.4799 11.8782 18.743 11.8782C19.6528 11.8782 20.5104 11.6526 21.2647 11.256C23.3356 12.2371 24.6574 14.3013 24.6574 16.6006V18.2835H20.7335V18.2835Z"/>
</mask>
<path d="M25.9999 16.6005C25.9999 15.1376 25.5619 13.7251 24.733 12.5156C24.1368 11.6456 23.369 10.9231 22.4793 10.3863C23.5268 9.39428 24.1822 7.9922 24.1822 6.43904C24.1822 3.43998 21.7422 1 18.7432 1C16.9649 1 15.299 1.8795 14.2872 3.32326C14.0301 3.28581 13.7674 3.26561 13.5 3.26561C13.2326 3.26561 12.9699 3.28588 12.7128 3.32326C11.7009 1.8795 10.035 1 8.25677 1C5.25771 1 2.81773 3.43998 2.81773 6.43904C2.81773 7.9922 3.47313 9.39428 4.5207 10.3863C3.63093 10.9231 2.86317 11.6456 2.26704 12.5155C1.43814 13.7251 1 15.1376 1 16.6005V19.6258H6.24326V21.8914H20.7568V19.6258H26V16.6005H25.9999ZM18.7432 2.34241C21.0021 2.34241 22.8399 4.18015 22.8399 6.43911C22.8399 8.69807 21.0021 10.5358 18.7432 10.5358C18.7028 10.5358 18.6623 10.5352 18.6217 10.534C18.6248 10.5254 18.6274 10.5166 18.6304 10.508C18.7003 10.3098 18.7587 10.1061 18.8054 9.89812C18.8087 9.88336 18.8125 9.86873 18.8156 9.85389C18.8278 9.79778 18.8385 9.74114 18.8489 9.68436C18.8538 9.65751 18.8588 9.63073 18.8633 9.60382C18.8718 9.55314 18.8794 9.50227 18.8865 9.45119C18.8914 9.41569 18.8958 9.38018 18.9 9.34461C18.9053 9.29951 18.9105 9.25434 18.9147 9.2089C18.919 9.16252 18.9222 9.11608 18.9253 9.06956C18.9277 9.03292 18.9308 8.99641 18.9324 8.95956C18.9361 8.88056 18.9382 8.80143 18.9385 8.72223C18.9385 8.71639 18.9389 8.71069 18.9389 8.70478C18.9389 8.70163 18.9387 8.69847 18.9387 8.69532C18.9385 8.61444 18.9362 8.53404 18.9326 8.4539C18.9315 8.43061 18.9301 8.40739 18.9287 8.38416C18.9248 8.31604 18.9196 8.24825 18.9132 8.1808C18.9118 8.1655 18.9105 8.15019 18.909 8.13496C18.7062 6.17453 17.4677 4.49654 15.681 3.72039C16.4509 2.85545 17.5645 2.34241 18.7432 2.34241ZM12.0825 4.86078C12.0956 4.85601 12.1088 4.85152 12.1219 4.84682C12.1627 4.83226 12.2037 4.81843 12.245 4.80507C12.2763 4.79507 12.3078 4.78541 12.3394 4.77615C12.3625 4.76937 12.3856 4.76286 12.4087 4.75641C12.4501 4.74507 12.4916 4.734 12.5335 4.72386C12.8436 4.64856 13.167 4.60768 13.4998 4.60768C13.8329 4.60795 14.1564 4.64889 14.4666 4.7242C14.5083 4.73426 14.5495 4.74527 14.5907 4.75655C14.6142 4.76306 14.6377 4.76964 14.661 4.77655C14.6922 4.78574 14.7234 4.79527 14.7543 4.80514C14.7961 4.81863 14.8377 4.83259 14.8789 4.84736C14.8916 4.85185 14.9043 4.85615 14.9169 4.86078C16.2869 5.36745 17.3142 6.58677 17.5467 8.0665C17.5485 8.07831 17.5502 8.09019 17.552 8.10207C17.5594 8.15221 17.5657 8.20275 17.5712 8.25342C17.5732 8.27208 17.5754 8.29067 17.5772 8.30939C17.5816 8.35564 17.5849 8.40222 17.5879 8.44893C17.5891 8.46893 17.5908 8.48887 17.5917 8.50893C17.5945 8.5686 17.5961 8.6286 17.5963 8.68894C17.5963 8.69418 17.5966 8.69928 17.5966 8.70451C17.5966 8.70693 17.5965 8.70941 17.5965 8.71183C17.5963 8.77022 17.5946 8.82821 17.592 8.886C17.5912 8.90419 17.5904 8.92238 17.5893 8.9405C17.5862 8.99634 17.582 9.05191 17.5767 9.10708C17.5746 9.12842 17.5718 9.1497 17.5693 9.17098C17.5653 9.20668 17.5607 9.24232 17.5557 9.27776C17.5518 9.30535 17.5479 9.333 17.5435 9.36045C17.5367 9.40226 17.5292 9.44381 17.5212 9.48522C17.514 9.52207 17.5061 9.55878 17.4979 9.59543C17.493 9.61751 17.4879 9.63959 17.4826 9.66154C17.4695 9.71597 17.4552 9.77007 17.4399 9.82396C17.4338 9.84537 17.4281 9.86692 17.4216 9.88812C17.4123 9.919 17.4022 9.9496 17.3922 9.98021C17.3842 10.0047 17.3759 10.0291 17.3674 10.0534C17.3577 10.081 17.3482 10.1086 17.338 10.136C17.3206 10.1825 17.3024 10.2286 17.2834 10.2743C17.2749 10.2947 17.2659 10.3149 17.2571 10.3353C17.2405 10.3733 17.2235 10.4112 17.2058 10.4486C17.2037 10.453 17.2016 10.4575 17.1995 10.4619C17.1932 10.4752 17.1868 10.4886 17.1803 10.5018C17.1605 10.5424 17.1398 10.5825 17.1186 10.6222C17.1103 10.6376 17.1023 10.6533 17.0939 10.6686C17.0934 10.6696 17.0928 10.6706 17.0923 10.6715C17.0691 10.7138 17.0448 10.7554 17.0202 10.7968C17.0104 10.8131 17.0007 10.8296 16.9907 10.8458C16.9639 10.8893 16.9363 10.9324 16.9079 10.9748C16.8903 11.0012 16.8718 11.027 16.8535 11.053C16.838 11.075 16.8226 11.0971 16.8067 11.1188C16.7861 11.1468 16.7651 11.1746 16.7437 11.2021C16.7292 11.2209 16.7146 11.2395 16.6998 11.258C16.6773 11.2862 16.6545 11.3142 16.6313 11.3418C16.6169 11.3589 16.6021 11.3757 16.5874 11.3926C16.5632 11.4203 16.5391 11.4481 16.5143 11.4751C16.4995 11.4912 16.4842 11.5066 16.4692 11.5224C16.4288 11.565 16.3874 11.6067 16.3453 11.6476C16.3202 11.6718 16.2953 11.6961 16.2697 11.7197C16.252 11.736 16.2338 11.7518 16.2157 11.7679C16.1863 11.794 16.1567 11.8198 16.1266 11.8451C16.1113 11.8579 16.0959 11.8706 16.0804 11.8832C16.0439 11.9128 16.007 11.9419 15.9695 11.9704C15.9593 11.9781 15.9492 11.9859 15.9389 11.9936C15.257 12.5005 14.413 12.801 13.4999 12.801C12.5868 12.801 11.7426 12.5005 11.0607 11.9934C11.0506 11.9859 11.0407 11.9782 11.0307 11.9706C10.9931 11.942 10.956 11.9128 10.9194 11.883C10.904 11.8704 10.8886 11.8579 10.8735 11.8451C10.8432 11.8198 10.8135 11.7938 10.784 11.7676C10.7661 11.7516 10.748 11.7359 10.7303 11.7197C10.7046 11.6961 10.6796 11.6717 10.6545 11.6475C10.6122 11.6065 10.5708 11.5646 10.5302 11.5219C10.5154 11.5063 10.5002 11.491 10.4857 11.4752C10.4608 11.4481 10.4367 11.4202 10.4125 11.3925C10.3978 11.3756 10.383 11.3589 10.3686 11.3418C10.3453 11.3142 10.3226 11.2862 10.3001 11.2581C10.2853 11.2395 10.2706 11.2209 10.2561 11.2021C10.2349 11.1746 10.2138 11.1469 10.1932 11.1189C10.1773 11.0971 10.1618 11.075 10.1463 11.0529C10.1281 11.027 10.1097 11.0012 10.0921 10.9749C10.0636 10.9323 10.0358 10.889 10.0089 10.8453C9.99907 10.8293 9.98954 10.8131 9.97987 10.797C9.95484 10.755 9.93034 10.7129 9.90678 10.67C9.89812 10.6542 9.88994 10.6382 9.88141 10.6223C9.8602 10.5825 9.83946 10.5422 9.81953 10.5016C9.81242 10.4872 9.8055 10.4726 9.79859 10.4581C9.79752 10.4559 9.79651 10.4537 9.7955 10.4515C9.77691 10.4123 9.75912 10.3727 9.74174 10.3328C9.73349 10.3138 9.7251 10.2949 9.71718 10.2758C9.69771 10.2291 9.67912 10.182 9.66133 10.1344C9.65174 10.1088 9.64288 10.0829 9.63382 10.0571C9.62449 10.0305 9.61549 10.0038 9.6067 9.97705C9.59724 9.94806 9.58771 9.91907 9.57885 9.88994C9.56563 9.84638 9.55314 9.80255 9.5414 9.75845C9.53314 9.72751 9.52569 9.6963 9.51811 9.66516C9.5122 9.64066 9.5065 9.61617 9.50106 9.59153C9.49435 9.56133 9.48757 9.5312 9.48153 9.50086C9.4722 9.45361 9.46367 9.40609 9.45602 9.3583C9.45186 9.33253 9.44824 9.30669 9.44455 9.28092C9.43911 9.24273 9.43421 9.20433 9.42985 9.16581C9.4277 9.14681 9.42522 9.12782 9.42327 9.10883C9.4177 9.05225 9.41347 8.99527 9.41025 8.93808C9.40931 8.92164 9.40857 8.90519 9.40783 8.88875C9.40508 8.82761 9.40313 8.76626 9.40313 8.70451C9.40313 8.63834 9.40501 8.57263 9.40817 8.50719C9.40904 8.4894 9.41052 8.47175 9.41152 8.45403C9.41448 8.4049 9.41803 8.35591 9.42273 8.30718C9.42434 8.2902 9.42629 8.27329 9.4281 8.25637C9.43387 8.20362 9.44039 8.15113 9.44817 8.09898C9.44965 8.08885 9.45112 8.07865 9.45273 8.06851C9.68449 6.58791 10.7119 5.36778 12.0825 4.86078ZM4.16008 6.43911C4.16008 4.18021 5.99781 2.34241 8.25677 2.34241C9.43555 2.34241 10.5491 2.85552 11.319 3.72026C9.53173 4.49667 8.29295 6.17547 8.09073 8.1367C8.08932 8.14999 8.08831 8.16335 8.08703 8.1767C8.08032 8.24657 8.07502 8.31671 8.07099 8.38725C8.06979 8.40873 8.06844 8.43014 8.06744 8.45168C8.06361 8.53565 8.06099 8.61988 8.06099 8.70471C8.06099 8.79036 8.06348 8.8758 8.0675 8.96117C8.06911 8.99553 8.07193 9.02956 8.07415 9.06372C8.07744 9.11285 8.08079 9.16198 8.08536 9.21098C8.08938 9.25454 8.09435 9.29783 8.09945 9.34112C8.10388 9.37884 8.10858 9.41643 8.11381 9.45401C8.12066 9.50334 8.12804 9.55247 8.13616 9.6014C8.14106 9.63046 8.14643 9.65946 8.15174 9.68845C8.1618 9.74322 8.17207 9.79785 8.18375 9.85201C8.18764 9.86987 8.19207 9.88759 8.1961 9.90537C8.24167 10.1069 8.29825 10.3043 8.36564 10.4967C8.36993 10.5091 8.37369 10.5216 8.37805 10.534C8.33758 10.5352 8.29704 10.5358 8.25664 10.5358C5.99781 10.5357 4.16008 8.698 4.16008 6.43911ZM7.36861 14.9966C7.35385 15.0199 7.33975 15.0436 7.32525 15.067C7.29458 15.1166 7.26418 15.1662 7.23478 15.2164C7.21834 15.2443 7.2025 15.2725 7.18652 15.3007C7.16008 15.3472 7.13397 15.3939 7.1086 15.4409C7.09263 15.4705 7.07692 15.5003 7.06135 15.53C7.03692 15.5768 7.01309 15.6238 6.98974 15.671C6.97504 15.7007 6.96041 15.7303 6.94618 15.7601C6.92242 15.8098 6.89953 15.8599 6.87691 15.9101C6.86463 15.9375 6.85201 15.9646 6.84013 15.992C6.81396 16.0522 6.78899 16.1128 6.76449 16.1736C6.75731 16.1914 6.74966 16.209 6.74268 16.2267C6.7116 16.3057 6.68187 16.3853 6.65368 16.4652C6.64724 16.4835 6.64147 16.5021 6.63509 16.5204C6.61388 16.582 6.59321 16.6438 6.57368 16.7059C6.56475 16.7344 6.5565 16.7631 6.5479 16.7917C6.53213 16.8443 6.51663 16.897 6.50206 16.95C6.4934 16.9815 6.48515 17.0131 6.47689 17.0448C6.4636 17.0957 6.45085 17.1467 6.43877 17.1979C6.43105 17.2303 6.42354 17.2628 6.41635 17.2952C6.40481 17.3471 6.394 17.3992 6.3836 17.4514C6.37736 17.4827 6.37092 17.514 6.36508 17.5455C6.35454 17.6023 6.34508 17.6594 6.33588 17.7165C6.33159 17.7433 6.32682 17.77 6.32279 17.7969C6.31031 17.8808 6.29897 17.9649 6.28944 18.0494C6.2893 18.0504 6.28923 18.0514 6.28917 18.0524C6.28051 18.1292 6.27306 18.2062 6.26682 18.2835H2.34234V16.6005C2.34234 14.3012 3.66415 12.237 5.73498 11.2559C6.48938 11.6524 7.34693 11.8781 8.25671 11.8781C8.51981 11.8781 8.78371 11.8587 9.0456 11.8202C9.08641 11.8783 9.12789 11.9359 9.17084 11.9924C9.18534 12.0114 9.20037 12.03 9.21514 12.0488C9.25756 12.103 9.30058 12.1566 9.34501 12.2092C9.3632 12.2307 9.38186 12.2518 9.40038 12.2731C9.442 12.3209 9.48428 12.368 9.5275 12.4143C9.55019 12.4386 9.57328 12.4626 9.59636 12.4866C9.6359 12.5273 9.67597 12.5674 9.71671 12.607C9.73201 12.6218 9.74644 12.6375 9.76188 12.6522C9.70355 12.6874 9.64576 12.7236 9.58851 12.7604C9.57918 12.7664 9.57006 12.7727 9.56079 12.7787C9.50354 12.8159 9.4469 12.8539 9.39079 12.8926C9.37139 12.906 9.35206 12.9196 9.33273 12.9332C9.28273 12.9684 9.23326 13.0042 9.1842 13.0407C9.1687 13.0522 9.15299 13.0635 9.13762 13.0752C9.0752 13.1224 9.01352 13.1704 8.95264 13.2196C8.93936 13.2303 8.92633 13.2414 8.91305 13.2522C8.86459 13.2919 8.8166 13.3322 8.76921 13.3732C8.75082 13.389 8.73257 13.405 8.71431 13.421C8.66686 13.4629 8.62001 13.5053 8.57363 13.5483C8.56155 13.5595 8.5492 13.5705 8.53719 13.5819C8.48027 13.6354 8.42423 13.69 8.36899 13.7455C8.35463 13.7599 8.3406 13.7746 8.32637 13.7891C8.28409 13.8323 8.24228 13.8759 8.201 13.9201C8.18462 13.9377 8.16825 13.9553 8.152 13.9731C8.10556 14.0238 8.05979 14.0752 8.01475 14.1274C8.0077 14.1356 8.00039 14.1435 7.99334 14.1517C7.94199 14.2117 7.89179 14.2728 7.84226 14.3344C7.82843 14.3516 7.81494 14.3691 7.80132 14.3865C7.76407 14.4338 7.72735 14.4816 7.69124 14.5298C7.67728 14.5485 7.66326 14.567 7.6495 14.5858C7.60225 14.6502 7.5556 14.7152 7.5103 14.7813C7.46164 14.8523 7.41452 14.9242 7.36861 14.9966ZM7.5856 20.5491V19.6259V18.8661C7.5856 18.7916 7.58701 18.7174 7.58976 18.6434C7.59064 18.619 7.59258 18.5948 7.59379 18.5705C7.59621 18.5211 7.59849 18.4717 7.60211 18.4225C7.60433 18.3926 7.60768 18.363 7.61037 18.3332C7.61426 18.2899 7.61775 18.2464 7.62258 18.2033C7.62614 18.1718 7.63077 18.1404 7.6348 18.109C7.64003 18.068 7.64493 18.0269 7.65097 17.9861C7.65587 17.9536 7.66178 17.9214 7.66715 17.889C7.67373 17.8497 7.67983 17.8102 7.68722 17.7711C7.69346 17.738 7.70071 17.7053 7.70749 17.6723C7.71527 17.6343 7.72272 17.5962 7.73125 17.5585C7.73876 17.5252 7.74735 17.4922 7.75541 17.4591C7.76447 17.4222 7.77313 17.385 7.78286 17.3483C7.79172 17.315 7.80152 17.282 7.81091 17.2489C7.82112 17.2128 7.83105 17.1767 7.84192 17.1409C7.85206 17.1076 7.8632 17.0746 7.87387 17.0415C7.88528 17.0064 7.89635 16.9713 7.90837 16.9364C7.91978 16.9035 7.93206 16.8708 7.94401 16.8381C7.95663 16.8036 7.96898 16.769 7.9822 16.7347C7.99482 16.7022 8.00824 16.67 8.02133 16.6377C8.03509 16.6039 8.04864 16.57 8.06301 16.5365C8.0769 16.5042 8.09153 16.4722 8.10596 16.4403C8.12079 16.4073 8.13549 16.3743 8.15093 16.3416C8.16603 16.3098 8.18187 16.2783 8.19751 16.2467C8.21348 16.2145 8.22926 16.1822 8.24577 16.1503C8.26208 16.1189 8.27906 16.0879 8.2959 16.0568C8.31295 16.0253 8.3298 15.9938 8.34738 15.9627C8.36483 15.9318 8.38295 15.9014 8.40087 15.8709C8.419 15.8401 8.43698 15.8093 8.45571 15.7789C8.4743 15.7486 8.4935 15.7188 8.51262 15.6889C8.53182 15.6589 8.55088 15.6289 8.57061 15.5992C8.59035 15.5695 8.61062 15.5403 8.63088 15.511C8.65109 15.4818 8.67122 15.4526 8.69189 15.4237C8.7127 15.3948 8.73411 15.3662 8.75552 15.3375C8.77673 15.3091 8.79787 15.2807 8.81955 15.2527C8.84143 15.2245 8.86385 15.1966 8.88627 15.1687C8.90848 15.141 8.93076 15.1135 8.95345 15.0862C8.97634 15.0588 8.99969 15.0318 9.02305 15.0048C9.04634 14.9779 9.0697 14.951 9.09352 14.9244C9.11735 14.8978 9.14171 14.8716 9.16601 14.8455C9.19031 14.8194 9.2146 14.7934 9.23937 14.7677C9.2642 14.742 9.28951 14.7166 9.31488 14.6913C9.34018 14.666 9.36562 14.6408 9.39139 14.6159C9.4171 14.5912 9.4432 14.5667 9.46945 14.5424C9.49576 14.5179 9.5222 14.4936 9.54898 14.4695C9.57569 14.4456 9.60267 14.4221 9.62986 14.3987C9.65711 14.3751 9.68456 14.3517 9.71228 14.3286C9.73986 14.3056 9.76771 14.283 9.79577 14.2605C9.82403 14.2379 9.85248 14.2154 9.88121 14.1932C9.9096 14.1713 9.93826 14.1497 9.96705 14.1282C9.99632 14.1064 10.0258 14.0848 10.0556 14.0635C10.0847 14.0427 10.1141 14.0221 10.1437 14.0017C10.174 13.9809 10.2045 13.9603 10.2353 13.9399C10.2651 13.9202 10.2953 13.9007 10.3255 13.8814C10.3569 13.8615 10.3884 13.8418 10.4202 13.8225C10.4508 13.8038 10.4816 13.7853 10.5126 13.7672C10.5448 13.7484 10.5773 13.7298 10.61 13.7115C10.6413 13.6939 10.6729 13.6765 10.7046 13.6594C10.7378 13.6416 10.7713 13.6241 10.805 13.6068C10.837 13.5903 10.869 13.5741 10.9014 13.5582C10.9268 13.5457 10.9525 13.5337 10.9782 13.5215C11.7326 13.918 12.5903 14.1437 13.5 14.1437C14.4097 14.1437 15.2674 13.918 16.0217 13.5215C16.0472 13.5336 16.0727 13.5456 16.0979 13.558C16.1307 13.5741 16.1631 13.5904 16.1955 13.607C16.2287 13.6241 16.2619 13.6415 16.2948 13.6591C16.3269 13.6764 16.3588 13.6939 16.3904 13.7117C16.4227 13.7298 16.4548 13.7482 16.4866 13.7668C16.5181 13.7852 16.5493 13.8039 16.5803 13.8229C16.6117 13.842 16.6427 13.8613 16.6736 13.881C16.7043 13.9005 16.7348 13.9203 16.7651 13.9403C16.7955 13.9604 16.8256 13.9808 16.8556 14.0014C16.8854 14.022 16.9152 14.0427 16.9446 14.0638C16.9741 14.0849 17.0032 14.1062 17.0322 14.1278C17.0613 14.1495 17.0903 14.1713 17.1189 14.1934C17.1474 14.2154 17.1756 14.2377 17.2036 14.2602C17.2318 14.2828 17.2599 14.3056 17.2877 14.3287C17.3152 14.3516 17.3425 14.3749 17.3696 14.3983C17.3969 14.4219 17.4241 14.4456 17.451 14.4697C17.4775 14.4935 17.5038 14.5177 17.5299 14.5419C17.5563 14.5665 17.5827 14.5912 17.6087 14.6162C17.6342 14.6408 17.6594 14.6658 17.6845 14.6908C17.71 14.7163 17.7355 14.7419 17.7605 14.7678C17.7851 14.7933 17.8093 14.8191 17.8334 14.845C17.858 14.8714 17.8824 14.8978 17.9065 14.9246C17.9301 14.9509 17.9533 14.9776 17.9763 15.0043C17.9999 15.0314 18.0235 15.0587 18.0465 15.0863C18.0691 15.1134 18.0912 15.1408 18.1133 15.1683C18.1358 15.1964 18.1584 15.2243 18.1804 15.2528C18.202 15.2807 18.223 15.3089 18.2441 15.3372C18.2656 15.3659 18.287 15.3947 18.308 15.4238C18.3286 15.4525 18.3486 15.4816 18.3687 15.5107C18.389 15.5401 18.4095 15.5695 18.4293 15.5993C18.4488 15.6287 18.4678 15.6585 18.4868 15.6883C18.5061 15.7185 18.5254 15.7485 18.5442 15.779C18.5627 15.8091 18.5805 15.8397 18.5985 15.8702C18.6166 15.9009 18.6349 15.9316 18.6524 15.9627C18.6699 15.9937 18.6867 16.0251 18.7037 16.0564C18.7206 16.0876 18.7377 16.1187 18.754 16.1502C18.7705 16.182 18.7862 16.2143 18.8022 16.2465C18.8178 16.2781 18.8337 16.3096 18.8488 16.3416C18.8642 16.3742 18.8789 16.4071 18.8936 16.44C18.9081 16.4722 18.9228 16.5041 18.9367 16.5365C18.951 16.5698 18.9644 16.6034 18.9781 16.637C18.9914 16.6696 19.0049 16.7021 19.0176 16.7349C19.0308 16.769 19.043 16.8034 19.0556 16.8378C19.0676 16.8706 19.0799 16.9033 19.0913 16.9364C19.1034 16.9713 19.1145 17.0067 19.1259 17.0419C19.1366 17.0749 19.1477 17.1077 19.1577 17.1409C19.1687 17.1767 19.1785 17.2129 19.1888 17.2489C19.1982 17.282 19.208 17.315 19.2169 17.3483C19.2266 17.385 19.2353 17.4221 19.2443 17.4591C19.2524 17.4922 19.261 17.5252 19.2685 17.5585C19.277 17.5962 19.2844 17.6342 19.2922 17.6722C19.299 17.7051 19.3063 17.7379 19.3125 17.7711C19.3198 17.8099 19.3259 17.849 19.3324 17.8881C19.3379 17.9208 19.3439 17.9533 19.3488 17.9861C19.3549 18.0266 19.3597 18.0674 19.3649 18.1081C19.369 18.1398 19.3737 18.1714 19.3773 18.2033C19.3821 18.2464 19.3856 18.2898 19.3895 18.3331C19.3922 18.3629 19.3955 18.3925 19.3978 18.4224C19.4014 18.4716 19.4037 18.5211 19.4061 18.5706C19.4073 18.5948 19.4092 18.619 19.4101 18.6433C19.4129 18.7173 19.4143 18.7916 19.4143 18.8661V19.6257V20.5491H7.5856V20.5491ZM20.7335 18.2835C20.7203 18.12 20.7014 17.9575 20.6773 17.796C20.6735 17.7704 20.669 17.7451 20.6649 17.7196C20.6555 17.6611 20.6458 17.6028 20.635 17.5446C20.6293 17.514 20.623 17.4836 20.6169 17.453C20.6064 17.3999 20.5954 17.347 20.5836 17.2942C20.5765 17.2624 20.5691 17.2306 20.5616 17.1989C20.5493 17.1471 20.5365 17.0955 20.523 17.044C20.5149 17.0128 20.5068 16.9817 20.4982 16.9505C20.4835 16.897 20.4678 16.8437 20.4518 16.7905C20.4434 16.7624 20.4353 16.7343 20.4265 16.7063C20.4067 16.6433 20.3858 16.5806 20.3642 16.518C20.3582 16.5006 20.3527 16.4829 20.3465 16.4655C20.3182 16.3853 20.2885 16.3055 20.2573 16.2263C20.2505 16.2093 20.2432 16.1925 20.2364 16.1755C20.2116 16.114 20.1862 16.0526 20.1597 15.9916C20.148 15.9646 20.1356 15.9379 20.1235 15.9109C20.1007 15.8602 20.0776 15.8097 20.0536 15.7595C20.0395 15.7301 20.025 15.7009 20.0106 15.6717C19.987 15.624 19.9629 15.5766 19.9383 15.5294C19.9229 15.4999 19.9074 15.4705 19.8915 15.4411C19.866 15.3939 19.8399 15.3471 19.8133 15.3004C19.7973 15.2723 19.7815 15.2443 19.7652 15.2164C19.7357 15.166 19.7051 15.1161 19.6743 15.0663C19.6599 15.0431 19.646 15.0197 19.6313 14.9967C19.5853 14.9243 19.5382 14.8524 19.4895 14.7813C19.4441 14.7151 19.3975 14.6502 19.3502 14.5857C19.3365 14.5671 19.3226 14.5486 19.3088 14.5301C19.2724 14.4816 19.2356 14.4336 19.1982 14.3861C19.1847 14.369 19.1714 14.3517 19.1577 14.3347C19.1081 14.2728 19.0577 14.2116 19.0062 14.1515C18.9995 14.1438 18.9926 14.1362 18.9859 14.1284C18.9405 14.0758 18.8943 14.024 18.8475 13.9729C18.8314 13.9553 18.8152 13.9379 18.799 13.9205C18.7575 13.876 18.7154 13.832 18.6729 13.7886C18.6589 13.7743 18.6451 13.7599 18.6309 13.7458C18.5756 13.6902 18.5193 13.6354 18.4623 13.5817C18.4505 13.5706 18.4384 13.5599 18.4266 13.5489C18.38 13.5056 18.3329 13.463 18.2852 13.421C18.2671 13.405 18.2488 13.3892 18.2306 13.3733C18.1831 13.3323 18.1351 13.292 18.0866 13.2522C18.0733 13.2414 18.0604 13.2304 18.0471 13.2196C17.9863 13.1705 17.9246 13.1224 17.8622 13.0753C17.8467 13.0636 17.8308 13.0522 17.8152 13.0406C17.7663 13.0043 17.7171 12.9686 17.6673 12.9336C17.6478 12.9198 17.6283 12.9061 17.6087 12.8926C17.5531 12.8542 17.4971 12.8166 17.4404 12.7799C17.4305 12.7734 17.4207 12.7667 17.4108 12.7603C17.3536 12.7236 17.296 12.6876 17.2378 12.6524C17.2528 12.6381 17.2669 12.6229 17.2817 12.6084C17.3234 12.5681 17.3642 12.5272 17.4045 12.4856C17.427 12.4623 17.4493 12.439 17.4714 12.4154C17.5153 12.3684 17.5581 12.3205 17.6004 12.272C17.6184 12.2514 17.6365 12.2309 17.6541 12.21C17.6992 12.1567 17.7429 12.1023 17.7859 12.0471C17.8 12.0292 17.8145 12.0114 17.8283 11.9933C17.8714 11.9365 17.9131 11.8787 17.9541 11.8203C18.216 11.8588 18.4799 11.8782 18.743 11.8782C19.6528 11.8782 20.5104 11.6526 21.2647 11.256C23.3356 12.2371 24.6574 14.3013 24.6574 16.6006V18.2835H20.7335V18.2835Z" fill="#00A7A4"/>
<path d="M25.9999 16.6005C25.9999 15.1376 25.5619 13.7251 24.733 12.5156C24.1368 11.6456 23.369 10.9231 22.4793 10.3863C23.5268 9.39428 24.1822 7.9922 24.1822 6.43904C24.1822 3.43998 21.7422 1 18.7432 1C16.9649 1 15.299 1.8795 14.2872 3.32326C14.0301 3.28581 13.7674 3.26561 13.5 3.26561C13.2326 3.26561 12.9699 3.28588 12.7128 3.32326C11.7009 1.8795 10.035 1 8.25677 1C5.25771 1 2.81773 3.43998 2.81773 6.43904C2.81773 7.9922 3.47313 9.39428 4.5207 10.3863C3.63093 10.9231 2.86317 11.6456 2.26704 12.5155C1.43814 13.7251 1 15.1376 1 16.6005V19.6258H6.24326V21.8914H20.7568V19.6258H26V16.6005H25.9999ZM18.7432 2.34241C21.0021 2.34241 22.8399 4.18015 22.8399 6.43911C22.8399 8.69807 21.0021 10.5358 18.7432 10.5358C18.7028 10.5358 18.6623 10.5352 18.6217 10.534C18.6248 10.5254 18.6274 10.5166 18.6304 10.508C18.7003 10.3098 18.7587 10.1061 18.8054 9.89812C18.8087 9.88336 18.8125 9.86873 18.8156 9.85389C18.8278 9.79778 18.8385 9.74114 18.8489 9.68436C18.8538 9.65751 18.8588 9.63073 18.8633 9.60382C18.8718 9.55314 18.8794 9.50227 18.8865 9.45119C18.8914 9.41569 18.8958 9.38018 18.9 9.34461C18.9053 9.29951 18.9105 9.25434 18.9147 9.2089C18.919 9.16252 18.9222 9.11608 18.9253 9.06956C18.9277 9.03292 18.9308 8.99641 18.9324 8.95956C18.9361 8.88056 18.9382 8.80143 18.9385 8.72223C18.9385 8.71639 18.9389 8.71069 18.9389 8.70478C18.9389 8.70163 18.9387 8.69847 18.9387 8.69532C18.9385 8.61444 18.9362 8.53404 18.9326 8.4539C18.9315 8.43061 18.9301 8.40739 18.9287 8.38416C18.9248 8.31604 18.9196 8.24825 18.9132 8.1808C18.9118 8.1655 18.9105 8.15019 18.909 8.13496C18.7062 6.17453 17.4677 4.49654 15.681 3.72039C16.4509 2.85545 17.5645 2.34241 18.7432 2.34241ZM12.0825 4.86078C12.0956 4.85601 12.1088 4.85152 12.1219 4.84682C12.1627 4.83226 12.2037 4.81843 12.245 4.80507C12.2763 4.79507 12.3078 4.78541 12.3394 4.77615C12.3625 4.76937 12.3856 4.76286 12.4087 4.75641C12.4501 4.74507 12.4916 4.734 12.5335 4.72386C12.8436 4.64856 13.167 4.60768 13.4998 4.60768C13.8329 4.60795 14.1564 4.64889 14.4666 4.7242C14.5083 4.73426 14.5495 4.74527 14.5907 4.75655C14.6142 4.76306 14.6377 4.76964 14.661 4.77655C14.6922 4.78574 14.7234 4.79527 14.7543 4.80514C14.7961 4.81863 14.8377 4.83259 14.8789 4.84736C14.8916 4.85185 14.9043 4.85615 14.9169 4.86078C16.2869 5.36745 17.3142 6.58677 17.5467 8.0665C17.5485 8.07831 17.5502 8.09019 17.552 8.10207C17.5594 8.15221 17.5657 8.20275 17.5712 8.25342C17.5732 8.27208 17.5754 8.29067 17.5772 8.30939C17.5816 8.35564 17.5849 8.40222 17.5879 8.44893C17.5891 8.46893 17.5908 8.48887 17.5917 8.50893C17.5945 8.5686 17.5961 8.6286 17.5963 8.68894C17.5963 8.69418 17.5966 8.69928 17.5966 8.70451C17.5966 8.70693 17.5965 8.70941 17.5965 8.71183C17.5963 8.77022 17.5946 8.82821 17.592 8.886C17.5912 8.90419 17.5904 8.92238 17.5893 8.9405C17.5862 8.99634 17.582 9.05191 17.5767 9.10708C17.5746 9.12842 17.5718 9.1497 17.5693 9.17098C17.5653 9.20668 17.5607 9.24232 17.5557 9.27776C17.5518 9.30535 17.5479 9.333 17.5435 9.36045C17.5367 9.40226 17.5292 9.44381 17.5212 9.48522C17.514 9.52207 17.5061 9.55878 17.4979 9.59543C17.493 9.61751 17.4879 9.63959 17.4826 9.66154C17.4695 9.71597 17.4552 9.77007 17.4399 9.82396C17.4338 9.84537 17.4281 9.86692 17.4216 9.88812C17.4123 9.919 17.4022 9.9496 17.3922 9.98021C17.3842 10.0047 17.3759 10.0291 17.3674 10.0534C17.3577 10.081 17.3482 10.1086 17.338 10.136C17.3206 10.1825 17.3024 10.2286 17.2834 10.2743C17.2749 10.2947 17.2659 10.3149 17.2571 10.3353C17.2405 10.3733 17.2235 10.4112 17.2058 10.4486C17.2037 10.453 17.2016 10.4575 17.1995 10.4619C17.1932 10.4752 17.1868 10.4886 17.1803 10.5018C17.1605 10.5424 17.1398 10.5825 17.1186 10.6222C17.1103 10.6376 17.1023 10.6533 17.0939 10.6686C17.0934 10.6696 17.0928 10.6706 17.0923 10.6715C17.0691 10.7138 17.0448 10.7554 17.0202 10.7968C17.0104 10.8131 17.0007 10.8296 16.9907 10.8458C16.9639 10.8893 16.9363 10.9324 16.9079 10.9748C16.8903 11.0012 16.8718 11.027 16.8535 11.053C16.838 11.075 16.8226 11.0971 16.8067 11.1188C16.7861 11.1468 16.7651 11.1746 16.7437 11.2021C16.7292 11.2209 16.7146 11.2395 16.6998 11.258C16.6773 11.2862 16.6545 11.3142 16.6313 11.3418C16.6169 11.3589 16.6021 11.3757 16.5874 11.3926C16.5632 11.4203 16.5391 11.4481 16.5143 11.4751C16.4995 11.4912 16.4842 11.5066 16.4692 11.5224C16.4288 11.565 16.3874 11.6067 16.3453 11.6476C16.3202 11.6718 16.2953 11.6961 16.2697 11.7197C16.252 11.736 16.2338 11.7518 16.2157 11.7679C16.1863 11.794 16.1567 11.8198 16.1266 11.8451C16.1113 11.8579 16.0959 11.8706 16.0804 11.8832C16.0439 11.9128 16.007 11.9419 15.9695 11.9704C15.9593 11.9781 15.9492 11.9859 15.9389 11.9936C15.257 12.5005 14.413 12.801 13.4999 12.801C12.5868 12.801 11.7426 12.5005 11.0607 11.9934C11.0506 11.9859 11.0407 11.9782 11.0307 11.9706C10.9931 11.942 10.956 11.9128 10.9194 11.883C10.904 11.8704 10.8886 11.8579 10.8735 11.8451C10.8432 11.8198 10.8135 11.7938 10.784 11.7676C10.7661 11.7516 10.748 11.7359 10.7303 11.7197C10.7046 11.6961 10.6796 11.6717 10.6545 11.6475C10.6122 11.6065 10.5708 11.5646 10.5302 11.5219C10.5154 11.5063 10.5002 11.491 10.4857 11.4752C10.4608 11.4481 10.4367 11.4202 10.4125 11.3925C10.3978 11.3756 10.383 11.3589 10.3686 11.3418C10.3453 11.3142 10.3226 11.2862 10.3001 11.2581C10.2853 11.2395 10.2706 11.2209 10.2561 11.2021C10.2349 11.1746 10.2138 11.1469 10.1932 11.1189C10.1773 11.0971 10.1618 11.075 10.1463 11.0529C10.1281 11.027 10.1097 11.0012 10.0921 10.9749C10.0636 10.9323 10.0358 10.889 10.0089 10.8453C9.99907 10.8293 9.98954 10.8131 9.97987 10.797C9.95484 10.755 9.93034 10.7129 9.90678 10.67C9.89812 10.6542 9.88994 10.6382 9.88141 10.6223C9.8602 10.5825 9.83946 10.5422 9.81953 10.5016C9.81242 10.4872 9.8055 10.4726 9.79859 10.4581C9.79752 10.4559 9.79651 10.4537 9.7955 10.4515C9.77691 10.4123 9.75912 10.3727 9.74174 10.3328C9.73349 10.3138 9.7251 10.2949 9.71718 10.2758C9.69771 10.2291 9.67912 10.182 9.66133 10.1344C9.65174 10.1088 9.64288 10.0829 9.63382 10.0571C9.62449 10.0305 9.61549 10.0038 9.6067 9.97705C9.59724 9.94806 9.58771 9.91907 9.57885 9.88994C9.56563 9.84638 9.55314 9.80255 9.5414 9.75845C9.53314 9.72751 9.52569 9.6963 9.51811 9.66516C9.5122 9.64066 9.5065 9.61617 9.50106 9.59153C9.49435 9.56133 9.48757 9.5312 9.48153 9.50086C9.4722 9.45361 9.46367 9.40609 9.45602 9.3583C9.45186 9.33253 9.44824 9.30669 9.44455 9.28092C9.43911 9.24273 9.43421 9.20433 9.42985 9.16581C9.4277 9.14681 9.42522 9.12782 9.42327 9.10883C9.4177 9.05225 9.41347 8.99527 9.41025 8.93808C9.40931 8.92164 9.40857 8.90519 9.40783 8.88875C9.40508 8.82761 9.40313 8.76626 9.40313 8.70451C9.40313 8.63834 9.40501 8.57263 9.40817 8.50719C9.40904 8.4894 9.41052 8.47175 9.41152 8.45403C9.41448 8.4049 9.41803 8.35591 9.42273 8.30718C9.42434 8.2902 9.42629 8.27329 9.4281 8.25637C9.43387 8.20362 9.44039 8.15113 9.44817 8.09898C9.44965 8.08885 9.45112 8.07865 9.45273 8.06851C9.68449 6.58791 10.7119 5.36778 12.0825 4.86078ZM4.16008 6.43911C4.16008 4.18021 5.99781 2.34241 8.25677 2.34241C9.43555 2.34241 10.5491 2.85552 11.319 3.72026C9.53173 4.49667 8.29295 6.17547 8.09073 8.1367C8.08932 8.14999 8.08831 8.16335 8.08703 8.1767C8.08032 8.24657 8.07502 8.31671 8.07099 8.38725C8.06979 8.40873 8.06844 8.43014 8.06744 8.45168C8.06361 8.53565 8.06099 8.61988 8.06099 8.70471C8.06099 8.79036 8.06348 8.8758 8.0675 8.96117C8.06911 8.99553 8.07193 9.02956 8.07415 9.06372C8.07744 9.11285 8.08079 9.16198 8.08536 9.21098C8.08938 9.25454 8.09435 9.29783 8.09945 9.34112C8.10388 9.37884 8.10858 9.41643 8.11381 9.45401C8.12066 9.50334 8.12804 9.55247 8.13616 9.6014C8.14106 9.63046 8.14643 9.65946 8.15174 9.68845C8.1618 9.74322 8.17207 9.79785 8.18375 9.85201C8.18764 9.86987 8.19207 9.88759 8.1961 9.90537C8.24167 10.1069 8.29825 10.3043 8.36564 10.4967C8.36993 10.5091 8.37369 10.5216 8.37805 10.534C8.33758 10.5352 8.29704 10.5358 8.25664 10.5358C5.99781 10.5357 4.16008 8.698 4.16008 6.43911ZM7.36861 14.9966C7.35385 15.0199 7.33975 15.0436 7.32525 15.067C7.29458 15.1166 7.26418 15.1662 7.23478 15.2164C7.21834 15.2443 7.2025 15.2725 7.18652 15.3007C7.16008 15.3472 7.13397 15.3939 7.1086 15.4409C7.09263 15.4705 7.07692 15.5003 7.06135 15.53C7.03692 15.5768 7.01309 15.6238 6.98974 15.671C6.97504 15.7007 6.96041 15.7303 6.94618 15.7601C6.92242 15.8098 6.89953 15.8599 6.87691 15.9101C6.86463 15.9375 6.85201 15.9646 6.84013 15.992C6.81396 16.0522 6.78899 16.1128 6.76449 16.1736C6.75731 16.1914 6.74966 16.209 6.74268 16.2267C6.7116 16.3057 6.68187 16.3853 6.65368 16.4652C6.64724 16.4835 6.64147 16.5021 6.63509 16.5204C6.61388 16.582 6.59321 16.6438 6.57368 16.7059C6.56475 16.7344 6.5565 16.7631 6.5479 16.7917C6.53213 16.8443 6.51663 16.897 6.50206 16.95C6.4934 16.9815 6.48515 17.0131 6.47689 17.0448C6.4636 17.0957 6.45085 17.1467 6.43877 17.1979C6.43105 17.2303 6.42354 17.2628 6.41635 17.2952C6.40481 17.3471 6.394 17.3992 6.3836 17.4514C6.37736 17.4827 6.37092 17.514 6.36508 17.5455C6.35454 17.6023 6.34508 17.6594 6.33588 17.7165C6.33159 17.7433 6.32682 17.77 6.32279 17.7969C6.31031 17.8808 6.29897 17.9649 6.28944 18.0494C6.2893 18.0504 6.28923 18.0514 6.28917 18.0524C6.28051 18.1292 6.27306 18.2062 6.26682 18.2835H2.34234V16.6005C2.34234 14.3012 3.66415 12.237 5.73498 11.2559C6.48938 11.6524 7.34693 11.8781 8.25671 11.8781C8.51981 11.8781 8.78371 11.8587 9.0456 11.8202C9.08641 11.8783 9.12789 11.9359 9.17084 11.9924C9.18534 12.0114 9.20037 12.03 9.21514 12.0488C9.25756 12.103 9.30058 12.1566 9.34501 12.2092C9.3632 12.2307 9.38186 12.2518 9.40038 12.2731C9.442 12.3209 9.48428 12.368 9.5275 12.4143C9.55019 12.4386 9.57328 12.4626 9.59636 12.4866C9.6359 12.5273 9.67597 12.5674 9.71671 12.607C9.73201 12.6218 9.74644 12.6375 9.76188 12.6522C9.70355 12.6874 9.64576 12.7236 9.58851 12.7604C9.57918 12.7664 9.57006 12.7727 9.56079 12.7787C9.50354 12.8159 9.4469 12.8539 9.39079 12.8926C9.37139 12.906 9.35206 12.9196 9.33273 12.9332C9.28273 12.9684 9.23326 13.0042 9.1842 13.0407C9.1687 13.0522 9.15299 13.0635 9.13762 13.0752C9.0752 13.1224 9.01352 13.1704 8.95264 13.2196C8.93936 13.2303 8.92633 13.2414 8.91305 13.2522C8.86459 13.2919 8.8166 13.3322 8.76921 13.3732C8.75082 13.389 8.73257 13.405 8.71431 13.421C8.66686 13.4629 8.62001 13.5053 8.57363 13.5483C8.56155 13.5595 8.5492 13.5705 8.53719 13.5819C8.48027 13.6354 8.42423 13.69 8.36899 13.7455C8.35463 13.7599 8.3406 13.7746 8.32637 13.7891C8.28409 13.8323 8.24228 13.8759 8.201 13.9201C8.18462 13.9377 8.16825 13.9553 8.152 13.9731C8.10556 14.0238 8.05979 14.0752 8.01475 14.1274C8.0077 14.1356 8.00039 14.1435 7.99334 14.1517C7.94199 14.2117 7.89179 14.2728 7.84226 14.3344C7.82843 14.3516 7.81494 14.3691 7.80132 14.3865C7.76407 14.4338 7.72735 14.4816 7.69124 14.5298C7.67728 14.5485 7.66326 14.567 7.6495 14.5858C7.60225 14.6502 7.5556 14.7152 7.5103 14.7813C7.46164 14.8523 7.41452 14.9242 7.36861 14.9966ZM7.5856 20.5491V19.6259V18.8661C7.5856 18.7916 7.58701 18.7174 7.58976 18.6434C7.59064 18.619 7.59258 18.5948 7.59379 18.5705C7.59621 18.5211 7.59849 18.4717 7.60211 18.4225C7.60433 18.3926 7.60768 18.363 7.61037 18.3332C7.61426 18.2899 7.61775 18.2464 7.62258 18.2033C7.62614 18.1718 7.63077 18.1404 7.6348 18.109C7.64003 18.068 7.64493 18.0269 7.65097 17.9861C7.65587 17.9536 7.66178 17.9214 7.66715 17.889C7.67373 17.8497 7.67983 17.8102 7.68722 17.7711C7.69346 17.738 7.70071 17.7053 7.70749 17.6723C7.71527 17.6343 7.72272 17.5962 7.73125 17.5585C7.73876 17.5252 7.74735 17.4922 7.75541 17.4591C7.76447 17.4222 7.77313 17.385 7.78286 17.3483C7.79172 17.315 7.80152 17.282 7.81091 17.2489C7.82112 17.2128 7.83105 17.1767 7.84192 17.1409C7.85206 17.1076 7.8632 17.0746 7.87387 17.0415C7.88528 17.0064 7.89635 16.9713 7.90837 16.9364C7.91978 16.9035 7.93206 16.8708 7.94401 16.8381C7.95663 16.8036 7.96898 16.769 7.9822 16.7347C7.99482 16.7022 8.00824 16.67 8.02133 16.6377C8.03509 16.6039 8.04864 16.57 8.06301 16.5365C8.0769 16.5042 8.09153 16.4722 8.10596 16.4403C8.12079 16.4073 8.13549 16.3743 8.15093 16.3416C8.16603 16.3098 8.18187 16.2783 8.19751 16.2467C8.21348 16.2145 8.22926 16.1822 8.24577 16.1503C8.26208 16.1189 8.27906 16.0879 8.2959 16.0568C8.31295 16.0253 8.3298 15.9938 8.34738 15.9627C8.36483 15.9318 8.38295 15.9014 8.40087 15.8709C8.419 15.8401 8.43698 15.8093 8.45571 15.7789C8.4743 15.7486 8.4935 15.7188 8.51262 15.6889C8.53182 15.6589 8.55088 15.6289 8.57061 15.5992C8.59035 15.5695 8.61062 15.5403 8.63088 15.511C8.65109 15.4818 8.67122 15.4526 8.69189 15.4237C8.7127 15.3948 8.73411 15.3662 8.75552 15.3375C8.77673 15.3091 8.79787 15.2807 8.81955 15.2527C8.84143 15.2245 8.86385 15.1966 8.88627 15.1687C8.90848 15.141 8.93076 15.1135 8.95345 15.0862C8.97634 15.0588 8.99969 15.0318 9.02305 15.0048C9.04634 14.9779 9.0697 14.951 9.09352 14.9244C9.11735 14.8978 9.14171 14.8716 9.16601 14.8455C9.19031 14.8194 9.2146 14.7934 9.23937 14.7677C9.2642 14.742 9.28951 14.7166 9.31488 14.6913C9.34018 14.666 9.36562 14.6408 9.39139 14.6159C9.4171 14.5912 9.4432 14.5667 9.46945 14.5424C9.49576 14.5179 9.5222 14.4936 9.54898 14.4695C9.57569 14.4456 9.60267 14.4221 9.62986 14.3987C9.65711 14.3751 9.68456 14.3517 9.71228 14.3286C9.73986 14.3056 9.76771 14.283 9.79577 14.2605C9.82403 14.2379 9.85248 14.2154 9.88121 14.1932C9.9096 14.1713 9.93826 14.1497 9.96705 14.1282C9.99632 14.1064 10.0258 14.0848 10.0556 14.0635C10.0847 14.0427 10.1141 14.0221 10.1437 14.0017C10.174 13.9809 10.2045 13.9603 10.2353 13.9399C10.2651 13.9202 10.2953 13.9007 10.3255 13.8814C10.3569 13.8615 10.3884 13.8418 10.4202 13.8225C10.4508 13.8038 10.4816 13.7853 10.5126 13.7672C10.5448 13.7484 10.5773 13.7298 10.61 13.7115C10.6413 13.6939 10.6729 13.6765 10.7046 13.6594C10.7378 13.6416 10.7713 13.6241 10.805 13.6068C10.837 13.5903 10.869 13.5741 10.9014 13.5582C10.9268 13.5457 10.9525 13.5337 10.9782 13.5215C11.7326 13.918 12.5903 14.1437 13.5 14.1437C14.4097 14.1437 15.2674 13.918 16.0217 13.5215C16.0472 13.5336 16.0727 13.5456 16.0979 13.558C16.1307 13.5741 16.1631 13.5904 16.1955 13.607C16.2287 13.6241 16.2619 13.6415 16.2948 13.6591C16.3269 13.6764 16.3588 13.6939 16.3904 13.7117C16.4227 13.7298 16.4548 13.7482 16.4866 13.7668C16.5181 13.7852 16.5493 13.8039 16.5803 13.8229C16.6117 13.842 16.6427 13.8613 16.6736 13.881C16.7043 13.9005 16.7348 13.9203 16.7651 13.9403C16.7955 13.9604 16.8256 13.9808 16.8556 14.0014C16.8854 14.022 16.9152 14.0427 16.9446 14.0638C16.9741 14.0849 17.0032 14.1062 17.0322 14.1278C17.0613 14.1495 17.0903 14.1713 17.1189 14.1934C17.1474 14.2154 17.1756 14.2377 17.2036 14.2602C17.2318 14.2828 17.2599 14.3056 17.2877 14.3287C17.3152 14.3516 17.3425 14.3749 17.3696 14.3983C17.3969 14.4219 17.4241 14.4456 17.451 14.4697C17.4775 14.4935 17.5038 14.5177 17.5299 14.5419C17.5563 14.5665 17.5827 14.5912 17.6087 14.6162C17.6342 14.6408 17.6594 14.6658 17.6845 14.6908C17.71 14.7163 17.7355 14.7419 17.7605 14.7678C17.7851 14.7933 17.8093 14.8191 17.8334 14.845C17.858 14.8714 17.8824 14.8978 17.9065 14.9246C17.9301 14.9509 17.9533 14.9776 17.9763 15.0043C17.9999 15.0314 18.0235 15.0587 18.0465 15.0863C18.0691 15.1134 18.0912 15.1408 18.1133 15.1683C18.1358 15.1964 18.1584 15.2243 18.1804 15.2528C18.202 15.2807 18.223 15.3089 18.2441 15.3372C18.2656 15.3659 18.287 15.3947 18.308 15.4238C18.3286 15.4525 18.3486 15.4816 18.3687 15.5107C18.389 15.5401 18.4095 15.5695 18.4293 15.5993C18.4488 15.6287 18.4678 15.6585 18.4868 15.6883C18.5061 15.7185 18.5254 15.7485 18.5442 15.779C18.5627 15.8091 18.5805 15.8397 18.5985 15.8702C18.6166 15.9009 18.6349 15.9316 18.6524 15.9627C18.6699 15.9937 18.6867 16.0251 18.7037 16.0564C18.7206 16.0876 18.7377 16.1187 18.754 16.1502C18.7705 16.182 18.7862 16.2143 18.8022 16.2465C18.8178 16.2781 18.8337 16.3096 18.8488 16.3416C18.8642 16.3742 18.8789 16.4071 18.8936 16.44C18.9081 16.4722 18.9228 16.5041 18.9367 16.5365C18.951 16.5698 18.9644 16.6034 18.9781 16.637C18.9914 16.6696 19.0049 16.7021 19.0176 16.7349C19.0308 16.769 19.043 16.8034 19.0556 16.8378C19.0676 16.8706 19.0799 16.9033 19.0913 16.9364C19.1034 16.9713 19.1145 17.0067 19.1259 17.0419C19.1366 17.0749 19.1477 17.1077 19.1577 17.1409C19.1687 17.1767 19.1785 17.2129 19.1888 17.2489C19.1982 17.282 19.208 17.315 19.2169 17.3483C19.2266 17.385 19.2353 17.4221 19.2443 17.4591C19.2524 17.4922 19.261 17.5252 19.2685 17.5585C19.277 17.5962 19.2844 17.6342 19.2922 17.6722C19.299 17.7051 19.3063 17.7379 19.3125 17.7711C19.3198 17.8099 19.3259 17.849 19.3324 17.8881C19.3379 17.9208 19.3439 17.9533 19.3488 17.9861C19.3549 18.0266 19.3597 18.0674 19.3649 18.1081C19.369 18.1398 19.3737 18.1714 19.3773 18.2033C19.3821 18.2464 19.3856 18.2898 19.3895 18.3331C19.3922 18.3629 19.3955 18.3925 19.3978 18.4224C19.4014 18.4716 19.4037 18.5211 19.4061 18.5706C19.4073 18.5948 19.4092 18.619 19.4101 18.6433C19.4129 18.7173 19.4143 18.7916 19.4143 18.8661V19.6257V20.5491H7.5856V20.5491ZM20.7335 18.2835C20.7203 18.12 20.7014 17.9575 20.6773 17.796C20.6735 17.7704 20.669 17.7451 20.6649 17.7196C20.6555 17.6611 20.6458 17.6028 20.635 17.5446C20.6293 17.514 20.623 17.4836 20.6169 17.453C20.6064 17.3999 20.5954 17.347 20.5836 17.2942C20.5765 17.2624 20.5691 17.2306 20.5616 17.1989C20.5493 17.1471 20.5365 17.0955 20.523 17.044C20.5149 17.0128 20.5068 16.9817 20.4982 16.9505C20.4835 16.897 20.4678 16.8437 20.4518 16.7905C20.4434 16.7624 20.4353 16.7343 20.4265 16.7063C20.4067 16.6433 20.3858 16.5806 20.3642 16.518C20.3582 16.5006 20.3527 16.4829 20.3465 16.4655C20.3182 16.3853 20.2885 16.3055 20.2573 16.2263C20.2505 16.2093 20.2432 16.1925 20.2364 16.1755C20.2116 16.114 20.1862 16.0526 20.1597 15.9916C20.148 15.9646 20.1356 15.9379 20.1235 15.9109C20.1007 15.8602 20.0776 15.8097 20.0536 15.7595C20.0395 15.7301 20.025 15.7009 20.0106 15.6717C19.987 15.624 19.9629 15.5766 19.9383 15.5294C19.9229 15.4999 19.9074 15.4705 19.8915 15.4411C19.866 15.3939 19.8399 15.3471 19.8133 15.3004C19.7973 15.2723 19.7815 15.2443 19.7652 15.2164C19.7357 15.166 19.7051 15.1161 19.6743 15.0663C19.6599 15.0431 19.646 15.0197 19.6313 14.9967C19.5853 14.9243 19.5382 14.8524 19.4895 14.7813C19.4441 14.7151 19.3975 14.6502 19.3502 14.5857C19.3365 14.5671 19.3226 14.5486 19.3088 14.5301C19.2724 14.4816 19.2356 14.4336 19.1982 14.3861C19.1847 14.369 19.1714 14.3517 19.1577 14.3347C19.1081 14.2728 19.0577 14.2116 19.0062 14.1515C18.9995 14.1438 18.9926 14.1362 18.9859 14.1284C18.9405 14.0758 18.8943 14.024 18.8475 13.9729C18.8314 13.9553 18.8152 13.9379 18.799 13.9205C18.7575 13.876 18.7154 13.832 18.6729 13.7886C18.6589 13.7743 18.6451 13.7599 18.6309 13.7458C18.5756 13.6902 18.5193 13.6354 18.4623 13.5817C18.4505 13.5706 18.4384 13.5599 18.4266 13.5489C18.38 13.5056 18.3329 13.463 18.2852 13.421C18.2671 13.405 18.2488 13.3892 18.2306 13.3733C18.1831 13.3323 18.1351 13.292 18.0866 13.2522C18.0733 13.2414 18.0604 13.2304 18.0471 13.2196C17.9863 13.1705 17.9246 13.1224 17.8622 13.0753C17.8467 13.0636 17.8308 13.0522 17.8152 13.0406C17.7663 13.0043 17.7171 12.9686 17.6673 12.9336C17.6478 12.9198 17.6283 12.9061 17.6087 12.8926C17.5531 12.8542 17.4971 12.8166 17.4404 12.7799C17.4305 12.7734 17.4207 12.7667 17.4108 12.7603C17.3536 12.7236 17.296 12.6876 17.2378 12.6524C17.2528 12.6381 17.2669 12.6229 17.2817 12.6084C17.3234 12.5681 17.3642 12.5272 17.4045 12.4856C17.427 12.4623 17.4493 12.439 17.4714 12.4154C17.5153 12.3684 17.5581 12.3205 17.6004 12.272C17.6184 12.2514 17.6365 12.2309 17.6541 12.21C17.6992 12.1567 17.7429 12.1023 17.7859 12.0471C17.8 12.0292 17.8145 12.0114 17.8283 11.9933C17.8714 11.9365 17.9131 11.8787 17.9541 11.8203C18.216 11.8588 18.4799 11.8782 18.743 11.8782C19.6528 11.8782 20.5104 11.6526 21.2647 11.256C23.3356 12.2371 24.6574 14.3013 24.6574 16.6006V18.2835H20.7335V18.2835Z" stroke="#00A7A4" stroke-width="0.5" stroke-linejoin="round" mask="url(#path-1-outside-1)"/>
<path d="M9 2L12 3L11.5 4.5L9.5 6L8.5 7.5L9 11L8.6 10.92L9.5 12L10.5 13L8.5 14.5L7 17V18L5.5 18.5H2.5H1.5V15L3.5 12L5.79688 10.0312L5 9.5L3.5 7.5V5.5L5 2.5L9 2Z" fill="#00A7A4"/>
<path d="M16.5 4.5L15 4L16.5 2H18.5H20.5L23 3L23.5 5.5V8.5L21.5465 10.1279L23 11L24 13L25 15V18V19L20.5 18.5L19.5 17L17.5 14.5L16.5 13L18.7857 11H17.5L18.5 9V6.5L16.5 4.5Z" fill="#00A7A4"/>
</svg>
