<svg width="38" height="38" viewBox="0 0 38 38" fill="none" xmlns="http://www.w3.org/2000/svg">
<circle cx="19" cy="19" r="17" fill="#F9AD3C" stroke="white" stroke-width="4"/>
<path d="M26.3767 10.755C25.37 9.74833 23.7379 9.74833 22.7313 10.755L12.5118 20.9745C12.4418 21.0445 12.3912 21.1313 12.3648 21.2266L11.0209 26.0784C10.9656 26.2773 11.0218 26.4903 11.1677 26.6364C11.3138 26.7823 11.5268 26.8385 11.7257 26.7834L16.5775 25.4393C16.6728 25.4129 16.7596 25.3624 16.8297 25.2923L27.0489 15.0726C28.054 14.0653 28.054 12.4345 27.0489 11.4272L26.3767 10.755ZM13.7599 21.3468L22.1238 12.9827L24.8212 15.6801L16.4571 24.0442L13.7599 21.3468ZM13.2211 22.428L15.3761 24.5832L12.3952 25.4091L13.2211 22.428ZM26.2389 14.2626L25.6314 14.8701L22.9338 12.1725L23.5415 11.565C24.1007 11.0058 25.0073 11.0058 25.5665 11.565L26.2389 12.2372C26.7972 12.797 26.7972 13.703 26.2389 14.2626V14.2626Z" fill="white"/>
</svg>
