<svg width="20" height="20" viewBox="0 0 20 20" fill="none" xmlns="http://www.w3.org/2000/svg">
<g clip-path="url(#clip0)">
<path d="M15.8333 10.0383C15.3725 10.0383 15 10.4117 15 10.8716V17.5383C15 17.9974 14.6266 18.3716 14.1667 18.3716H2.5C2.03995 18.3716 1.66672 17.9974 1.66672 17.5383V5.87158C1.66672 5.41244 2.03995 5.0383 2.5 5.0383H9.16672C9.62753 5.0383 10 4.66492 10 4.20502C10 3.74496 9.62753 3.37158 9.16672 3.37158H2.5C1.12167 3.37158 0 4.49326 0 5.87158V17.5383C0 18.9166 1.12167 20.0383 2.5 20.0383H14.1667C15.545 20.0383 16.6667 18.9166 16.6667 17.5383V10.8716C16.6667 10.4108 16.2941 10.0383 15.8333 10.0383Z" fill="#231F20" fill-opacity="0.32"/>
<path d="M7.81326 9.27936C7.75497 9.33765 7.71575 9.4118 7.69912 9.49176L7.10998 12.4385C7.08251 12.5751 7.12585 12.7159 7.22411 12.8151C7.30331 12.8943 7.40997 12.9367 7.51922 12.9367C7.54577 12.9367 7.57339 12.9343 7.60085 12.9285L10.5467 12.3394C10.6283 12.3226 10.7025 12.2835 10.76 12.2251L17.3534 5.63174L14.4075 2.68604L7.81326 9.27936Z" fill="#231F20" fill-opacity="0.32"/>
<path d="M19.39 0.64846C18.5776 -0.16407 17.2559 -0.16407 16.4441 0.64846L15.2908 1.80172L18.2367 4.74758L19.39 3.59417C19.7833 3.20171 20 2.67834 20 2.1217C20 1.56506 19.7833 1.04168 19.39 0.64846Z" fill="#231F20" fill-opacity="0.32"/>
</g>
<defs>
<clipPath id="clip0">
<rect width="20" height="20" fill="white"/>
</clipPath>
</defs>
</svg>
