<svg width="27" height="23" viewBox="0 0 27 23" fill="none" xmlns="http://www.w3.org/2000/svg">
<mask id="path-1-outside-1" maskUnits="userSpaceOnUse" x="0" y="0.0543213" width="27" height="23" fill="black">
<rect fill="white" y="0.0543213" width="27" height="23"/>
<path d="M25.9999 16.6548C25.9999 15.1919 25.5619 13.7794 24.733 12.5699C24.1368 11.6999 23.369 10.9775 22.4793 10.4406C23.5268 9.4486 24.1822 8.04652 24.1822 6.49336C24.1822 3.4943 21.7422 1.05432 18.7432 1.05432C16.9649 1.05432 15.299 1.93382 14.2872 3.37758C14.0301 3.34013 13.7674 3.31993 13.5 3.31993C13.2326 3.31993 12.9699 3.3402 12.7128 3.37758C11.7009 1.93382 10.035 1.05432 8.25677 1.05432C5.25771 1.05432 2.81773 3.4943 2.81773 6.49336C2.81773 8.04652 3.47313 9.4486 4.5207 10.4406C3.63093 10.9774 2.86317 11.6999 2.26704 12.5698C1.43814 13.7794 1 15.1919 1 16.6548V19.6801H6.24326V21.9457H20.7568V19.6801H26V16.6548H25.9999ZM18.7432 2.39673C21.0021 2.39673 22.8399 4.23447 22.8399 6.49343C22.8399 8.75239 21.0021 10.5901 18.7432 10.5901C18.7028 10.5901 18.6623 10.5895 18.6217 10.5883C18.6248 10.5797 18.6274 10.5709 18.6304 10.5623C18.7003 10.3641 18.7587 10.1604 18.8054 9.95245C18.8087 9.93768 18.8125 9.92305 18.8156 9.90822C18.8278 9.85211 18.8385 9.79546 18.8489 9.73868C18.8538 9.71183 18.8588 9.68505 18.8633 9.65814C18.8718 9.60746 18.8794 9.55659 18.8865 9.50551C18.8914 9.47001 18.8958 9.4345 18.9 9.39893C18.9053 9.35383 18.9105 9.30866 18.9147 9.26322C18.919 9.21684 18.9222 9.1704 18.9253 9.12388C18.9277 9.08724 18.9308 9.05073 18.9324 9.01388C18.9361 8.93488 18.9382 8.85575 18.9385 8.77655C18.9385 8.77071 18.9389 8.76501 18.9389 8.7591C18.9389 8.75595 18.9387 8.75279 18.9387 8.74964C18.9385 8.66876 18.9362 8.58836 18.9326 8.50822C18.9315 8.48493 18.9301 8.46171 18.9287 8.43848C18.9248 8.37036 18.9196 8.30257 18.9132 8.23512C18.9118 8.21982 18.9105 8.20451 18.909 8.18928C18.7062 6.22885 17.4677 4.55086 15.681 3.77471C16.4509 2.90978 17.5645 2.39673 18.7432 2.39673ZM12.0825 4.9151C12.0956 4.91034 12.1088 4.90584 12.1219 4.90114C12.1627 4.88658 12.2037 4.87275 12.245 4.85939C12.2763 4.84939 12.3078 4.83973 12.3394 4.83047C12.3625 4.82369 12.3856 4.81718 12.4087 4.81073C12.4501 4.79939 12.4916 4.78832 12.5335 4.77818C12.8436 4.70288 13.167 4.662 13.4998 4.662C13.8329 4.66227 14.1564 4.70321 14.4666 4.77852C14.5083 4.78859 14.5495 4.79959 14.5907 4.81087C14.6142 4.81738 14.6377 4.82396 14.661 4.83087C14.6922 4.84006 14.7234 4.8496 14.7543 4.85946C14.7961 4.87295 14.8377 4.88691 14.8789 4.90168C14.8916 4.90618 14.9043 4.91047 14.9169 4.9151C16.2869 5.42177 17.3142 6.64109 17.5467 8.12082C17.5485 8.13263 17.5502 8.14451 17.552 8.15639C17.5594 8.20653 17.5657 8.25707 17.5712 8.30774C17.5732 8.3264 17.5754 8.34499 17.5772 8.36372C17.5816 8.40996 17.5849 8.45654 17.5879 8.50325C17.5891 8.52325 17.5908 8.54319 17.5917 8.56325C17.5945 8.62292 17.5961 8.68292 17.5963 8.74326C17.5963 8.7485 17.5966 8.7536 17.5966 8.75883C17.5966 8.76125 17.5965 8.76373 17.5965 8.76615C17.5963 8.82454 17.5946 8.88253 17.592 8.94032C17.5912 8.95851 17.5904 8.9767 17.5893 8.99482C17.5862 9.05066 17.582 9.10623 17.5767 9.1614C17.5746 9.18275 17.5718 9.20402 17.5693 9.2253C17.5653 9.26101 17.5607 9.29664 17.5557 9.33208C17.5518 9.35967 17.5479 9.38732 17.5435 9.41477C17.5367 9.45658 17.5292 9.49813 17.5212 9.53954C17.514 9.57639 17.5061 9.6131 17.4979 9.64975C17.493 9.67183 17.4879 9.69391 17.4826 9.71586C17.4695 9.77029 17.4552 9.82439 17.4399 9.87828C17.4338 9.89969 17.4281 9.92124 17.4216 9.94245C17.4123 9.97332 17.4022 10.0039 17.3922 10.0345C17.3842 10.059 17.3759 10.0834 17.3674 10.1077C17.3577 10.1353 17.3482 10.1629 17.338 10.1903C17.3206 10.2368 17.3024 10.2829 17.2834 10.3286C17.2749 10.349 17.2659 10.3692 17.2571 10.3896C17.2405 10.4276 17.2235 10.4655 17.2058 10.5029C17.2037 10.5074 17.2016 10.5118 17.1995 10.5162C17.1932 10.5295 17.1868 10.5429 17.1803 10.5562C17.1605 10.5967 17.1398 10.6368 17.1186 10.6765C17.1103 10.6919 17.1023 10.7076 17.0939 10.723C17.0934 10.724 17.0928 10.7249 17.0923 10.7258C17.0691 10.7681 17.0448 10.8097 17.0202 10.8511C17.0104 10.8675 17.0007 10.8839 16.9907 10.9001C16.9639 10.9436 16.9363 10.9867 16.9079 11.0291C16.8903 11.0555 16.8718 11.0814 16.8535 11.1073C16.838 11.1293 16.8226 11.1514 16.8067 11.1731C16.7861 11.2012 16.7651 11.2289 16.7437 11.2565C16.7292 11.2752 16.7146 11.2938 16.6998 11.3123C16.6773 11.3405 16.6545 11.3686 16.6313 11.3961C16.6169 11.4133 16.6021 11.43 16.5874 11.4469C16.5632 11.4746 16.5391 11.5024 16.5143 11.5294C16.4995 11.5455 16.4842 11.5609 16.4692 11.5767C16.4288 11.6194 16.3874 11.661 16.3453 11.7019C16.3202 11.7262 16.2953 11.7504 16.2697 11.774C16.252 11.7903 16.2338 11.8062 16.2157 11.8222C16.1863 11.8483 16.1567 11.8741 16.1266 11.8994C16.1113 11.9122 16.0959 11.9249 16.0804 11.9375C16.0439 11.9672 16.007 11.9962 15.9695 12.0247C15.9593 12.0324 15.9492 12.0403 15.9389 12.0479C15.257 12.5548 14.413 12.8553 13.4999 12.8553C12.5868 12.8553 11.7426 12.5548 11.0607 12.0477C11.0506 12.0402 11.0407 12.0325 11.0307 12.0249C10.9931 11.9964 10.956 11.9671 10.9194 11.9373C10.904 11.9248 10.8886 11.9122 10.8735 11.8994C10.8432 11.8741 10.8135 11.8481 10.784 11.8219C10.7661 11.806 10.748 11.7902 10.7303 11.774C10.7046 11.7504 10.6796 11.726 10.6545 11.7018C10.6122 11.6608 10.5708 11.619 10.5302 11.5762C10.5154 11.5606 10.5002 11.5453 10.4857 11.5295C10.4608 11.5024 10.4367 11.4745 10.4125 11.4468C10.3978 11.43 10.383 11.4133 10.3686 11.3961C10.3453 11.3686 10.3226 11.3405 10.3001 11.3124C10.2853 11.2938 10.2706 11.2753 10.2561 11.2565C10.2349 11.2289 10.2138 11.2012 10.1932 11.1732C10.1773 11.1514 10.1618 11.1293 10.1463 11.1072C10.1281 11.0813 10.1097 11.0555 10.0921 11.0292C10.0636 10.9866 10.0358 10.9434 10.0089 10.8997C9.99907 10.8836 9.98954 10.8675 9.97987 10.8513C9.95484 10.8093 9.93034 10.7672 9.90678 10.7243C9.89812 10.7085 9.88994 10.6925 9.88141 10.6766C9.8602 10.6368 9.83946 10.5966 9.81953 10.556C9.81242 10.5415 9.8055 10.527 9.79859 10.5125C9.79752 10.5103 9.79651 10.508 9.7955 10.5058C9.77691 10.4666 9.75912 10.427 9.74174 10.3871C9.73349 10.3681 9.7251 10.3492 9.71718 10.3301C9.69771 10.2834 9.67912 10.2363 9.66133 10.1888C9.65174 10.1631 9.64288 10.1372 9.63382 10.1114C9.62449 10.0849 9.61549 10.0582 9.6067 10.0314C9.59724 10.0024 9.58771 9.97339 9.57885 9.94426C9.56563 9.9007 9.55314 9.85687 9.5414 9.81278C9.53314 9.78183 9.52569 9.75062 9.51811 9.71948C9.5122 9.69498 9.5065 9.67049 9.50106 9.64585C9.49435 9.61565 9.48757 9.58552 9.48153 9.55518C9.4722 9.50793 9.46367 9.46041 9.45602 9.41262C9.45186 9.38685 9.44824 9.36101 9.44455 9.33524C9.43911 9.29705 9.43421 9.25866 9.42985 9.22013C9.4277 9.20114 9.42522 9.18214 9.42327 9.16315C9.4177 9.10657 9.41347 9.04959 9.41025 8.9924C9.40931 8.97596 9.40857 8.95952 9.40783 8.94307C9.40508 8.88193 9.40313 8.82058 9.40313 8.75883C9.40313 8.69266 9.40501 8.62695 9.40817 8.56151C9.40904 8.54372 9.41052 8.52607 9.41152 8.50835C9.41448 8.45922 9.41803 8.41023 9.42273 8.3615C9.42434 8.34452 9.42629 8.32761 9.4281 8.31069C9.43387 8.25794 9.44039 8.20545 9.44817 8.1533C9.44965 8.14317 9.45112 8.13297 9.45273 8.12283C9.68449 6.64223 10.7119 5.4221 12.0825 4.9151ZM4.16008 6.49343C4.16008 4.23453 5.99781 2.39673 8.25677 2.39673C9.43555 2.39673 10.5491 2.90984 11.319 3.77458C9.53173 4.55099 8.29295 6.22979 8.09073 8.19102C8.08932 8.20431 8.08831 8.21767 8.08703 8.23102C8.08032 8.30089 8.07502 8.37103 8.07099 8.44157C8.06979 8.46305 8.06844 8.48446 8.06744 8.506C8.06361 8.58997 8.06099 8.6742 8.06099 8.75904C8.06099 8.84468 8.06348 8.93012 8.0675 9.01549C8.06911 9.04985 8.07193 9.08388 8.07415 9.11805C8.07744 9.16718 8.08079 9.2163 8.08536 9.2653C8.08938 9.30886 8.09435 9.35215 8.09945 9.39544C8.10388 9.43316 8.10858 9.47075 8.11381 9.50833C8.12066 9.55766 8.12804 9.60679 8.13616 9.65572C8.14106 9.68478 8.14643 9.71378 8.15174 9.74277C8.1618 9.79754 8.17207 9.85217 8.18375 9.90634C8.18764 9.92419 8.19207 9.94191 8.1961 9.9597C8.24167 10.1612 8.29825 10.3586 8.36564 10.551C8.36993 10.5634 8.37369 10.576 8.37805 10.5883C8.33758 10.5895 8.29704 10.5901 8.25664 10.5901C5.99781 10.5901 4.16008 8.75232 4.16008 6.49343ZM7.36861 15.0509C7.35385 15.0742 7.33975 15.0979 7.32525 15.1213C7.29458 15.1709 7.26418 15.2205 7.23478 15.2707C7.21834 15.2987 7.2025 15.3269 7.18652 15.355C7.16008 15.4016 7.13397 15.4482 7.1086 15.4953C7.09263 15.5248 7.07692 15.5546 7.06135 15.5843C7.03692 15.6311 7.01309 15.6781 6.98974 15.7253C6.97504 15.755 6.96041 15.7846 6.94618 15.8144C6.92242 15.8641 6.89953 15.9143 6.87691 15.9645C6.86463 15.9918 6.85201 16.0189 6.84013 16.0463C6.81396 16.1065 6.78899 16.1671 6.76449 16.2279C6.75731 16.2457 6.74966 16.2633 6.74268 16.2811C6.7116 16.3601 6.68187 16.4396 6.65368 16.5195C6.64724 16.5378 6.64147 16.5564 6.63509 16.5747C6.61388 16.6363 6.59321 16.6981 6.57368 16.7602C6.56475 16.7887 6.5565 16.8174 6.5479 16.846C6.53213 16.8986 6.51663 16.9513 6.50206 17.0043C6.4934 17.0359 6.48515 17.0675 6.47689 17.0991C6.4636 17.15 6.45085 17.201 6.43877 17.2522C6.43105 17.2847 6.42354 17.3171 6.41635 17.3496C6.40481 17.4014 6.394 17.4535 6.3836 17.5057C6.37736 17.537 6.37092 17.5684 6.36508 17.5998C6.35454 17.6566 6.34508 17.7137 6.33588 17.7708C6.33159 17.7976 6.32682 17.8243 6.32279 17.8512C6.31031 17.9351 6.29897 18.0192 6.28944 18.1037C6.2893 18.1047 6.28923 18.1057 6.28917 18.1067C6.28051 18.1836 6.27306 18.2605 6.26682 18.3378H2.34234V16.6548C2.34234 14.3555 3.66415 12.2913 5.73498 11.3102C6.48938 11.7068 7.34693 11.9325 8.25671 11.9325C8.51981 11.9325 8.78371 11.913 9.0456 11.8745C9.08641 11.9327 9.12789 11.9903 9.17084 12.0468C9.18534 12.0658 9.20037 12.0843 9.21514 12.1031C9.25756 12.1573 9.30058 12.2109 9.34501 12.2635C9.3632 12.285 9.38186 12.3061 9.40038 12.3274C9.442 12.3752 9.48428 12.4224 9.5275 12.4686C9.55019 12.493 9.57328 12.5169 9.59637 12.5409C9.6359 12.5816 9.67597 12.6218 9.71671 12.6613C9.73201 12.6761 9.74644 12.6918 9.76188 12.7065C9.70355 12.7418 9.64576 12.7779 9.58851 12.8147C9.57918 12.8207 9.57006 12.827 9.56079 12.833C9.50354 12.8702 9.4469 12.9082 9.39079 12.9469C9.37139 12.9604 9.35206 12.9739 9.33273 12.9875C9.28273 13.0227 9.23326 13.0586 9.1842 13.095C9.16869 13.1065 9.15299 13.1178 9.13762 13.1295C9.0752 13.1767 9.01352 13.2247 8.95264 13.2739C8.93936 13.2846 8.92633 13.2957 8.91305 13.3066C8.86459 13.3462 8.8166 13.3866 8.76921 13.4275C8.75082 13.4433 8.73257 13.4593 8.71431 13.4754C8.66686 13.5172 8.62001 13.5596 8.57363 13.6026C8.56155 13.6138 8.5492 13.6248 8.53719 13.6362C8.48027 13.6897 8.42423 13.7443 8.36899 13.7998C8.35463 13.8142 8.3406 13.8289 8.32637 13.8434C8.28409 13.8866 8.24228 13.9302 8.201 13.9744C8.18462 13.992 8.16825 14.0096 8.152 14.0274C8.10556 14.0781 8.05978 14.1296 8.01475 14.1817C8.0077 14.1899 8.00039 14.1978 7.99334 14.2061C7.94199 14.266 7.89179 14.3271 7.84226 14.3888C7.82843 14.4059 7.81494 14.4234 7.80132 14.4408C7.76407 14.4881 7.72735 14.5359 7.69124 14.5841C7.67728 14.6028 7.66326 14.6213 7.6495 14.6401C7.60225 14.7045 7.5556 14.7695 7.5103 14.8356C7.46164 14.9066 7.41452 14.9785 7.36861 15.0509ZM7.5856 20.6034V19.6802V18.9204C7.5856 18.8459 7.58701 18.7717 7.58976 18.6977C7.59064 18.6733 7.59258 18.6492 7.59379 18.6249C7.59621 18.5755 7.59849 18.526 7.60211 18.4768C7.60433 18.4469 7.60768 18.4173 7.61037 18.3875C7.61426 18.3442 7.61775 18.3007 7.62258 18.2577C7.62614 18.2261 7.63077 18.1948 7.6348 18.1633C7.64003 18.1223 7.64493 18.0812 7.65097 18.0404C7.65587 18.0079 7.66178 17.9757 7.66715 17.9433C7.67373 17.904 7.67983 17.8646 7.68722 17.8254C7.69346 17.7923 7.70071 17.7596 7.70749 17.7266C7.71527 17.6886 7.72272 17.6505 7.73125 17.6128C7.73876 17.5795 7.74735 17.5466 7.75541 17.5134C7.76447 17.4765 7.77313 17.4394 7.78286 17.4027C7.79172 17.3693 7.80152 17.3363 7.81091 17.3032C7.82112 17.2671 7.83105 17.231 7.84192 17.1953C7.85206 17.162 7.8632 17.1289 7.87387 17.0959C7.88528 17.0608 7.89635 17.0256 7.90837 16.9908C7.91978 16.9578 7.93206 16.9251 7.94401 16.8924C7.95663 16.8579 7.96898 16.8233 7.9822 16.7891C7.99482 16.7565 8.00824 16.7244 8.02133 16.692C8.03509 16.6583 8.04864 16.6243 8.06301 16.5908C8.0769 16.5585 8.09153 16.5266 8.10596 16.4946C8.12079 16.4617 8.13549 16.4286 8.15093 16.396C8.16603 16.3641 8.18187 16.3326 8.19751 16.301C8.21348 16.2688 8.22926 16.2365 8.24577 16.2046C8.26208 16.1732 8.27906 16.1422 8.2959 16.1111C8.31295 16.0796 8.3298 16.0482 8.34738 16.017C8.36483 15.9861 8.38295 15.9557 8.40087 15.9252C8.419 15.8945 8.43698 15.8637 8.45571 15.8332C8.4743 15.8029 8.4935 15.7731 8.51262 15.7432C8.53182 15.7132 8.55088 15.6832 8.57061 15.6535C8.59035 15.6238 8.61062 15.5946 8.63088 15.5653C8.65109 15.5361 8.67122 15.5069 8.69189 15.4781C8.7127 15.4491 8.73411 15.4205 8.75552 15.3918C8.77673 15.3634 8.79787 15.335 8.81955 15.3071C8.84143 15.2788 8.86385 15.2509 8.88627 15.223C8.90848 15.1954 8.93076 15.1678 8.95345 15.1405C8.97634 15.1132 8.99969 15.0861 9.02305 15.0591C9.04634 15.0322 9.0697 15.0053 9.09352 14.9787C9.11735 14.9521 9.14171 14.926 9.16601 14.8998C9.19031 14.8737 9.2146 14.8477 9.23937 14.8221C9.2642 14.7963 9.28951 14.7709 9.31488 14.7456C9.34018 14.7203 9.36562 14.6951 9.39139 14.6702C9.4171 14.6455 9.4432 14.621 9.46945 14.5967C9.49576 14.5723 9.5222 14.5479 9.54898 14.5239C9.57569 14.5 9.60267 14.4764 9.62986 14.453C9.65711 14.4294 9.68456 14.406 9.71228 14.3829C9.73986 14.36 9.76771 14.3373 9.79577 14.3149C9.82403 14.2922 9.85248 14.2697 9.88121 14.2475C9.9096 14.2256 9.93826 14.204 9.96705 14.1825C9.99632 14.1607 10.0258 14.1391 10.0556 14.1179C10.0847 14.097 10.1141 14.0765 10.1437 14.0561C10.174 14.0352 10.2045 14.0146 10.2353 13.9942C10.2651 13.9745 10.2953 13.955 10.3255 13.9357C10.3569 13.9158 10.3884 13.8961 10.4202 13.8768C10.4508 13.8581 10.4816 13.8397 10.5126 13.8215C10.5448 13.8027 10.5773 13.7841 10.61 13.7658C10.6413 13.7482 10.6729 13.7308 10.7046 13.7138C10.7378 13.6959 10.7713 13.6784 10.805 13.6611C10.837 13.6446 10.869 13.6285 10.9014 13.6125C10.9268 13.6001 10.9525 13.588 10.9782 13.5758C11.7326 13.9724 12.5903 14.198 13.5 14.198C14.4097 14.198 15.2674 13.9724 16.0217 13.5758C16.0472 13.5879 16.0727 13.5999 16.0979 13.6123C16.1307 13.6284 16.1631 13.6448 16.1955 13.6613C16.2287 13.6785 16.2619 13.6958 16.2948 13.7134C16.3269 13.7307 16.3588 13.7483 16.3904 13.766C16.4227 13.7842 16.4548 13.8025 16.4866 13.8211C16.5181 13.8395 16.5493 13.8583 16.5803 13.8772C16.6117 13.8963 16.6427 13.9156 16.6736 13.9353C16.7043 13.9548 16.7348 13.9746 16.7651 13.9946C16.7955 14.0147 16.8256 14.0351 16.8556 14.0557C16.8854 14.0763 16.9152 14.0971 16.9446 14.1181C16.9741 14.1392 17.0032 14.1606 17.0322 14.1822C17.0613 14.2038 17.0903 14.2256 17.1189 14.2477C17.1474 14.2698 17.1756 14.292 17.2036 14.3145C17.2318 14.3371 17.2599 14.3599 17.2877 14.383C17.3152 14.4059 17.3425 14.4292 17.3696 14.4527C17.3969 14.4762 17.4241 14.4999 17.451 14.524C17.4775 14.5478 17.5038 14.572 17.5299 14.5962C17.5563 14.6208 17.5827 14.6455 17.6087 14.6705C17.6342 14.6951 17.6594 14.7201 17.6845 14.7451C17.71 14.7707 17.7355 14.7962 17.7605 14.8221C17.7851 14.8476 17.8093 14.8734 17.8334 14.8993C17.8579 14.9257 17.8824 14.9521 17.9065 14.9789C17.9301 15.0052 17.9533 15.0319 17.9763 15.0586C17.9999 15.0858 18.0235 15.113 18.0465 15.1407C18.0691 15.1677 18.0912 15.1952 18.1133 15.2226C18.1358 15.2507 18.1584 15.2787 18.1804 15.3071C18.202 15.335 18.223 15.3632 18.2441 15.3915C18.2656 15.4202 18.287 15.449 18.308 15.4781C18.3286 15.5068 18.3486 15.5359 18.3687 15.565C18.389 15.5944 18.4095 15.6238 18.4293 15.6536C18.4488 15.683 18.4678 15.7128 18.4868 15.7426C18.5061 15.7728 18.5254 15.8028 18.5442 15.8333C18.5627 15.8635 18.5805 15.8941 18.5985 15.9245C18.6166 15.9553 18.6349 15.9859 18.6524 16.017C18.6699 16.048 18.6867 16.0794 18.7037 16.1107C18.7206 16.1419 18.7377 16.1731 18.754 16.2045C18.7705 16.2364 18.7862 16.2686 18.8022 16.3008C18.8178 16.3324 18.8337 16.3639 18.8488 16.3959C18.8642 16.4285 18.8789 16.4615 18.8936 16.4944C18.9081 16.5265 18.9228 16.5585 18.9367 16.5909C18.951 16.6241 18.9644 16.6577 18.9781 16.6913C18.9914 16.7239 19.0049 16.7564 19.0176 16.7893C19.0308 16.8233 19.043 16.8577 19.0556 16.8921C19.0676 16.9249 19.0799 16.9576 19.0913 16.9907C19.1034 17.0257 19.1145 17.061 19.1259 17.0963C19.1366 17.1292 19.1477 17.162 19.1577 17.1953C19.1687 17.231 19.1785 17.2672 19.1888 17.3033C19.1982 17.3363 19.208 17.3693 19.2169 17.4027C19.2266 17.4394 19.2353 17.4764 19.2443 17.5134C19.2524 17.5465 19.261 17.5795 19.2685 17.6128C19.277 17.6505 19.2844 17.6886 19.2922 17.7265C19.299 17.7594 19.3063 17.7923 19.3125 17.8254C19.3198 17.8642 19.3259 17.9033 19.3324 17.9424C19.3379 17.9751 19.3439 18.0076 19.3488 18.0405C19.3549 18.0809 19.3597 18.1217 19.3649 18.1624C19.369 18.1942 19.3737 18.2257 19.3773 18.2576C19.3821 18.3007 19.3856 18.3441 19.3895 18.3875C19.3922 18.4173 19.3955 18.4469 19.3978 18.4767C19.4014 18.5259 19.4037 18.5755 19.4061 18.6249C19.4073 18.6492 19.4092 18.6733 19.4101 18.6976C19.4129 18.7716 19.4143 18.8459 19.4143 18.9204V19.6801V20.6034H7.5856V20.6034ZM20.7335 18.3378C20.7203 18.1743 20.7014 18.0118 20.6773 17.8503C20.6735 17.8248 20.669 17.7994 20.6649 17.7739C20.6555 17.7154 20.6458 17.6571 20.635 17.599C20.6293 17.5684 20.623 17.5379 20.6169 17.5074C20.6064 17.4543 20.5954 17.4013 20.5836 17.3486C20.5765 17.3167 20.5691 17.2849 20.5616 17.2532C20.5493 17.2014 20.5365 17.1498 20.523 17.0983C20.5149 17.0671 20.5068 17.036 20.4982 17.0048C20.4835 16.9513 20.4678 16.898 20.4518 16.8448C20.4434 16.8167 20.4353 16.7886 20.4265 16.7606C20.4067 16.6976 20.3858 16.6349 20.3642 16.5723C20.3582 16.5549 20.3527 16.5372 20.3465 16.5198C20.3182 16.4396 20.2885 16.3599 20.2573 16.2806C20.2505 16.2636 20.2432 16.2468 20.2364 16.2298C20.2116 16.1683 20.1862 16.1069 20.1597 16.0459C20.148 16.0189 20.1356 15.9922 20.1235 15.9653C20.1007 15.9145 20.0776 15.864 20.0536 15.8138C20.0395 15.7844 20.025 15.7552 20.0106 15.726C19.987 15.6783 19.9629 15.6309 19.9383 15.5837C19.9229 15.5542 19.9074 15.5248 19.8915 15.4955C19.866 15.4483 19.8399 15.4014 19.8133 15.3547C19.7973 15.3267 19.7815 15.2986 19.7652 15.2707C19.7357 15.2203 19.7051 15.1705 19.6743 15.1207C19.6599 15.0974 19.646 15.074 19.6313 15.051C19.5853 14.9786 19.5382 14.9067 19.4895 14.8356C19.4441 14.7694 19.3975 14.7045 19.3502 14.64C19.3365 14.6214 19.3226 14.6029 19.3088 14.5844C19.2724 14.5359 19.2356 14.488 19.1982 14.4404C19.1847 14.4233 19.1714 14.406 19.1577 14.389C19.1081 14.3271 19.0577 14.2659 19.0062 14.2059C18.9995 14.1981 18.9926 14.1905 18.9859 14.1827C18.9405 14.1302 18.8943 14.0783 18.8475 14.0272C18.8314 14.0096 18.8152 13.9922 18.799 13.9748C18.7575 13.9303 18.7154 13.8863 18.6729 13.843C18.6589 13.8287 18.6451 13.8142 18.6309 13.8001C18.5756 13.7445 18.5193 13.6897 18.4623 13.636C18.4505 13.625 18.4384 13.6142 18.4266 13.6032C18.38 13.5599 18.3329 13.5173 18.2852 13.4753C18.2671 13.4593 18.2488 13.4435 18.2306 13.4276C18.1831 13.3866 18.1351 13.3463 18.0866 13.3066C18.0733 13.2958 18.0604 13.2847 18.0471 13.2739C17.9863 13.2248 17.9246 13.1768 17.8622 13.1296C17.8467 13.1179 17.8308 13.1065 17.8152 13.0949C17.7663 13.0586 17.7171 13.0229 17.6673 12.9879C17.6478 12.9741 17.6283 12.9604 17.6087 12.9469C17.5531 12.9086 17.4971 12.871 17.4404 12.8342C17.4305 12.8277 17.4207 12.821 17.4108 12.8147C17.3536 12.7779 17.296 12.7419 17.2378 12.7067C17.2528 12.6924 17.2669 12.6772 17.2817 12.6627C17.3234 12.6224 17.3642 12.5815 17.4045 12.5399C17.427 12.5167 17.4493 12.4934 17.4714 12.4697C17.5153 12.4228 17.5581 12.3748 17.6004 12.3263C17.6184 12.3057 17.6365 12.2852 17.6541 12.2643C17.6992 12.211 17.7429 12.1566 17.7859 12.1015C17.8 12.0835 17.8145 12.0658 17.8283 12.0476C17.8714 11.9909 17.9131 11.933 17.9541 11.8746C18.216 11.9131 18.4799 11.9325 18.743 11.9325C19.6528 11.9325 20.5104 11.7069 21.2647 11.3103C23.3356 12.2914 24.6574 14.3556 24.6574 16.6549V18.3378H20.7335V18.3378Z"/>
</mask>
<path d="M25.9999 16.6548C25.9999 15.1919 25.5619 13.7794 24.733 12.5699C24.1368 11.6999 23.369 10.9775 22.4793 10.4406C23.5268 9.4486 24.1822 8.04652 24.1822 6.49336C24.1822 3.4943 21.7422 1.05432 18.7432 1.05432C16.9649 1.05432 15.299 1.93382 14.2872 3.37758C14.0301 3.34013 13.7674 3.31993 13.5 3.31993C13.2326 3.31993 12.9699 3.3402 12.7128 3.37758C11.7009 1.93382 10.035 1.05432 8.25677 1.05432C5.25771 1.05432 2.81773 3.4943 2.81773 6.49336C2.81773 8.04652 3.47313 9.4486 4.5207 10.4406C3.63093 10.9774 2.86317 11.6999 2.26704 12.5698C1.43814 13.7794 1 15.1919 1 16.6548V19.6801H6.24326V21.9457H20.7568V19.6801H26V16.6548H25.9999ZM18.7432 2.39673C21.0021 2.39673 22.8399 4.23447 22.8399 6.49343C22.8399 8.75239 21.0021 10.5901 18.7432 10.5901C18.7028 10.5901 18.6623 10.5895 18.6217 10.5883C18.6248 10.5797 18.6274 10.5709 18.6304 10.5623C18.7003 10.3641 18.7587 10.1604 18.8054 9.95245C18.8087 9.93768 18.8125 9.92305 18.8156 9.90822C18.8278 9.85211 18.8385 9.79546 18.8489 9.73868C18.8538 9.71183 18.8588 9.68505 18.8633 9.65814C18.8718 9.60746 18.8794 9.55659 18.8865 9.50551C18.8914 9.47001 18.8958 9.4345 18.9 9.39893C18.9053 9.35383 18.9105 9.30866 18.9147 9.26322C18.919 9.21684 18.9222 9.1704 18.9253 9.12388C18.9277 9.08724 18.9308 9.05073 18.9324 9.01388C18.9361 8.93488 18.9382 8.85575 18.9385 8.77655C18.9385 8.77071 18.9389 8.76501 18.9389 8.7591C18.9389 8.75595 18.9387 8.75279 18.9387 8.74964C18.9385 8.66876 18.9362 8.58836 18.9326 8.50822C18.9315 8.48493 18.9301 8.46171 18.9287 8.43848C18.9248 8.37036 18.9196 8.30257 18.9132 8.23512C18.9118 8.21982 18.9105 8.20451 18.909 8.18928C18.7062 6.22885 17.4677 4.55086 15.681 3.77471C16.4509 2.90978 17.5645 2.39673 18.7432 2.39673ZM12.0825 4.9151C12.0956 4.91034 12.1088 4.90584 12.1219 4.90114C12.1627 4.88658 12.2037 4.87275 12.245 4.85939C12.2763 4.84939 12.3078 4.83973 12.3394 4.83047C12.3625 4.82369 12.3856 4.81718 12.4087 4.81073C12.4501 4.79939 12.4916 4.78832 12.5335 4.77818C12.8436 4.70288 13.167 4.662 13.4998 4.662C13.8329 4.66227 14.1564 4.70321 14.4666 4.77852C14.5083 4.78859 14.5495 4.79959 14.5907 4.81087C14.6142 4.81738 14.6377 4.82396 14.661 4.83087C14.6922 4.84006 14.7234 4.8496 14.7543 4.85946C14.7961 4.87295 14.8377 4.88691 14.8789 4.90168C14.8916 4.90618 14.9043 4.91047 14.9169 4.9151C16.2869 5.42177 17.3142 6.64109 17.5467 8.12082C17.5485 8.13263 17.5502 8.14451 17.552 8.15639C17.5594 8.20653 17.5657 8.25707 17.5712 8.30774C17.5732 8.3264 17.5754 8.34499 17.5772 8.36372C17.5816 8.40996 17.5849 8.45654 17.5879 8.50325C17.5891 8.52325 17.5908 8.54319 17.5917 8.56325C17.5945 8.62292 17.5961 8.68292 17.5963 8.74326C17.5963 8.7485 17.5966 8.7536 17.5966 8.75883C17.5966 8.76125 17.5965 8.76373 17.5965 8.76615C17.5963 8.82454 17.5946 8.88253 17.592 8.94032C17.5912 8.95851 17.5904 8.9767 17.5893 8.99482C17.5862 9.05066 17.582 9.10623 17.5767 9.1614C17.5746 9.18275 17.5718 9.20402 17.5693 9.2253C17.5653 9.26101 17.5607 9.29664 17.5557 9.33208C17.5518 9.35967 17.5479 9.38732 17.5435 9.41477C17.5367 9.45658 17.5292 9.49813 17.5212 9.53954C17.514 9.57639 17.5061 9.6131 17.4979 9.64975C17.493 9.67183 17.4879 9.69391 17.4826 9.71586C17.4695 9.77029 17.4552 9.82439 17.4399 9.87828C17.4338 9.89969 17.4281 9.92124 17.4216 9.94245C17.4123 9.97332 17.4022 10.0039 17.3922 10.0345C17.3842 10.059 17.3759 10.0834 17.3674 10.1077C17.3577 10.1353 17.3482 10.1629 17.338 10.1903C17.3206 10.2368 17.3024 10.2829 17.2834 10.3286C17.2749 10.349 17.2659 10.3692 17.2571 10.3896C17.2405 10.4276 17.2235 10.4655 17.2058 10.5029C17.2037 10.5074 17.2016 10.5118 17.1995 10.5162C17.1932 10.5295 17.1868 10.5429 17.1803 10.5562C17.1605 10.5967 17.1398 10.6368 17.1186 10.6765C17.1103 10.6919 17.1023 10.7076 17.0939 10.723C17.0934 10.724 17.0928 10.7249 17.0923 10.7258C17.0691 10.7681 17.0448 10.8097 17.0202 10.8511C17.0104 10.8675 17.0007 10.8839 16.9907 10.9001C16.9639 10.9436 16.9363 10.9867 16.9079 11.0291C16.8903 11.0555 16.8718 11.0814 16.8535 11.1073C16.838 11.1293 16.8226 11.1514 16.8067 11.1731C16.7861 11.2012 16.7651 11.2289 16.7437 11.2565C16.7292 11.2752 16.7146 11.2938 16.6998 11.3123C16.6773 11.3405 16.6545 11.3686 16.6313 11.3961C16.6169 11.4133 16.6021 11.43 16.5874 11.4469C16.5632 11.4746 16.5391 11.5024 16.5143 11.5294C16.4995 11.5455 16.4842 11.5609 16.4692 11.5767C16.4288 11.6194 16.3874 11.661 16.3453 11.7019C16.3202 11.7262 16.2953 11.7504 16.2697 11.774C16.252 11.7903 16.2338 11.8062 16.2157 11.8222C16.1863 11.8483 16.1567 11.8741 16.1266 11.8994C16.1113 11.9122 16.0959 11.9249 16.0804 11.9375C16.0439 11.9672 16.007 11.9962 15.9695 12.0247C15.9593 12.0324 15.9492 12.0403 15.9389 12.0479C15.257 12.5548 14.413 12.8553 13.4999 12.8553C12.5868 12.8553 11.7426 12.5548 11.0607 12.0477C11.0506 12.0402 11.0407 12.0325 11.0307 12.0249C10.9931 11.9964 10.956 11.9671 10.9194 11.9373C10.904 11.9248 10.8886 11.9122 10.8735 11.8994C10.8432 11.8741 10.8135 11.8481 10.784 11.8219C10.7661 11.806 10.748 11.7902 10.7303 11.774C10.7046 11.7504 10.6796 11.726 10.6545 11.7018C10.6122 11.6608 10.5708 11.619 10.5302 11.5762C10.5154 11.5606 10.5002 11.5453 10.4857 11.5295C10.4608 11.5024 10.4367 11.4745 10.4125 11.4468C10.3978 11.43 10.383 11.4133 10.3686 11.3961C10.3453 11.3686 10.3226 11.3405 10.3001 11.3124C10.2853 11.2938 10.2706 11.2753 10.2561 11.2565C10.2349 11.2289 10.2138 11.2012 10.1932 11.1732C10.1773 11.1514 10.1618 11.1293 10.1463 11.1072C10.1281 11.0813 10.1097 11.0555 10.0921 11.0292C10.0636 10.9866 10.0358 10.9434 10.0089 10.8997C9.99907 10.8836 9.98954 10.8675 9.97987 10.8513C9.95484 10.8093 9.93034 10.7672 9.90678 10.7243C9.89812 10.7085 9.88994 10.6925 9.88141 10.6766C9.8602 10.6368 9.83946 10.5966 9.81953 10.556C9.81242 10.5415 9.8055 10.527 9.79859 10.5125C9.79752 10.5103 9.79651 10.508 9.7955 10.5058C9.77691 10.4666 9.75912 10.427 9.74174 10.3871C9.73349 10.3681 9.7251 10.3492 9.71718 10.3301C9.69771 10.2834 9.67912 10.2363 9.66133 10.1888C9.65174 10.1631 9.64288 10.1372 9.63382 10.1114C9.62449 10.0849 9.61549 10.0582 9.6067 10.0314C9.59724 10.0024 9.58771 9.97339 9.57885 9.94426C9.56563 9.9007 9.55314 9.85687 9.5414 9.81278C9.53314 9.78183 9.52569 9.75062 9.51811 9.71948C9.5122 9.69498 9.5065 9.67049 9.50106 9.64585C9.49435 9.61565 9.48757 9.58552 9.48153 9.55518C9.4722 9.50793 9.46367 9.46041 9.45602 9.41262C9.45186 9.38685 9.44824 9.36101 9.44455 9.33524C9.43911 9.29705 9.43421 9.25866 9.42985 9.22013C9.4277 9.20114 9.42522 9.18214 9.42327 9.16315C9.4177 9.10657 9.41347 9.04959 9.41025 8.9924C9.40931 8.97596 9.40857 8.95952 9.40783 8.94307C9.40508 8.88193 9.40313 8.82058 9.40313 8.75883C9.40313 8.69266 9.40501 8.62695 9.40817 8.56151C9.40904 8.54372 9.41052 8.52607 9.41152 8.50835C9.41448 8.45922 9.41803 8.41023 9.42273 8.3615C9.42434 8.34452 9.42629 8.32761 9.4281 8.31069C9.43387 8.25794 9.44039 8.20545 9.44817 8.1533C9.44965 8.14317 9.45112 8.13297 9.45273 8.12283C9.68449 6.64223 10.7119 5.4221 12.0825 4.9151ZM4.16008 6.49343C4.16008 4.23453 5.99781 2.39673 8.25677 2.39673C9.43555 2.39673 10.5491 2.90984 11.319 3.77458C9.53173 4.55099 8.29295 6.22979 8.09073 8.19102C8.08932 8.20431 8.08831 8.21767 8.08703 8.23102C8.08032 8.30089 8.07502 8.37103 8.07099 8.44157C8.06979 8.46305 8.06844 8.48446 8.06744 8.506C8.06361 8.58997 8.06099 8.6742 8.06099 8.75904C8.06099 8.84468 8.06348 8.93012 8.0675 9.01549C8.06911 9.04985 8.07193 9.08388 8.07415 9.11805C8.07744 9.16718 8.08079 9.2163 8.08536 9.2653C8.08938 9.30886 8.09435 9.35215 8.09945 9.39544C8.10388 9.43316 8.10858 9.47075 8.11381 9.50833C8.12066 9.55766 8.12804 9.60679 8.13616 9.65572C8.14106 9.68478 8.14643 9.71378 8.15174 9.74277C8.1618 9.79754 8.17207 9.85217 8.18375 9.90634C8.18764 9.92419 8.19207 9.94191 8.1961 9.9597C8.24167 10.1612 8.29825 10.3586 8.36564 10.551C8.36993 10.5634 8.37369 10.576 8.37805 10.5883C8.33758 10.5895 8.29704 10.5901 8.25664 10.5901C5.99781 10.5901 4.16008 8.75232 4.16008 6.49343ZM7.36861 15.0509C7.35385 15.0742 7.33975 15.0979 7.32525 15.1213C7.29458 15.1709 7.26418 15.2205 7.23478 15.2707C7.21834 15.2987 7.2025 15.3269 7.18652 15.355C7.16008 15.4016 7.13397 15.4482 7.1086 15.4953C7.09263 15.5248 7.07692 15.5546 7.06135 15.5843C7.03692 15.6311 7.01309 15.6781 6.98974 15.7253C6.97504 15.755 6.96041 15.7846 6.94618 15.8144C6.92242 15.8641 6.89953 15.9143 6.87691 15.9645C6.86463 15.9918 6.85201 16.0189 6.84013 16.0463C6.81396 16.1065 6.78899 16.1671 6.76449 16.2279C6.75731 16.2457 6.74966 16.2633 6.74268 16.2811C6.7116 16.3601 6.68187 16.4396 6.65368 16.5195C6.64724 16.5378 6.64147 16.5564 6.63509 16.5747C6.61388 16.6363 6.59321 16.6981 6.57368 16.7602C6.56475 16.7887 6.5565 16.8174 6.5479 16.846C6.53213 16.8986 6.51663 16.9513 6.50206 17.0043C6.4934 17.0359 6.48515 17.0675 6.47689 17.0991C6.4636 17.15 6.45085 17.201 6.43877 17.2522C6.43105 17.2847 6.42354 17.3171 6.41635 17.3496C6.40481 17.4014 6.394 17.4535 6.3836 17.5057C6.37736 17.537 6.37092 17.5684 6.36508 17.5998C6.35454 17.6566 6.34508 17.7137 6.33588 17.7708C6.33159 17.7976 6.32682 17.8243 6.32279 17.8512C6.31031 17.9351 6.29897 18.0192 6.28944 18.1037C6.2893 18.1047 6.28923 18.1057 6.28917 18.1067C6.28051 18.1836 6.27306 18.2605 6.26682 18.3378H2.34234V16.6548C2.34234 14.3555 3.66415 12.2913 5.73498 11.3102C6.48938 11.7068 7.34693 11.9325 8.25671 11.9325C8.51981 11.9325 8.78371 11.913 9.0456 11.8745C9.08641 11.9327 9.12789 11.9903 9.17084 12.0468C9.18534 12.0658 9.20037 12.0843 9.21514 12.1031C9.25756 12.1573 9.30058 12.2109 9.34501 12.2635C9.3632 12.285 9.38186 12.3061 9.40038 12.3274C9.442 12.3752 9.48428 12.4224 9.5275 12.4686C9.55019 12.493 9.57328 12.5169 9.59637 12.5409C9.6359 12.5816 9.67597 12.6218 9.71671 12.6613C9.73201 12.6761 9.74644 12.6918 9.76188 12.7065C9.70355 12.7418 9.64576 12.7779 9.58851 12.8147C9.57918 12.8207 9.57006 12.827 9.56079 12.833C9.50354 12.8702 9.4469 12.9082 9.39079 12.9469C9.37139 12.9604 9.35206 12.9739 9.33273 12.9875C9.28273 13.0227 9.23326 13.0586 9.1842 13.095C9.16869 13.1065 9.15299 13.1178 9.13762 13.1295C9.0752 13.1767 9.01352 13.2247 8.95264 13.2739C8.93936 13.2846 8.92633 13.2957 8.91305 13.3066C8.86459 13.3462 8.8166 13.3866 8.76921 13.4275C8.75082 13.4433 8.73257 13.4593 8.71431 13.4754C8.66686 13.5172 8.62001 13.5596 8.57363 13.6026C8.56155 13.6138 8.5492 13.6248 8.53719 13.6362C8.48027 13.6897 8.42423 13.7443 8.36899 13.7998C8.35463 13.8142 8.3406 13.8289 8.32637 13.8434C8.28409 13.8866 8.24228 13.9302 8.201 13.9744C8.18462 13.992 8.16825 14.0096 8.152 14.0274C8.10556 14.0781 8.05978 14.1296 8.01475 14.1817C8.0077 14.1899 8.00039 14.1978 7.99334 14.2061C7.94199 14.266 7.89179 14.3271 7.84226 14.3888C7.82843 14.4059 7.81494 14.4234 7.80132 14.4408C7.76407 14.4881 7.72735 14.5359 7.69124 14.5841C7.67728 14.6028 7.66326 14.6213 7.6495 14.6401C7.60225 14.7045 7.5556 14.7695 7.5103 14.8356C7.46164 14.9066 7.41452 14.9785 7.36861 15.0509ZM7.5856 20.6034V19.6802V18.9204C7.5856 18.8459 7.58701 18.7717 7.58976 18.6977C7.59064 18.6733 7.59258 18.6492 7.59379 18.6249C7.59621 18.5755 7.59849 18.526 7.60211 18.4768C7.60433 18.4469 7.60768 18.4173 7.61037 18.3875C7.61426 18.3442 7.61775 18.3007 7.62258 18.2577C7.62614 18.2261 7.63077 18.1948 7.6348 18.1633C7.64003 18.1223 7.64493 18.0812 7.65097 18.0404C7.65587 18.0079 7.66178 17.9757 7.66715 17.9433C7.67373 17.904 7.67983 17.8646 7.68722 17.8254C7.69346 17.7923 7.70071 17.7596 7.70749 17.7266C7.71527 17.6886 7.72272 17.6505 7.73125 17.6128C7.73876 17.5795 7.74735 17.5466 7.75541 17.5134C7.76447 17.4765 7.77313 17.4394 7.78286 17.4027C7.79172 17.3693 7.80152 17.3363 7.81091 17.3032C7.82112 17.2671 7.83105 17.231 7.84192 17.1953C7.85206 17.162 7.8632 17.1289 7.87387 17.0959C7.88528 17.0608 7.89635 17.0256 7.90837 16.9908C7.91978 16.9578 7.93206 16.9251 7.94401 16.8924C7.95663 16.8579 7.96898 16.8233 7.9822 16.7891C7.99482 16.7565 8.00824 16.7244 8.02133 16.692C8.03509 16.6583 8.04864 16.6243 8.06301 16.5908C8.0769 16.5585 8.09153 16.5266 8.10596 16.4946C8.12079 16.4617 8.13549 16.4286 8.15093 16.396C8.16603 16.3641 8.18187 16.3326 8.19751 16.301C8.21348 16.2688 8.22926 16.2365 8.24577 16.2046C8.26208 16.1732 8.27906 16.1422 8.2959 16.1111C8.31295 16.0796 8.3298 16.0482 8.34738 16.017C8.36483 15.9861 8.38295 15.9557 8.40087 15.9252C8.419 15.8945 8.43698 15.8637 8.45571 15.8332C8.4743 15.8029 8.4935 15.7731 8.51262 15.7432C8.53182 15.7132 8.55088 15.6832 8.57061 15.6535C8.59035 15.6238 8.61062 15.5946 8.63088 15.5653C8.65109 15.5361 8.67122 15.5069 8.69189 15.4781C8.7127 15.4491 8.73411 15.4205 8.75552 15.3918C8.77673 15.3634 8.79787 15.335 8.81955 15.3071C8.84143 15.2788 8.86385 15.2509 8.88627 15.223C8.90848 15.1954 8.93076 15.1678 8.95345 15.1405C8.97634 15.1132 8.99969 15.0861 9.02305 15.0591C9.04634 15.0322 9.0697 15.0053 9.09352 14.9787C9.11735 14.9521 9.14171 14.926 9.16601 14.8998C9.19031 14.8737 9.2146 14.8477 9.23937 14.8221C9.2642 14.7963 9.28951 14.7709 9.31488 14.7456C9.34018 14.7203 9.36562 14.6951 9.39139 14.6702C9.4171 14.6455 9.4432 14.621 9.46945 14.5967C9.49576 14.5723 9.5222 14.5479 9.54898 14.5239C9.57569 14.5 9.60267 14.4764 9.62986 14.453C9.65711 14.4294 9.68456 14.406 9.71228 14.3829C9.73986 14.36 9.76771 14.3373 9.79577 14.3149C9.82403 14.2922 9.85248 14.2697 9.88121 14.2475C9.9096 14.2256 9.93826 14.204 9.96705 14.1825C9.99632 14.1607 10.0258 14.1391 10.0556 14.1179C10.0847 14.097 10.1141 14.0765 10.1437 14.0561C10.174 14.0352 10.2045 14.0146 10.2353 13.9942C10.2651 13.9745 10.2953 13.955 10.3255 13.9357C10.3569 13.9158 10.3884 13.8961 10.4202 13.8768C10.4508 13.8581 10.4816 13.8397 10.5126 13.8215C10.5448 13.8027 10.5773 13.7841 10.61 13.7658C10.6413 13.7482 10.6729 13.7308 10.7046 13.7138C10.7378 13.6959 10.7713 13.6784 10.805 13.6611C10.837 13.6446 10.869 13.6285 10.9014 13.6125C10.9268 13.6001 10.9525 13.588 10.9782 13.5758C11.7326 13.9724 12.5903 14.198 13.5 14.198C14.4097 14.198 15.2674 13.9724 16.0217 13.5758C16.0472 13.5879 16.0727 13.5999 16.0979 13.6123C16.1307 13.6284 16.1631 13.6448 16.1955 13.6613C16.2287 13.6785 16.2619 13.6958 16.2948 13.7134C16.3269 13.7307 16.3588 13.7483 16.3904 13.766C16.4227 13.7842 16.4548 13.8025 16.4866 13.8211C16.5181 13.8395 16.5493 13.8583 16.5803 13.8772C16.6117 13.8963 16.6427 13.9156 16.6736 13.9353C16.7043 13.9548 16.7348 13.9746 16.7651 13.9946C16.7955 14.0147 16.8256 14.0351 16.8556 14.0557C16.8854 14.0763 16.9152 14.0971 16.9446 14.1181C16.9741 14.1392 17.0032 14.1606 17.0322 14.1822C17.0613 14.2038 17.0903 14.2256 17.1189 14.2477C17.1474 14.2698 17.1756 14.292 17.2036 14.3145C17.2318 14.3371 17.2599 14.3599 17.2877 14.383C17.3152 14.4059 17.3425 14.4292 17.3696 14.4527C17.3969 14.4762 17.4241 14.4999 17.451 14.524C17.4775 14.5478 17.5038 14.572 17.5299 14.5962C17.5563 14.6208 17.5827 14.6455 17.6087 14.6705C17.6342 14.6951 17.6594 14.7201 17.6845 14.7451C17.71 14.7707 17.7355 14.7962 17.7605 14.8221C17.7851 14.8476 17.8093 14.8734 17.8334 14.8993C17.8579 14.9257 17.8824 14.9521 17.9065 14.9789C17.9301 15.0052 17.9533 15.0319 17.9763 15.0586C17.9999 15.0858 18.0235 15.113 18.0465 15.1407C18.0691 15.1677 18.0912 15.1952 18.1133 15.2226C18.1358 15.2507 18.1584 15.2787 18.1804 15.3071C18.202 15.335 18.223 15.3632 18.2441 15.3915C18.2656 15.4202 18.287 15.449 18.308 15.4781C18.3286 15.5068 18.3486 15.5359 18.3687 15.565C18.389 15.5944 18.4095 15.6238 18.4293 15.6536C18.4488 15.683 18.4678 15.7128 18.4868 15.7426C18.5061 15.7728 18.5254 15.8028 18.5442 15.8333C18.5627 15.8635 18.5805 15.8941 18.5985 15.9245C18.6166 15.9553 18.6349 15.9859 18.6524 16.017C18.6699 16.048 18.6867 16.0794 18.7037 16.1107C18.7206 16.1419 18.7377 16.1731 18.754 16.2045C18.7705 16.2364 18.7862 16.2686 18.8022 16.3008C18.8178 16.3324 18.8337 16.3639 18.8488 16.3959C18.8642 16.4285 18.8789 16.4615 18.8936 16.4944C18.9081 16.5265 18.9228 16.5585 18.9367 16.5909C18.951 16.6241 18.9644 16.6577 18.9781 16.6913C18.9914 16.7239 19.0049 16.7564 19.0176 16.7893C19.0308 16.8233 19.043 16.8577 19.0556 16.8921C19.0676 16.9249 19.0799 16.9576 19.0913 16.9907C19.1034 17.0257 19.1145 17.061 19.1259 17.0963C19.1366 17.1292 19.1477 17.162 19.1577 17.1953C19.1687 17.231 19.1785 17.2672 19.1888 17.3033C19.1982 17.3363 19.208 17.3693 19.2169 17.4027C19.2266 17.4394 19.2353 17.4764 19.2443 17.5134C19.2524 17.5465 19.261 17.5795 19.2685 17.6128C19.277 17.6505 19.2844 17.6886 19.2922 17.7265C19.299 17.7594 19.3063 17.7923 19.3125 17.8254C19.3198 17.8642 19.3259 17.9033 19.3324 17.9424C19.3379 17.9751 19.3439 18.0076 19.3488 18.0405C19.3549 18.0809 19.3597 18.1217 19.3649 18.1624C19.369 18.1942 19.3737 18.2257 19.3773 18.2576C19.3821 18.3007 19.3856 18.3441 19.3895 18.3875C19.3922 18.4173 19.3955 18.4469 19.3978 18.4767C19.4014 18.5259 19.4037 18.5755 19.4061 18.6249C19.4073 18.6492 19.4092 18.6733 19.4101 18.6976C19.4129 18.7716 19.4143 18.8459 19.4143 18.9204V19.6801V20.6034H7.5856V20.6034ZM20.7335 18.3378C20.7203 18.1743 20.7014 18.0118 20.6773 17.8503C20.6735 17.8248 20.669 17.7994 20.6649 17.7739C20.6555 17.7154 20.6458 17.6571 20.635 17.599C20.6293 17.5684 20.623 17.5379 20.6169 17.5074C20.6064 17.4543 20.5954 17.4013 20.5836 17.3486C20.5765 17.3167 20.5691 17.2849 20.5616 17.2532C20.5493 17.2014 20.5365 17.1498 20.523 17.0983C20.5149 17.0671 20.5068 17.036 20.4982 17.0048C20.4835 16.9513 20.4678 16.898 20.4518 16.8448C20.4434 16.8167 20.4353 16.7886 20.4265 16.7606C20.4067 16.6976 20.3858 16.6349 20.3642 16.5723C20.3582 16.5549 20.3527 16.5372 20.3465 16.5198C20.3182 16.4396 20.2885 16.3599 20.2573 16.2806C20.2505 16.2636 20.2432 16.2468 20.2364 16.2298C20.2116 16.1683 20.1862 16.1069 20.1597 16.0459C20.148 16.0189 20.1356 15.9922 20.1235 15.9653C20.1007 15.9145 20.0776 15.864 20.0536 15.8138C20.0395 15.7844 20.025 15.7552 20.0106 15.726C19.987 15.6783 19.9629 15.6309 19.9383 15.5837C19.9229 15.5542 19.9074 15.5248 19.8915 15.4955C19.866 15.4483 19.8399 15.4014 19.8133 15.3547C19.7973 15.3267 19.7815 15.2986 19.7652 15.2707C19.7357 15.2203 19.7051 15.1705 19.6743 15.1207C19.6599 15.0974 19.646 15.074 19.6313 15.051C19.5853 14.9786 19.5382 14.9067 19.4895 14.8356C19.4441 14.7694 19.3975 14.7045 19.3502 14.64C19.3365 14.6214 19.3226 14.6029 19.3088 14.5844C19.2724 14.5359 19.2356 14.488 19.1982 14.4404C19.1847 14.4233 19.1714 14.406 19.1577 14.389C19.1081 14.3271 19.0577 14.2659 19.0062 14.2059C18.9995 14.1981 18.9926 14.1905 18.9859 14.1827C18.9405 14.1302 18.8943 14.0783 18.8475 14.0272C18.8314 14.0096 18.8152 13.9922 18.799 13.9748C18.7575 13.9303 18.7154 13.8863 18.6729 13.843C18.6589 13.8287 18.6451 13.8142 18.6309 13.8001C18.5756 13.7445 18.5193 13.6897 18.4623 13.636C18.4505 13.625 18.4384 13.6142 18.4266 13.6032C18.38 13.5599 18.3329 13.5173 18.2852 13.4753C18.2671 13.4593 18.2488 13.4435 18.2306 13.4276C18.1831 13.3866 18.1351 13.3463 18.0866 13.3066C18.0733 13.2958 18.0604 13.2847 18.0471 13.2739C17.9863 13.2248 17.9246 13.1768 17.8622 13.1296C17.8467 13.1179 17.8308 13.1065 17.8152 13.0949C17.7663 13.0586 17.7171 13.0229 17.6673 12.9879C17.6478 12.9741 17.6283 12.9604 17.6087 12.9469C17.5531 12.9086 17.4971 12.871 17.4404 12.8342C17.4305 12.8277 17.4207 12.821 17.4108 12.8147C17.3536 12.7779 17.296 12.7419 17.2378 12.7067C17.2528 12.6924 17.2669 12.6772 17.2817 12.6627C17.3234 12.6224 17.3642 12.5815 17.4045 12.5399C17.427 12.5167 17.4493 12.4934 17.4714 12.4697C17.5153 12.4228 17.5581 12.3748 17.6004 12.3263C17.6184 12.3057 17.6365 12.2852 17.6541 12.2643C17.6992 12.211 17.7429 12.1566 17.7859 12.1015C17.8 12.0835 17.8145 12.0658 17.8283 12.0476C17.8714 11.9909 17.9131 11.933 17.9541 11.8746C18.216 11.9131 18.4799 11.9325 18.743 11.9325C19.6528 11.9325 20.5104 11.7069 21.2647 11.3103C23.3356 12.2914 24.6574 14.3556 24.6574 16.6549V18.3378H20.7335V18.3378Z" fill="#231F20" fill-opacity="0.32"/>
<path d="M25.9999 16.6548C25.9999 15.1919 25.5619 13.7794 24.733 12.5699C24.1368 11.6999 23.369 10.9775 22.4793 10.4406C23.5268 9.4486 24.1822 8.04652 24.1822 6.49336C24.1822 3.4943 21.7422 1.05432 18.7432 1.05432C16.9649 1.05432 15.299 1.93382 14.2872 3.37758C14.0301 3.34013 13.7674 3.31993 13.5 3.31993C13.2326 3.31993 12.9699 3.3402 12.7128 3.37758C11.7009 1.93382 10.035 1.05432 8.25677 1.05432C5.25771 1.05432 2.81773 3.4943 2.81773 6.49336C2.81773 8.04652 3.47313 9.4486 4.5207 10.4406C3.63093 10.9774 2.86317 11.6999 2.26704 12.5698C1.43814 13.7794 1 15.1919 1 16.6548V19.6801H6.24326V21.9457H20.7568V19.6801H26V16.6548H25.9999ZM18.7432 2.39673C21.0021 2.39673 22.8399 4.23447 22.8399 6.49343C22.8399 8.75239 21.0021 10.5901 18.7432 10.5901C18.7028 10.5901 18.6623 10.5895 18.6217 10.5883C18.6248 10.5797 18.6274 10.5709 18.6304 10.5623C18.7003 10.3641 18.7587 10.1604 18.8054 9.95245C18.8087 9.93768 18.8125 9.92305 18.8156 9.90822C18.8278 9.85211 18.8385 9.79546 18.8489 9.73868C18.8538 9.71183 18.8588 9.68505 18.8633 9.65814C18.8718 9.60746 18.8794 9.55659 18.8865 9.50551C18.8914 9.47001 18.8958 9.4345 18.9 9.39893C18.9053 9.35383 18.9105 9.30866 18.9147 9.26322C18.919 9.21684 18.9222 9.1704 18.9253 9.12388C18.9277 9.08724 18.9308 9.05073 18.9324 9.01388C18.9361 8.93488 18.9382 8.85575 18.9385 8.77655C18.9385 8.77071 18.9389 8.76501 18.9389 8.7591C18.9389 8.75595 18.9387 8.75279 18.9387 8.74964C18.9385 8.66876 18.9362 8.58836 18.9326 8.50822C18.9315 8.48493 18.9301 8.46171 18.9287 8.43848C18.9248 8.37036 18.9196 8.30257 18.9132 8.23512C18.9118 8.21982 18.9105 8.20451 18.909 8.18928C18.7062 6.22885 17.4677 4.55086 15.681 3.77471C16.4509 2.90978 17.5645 2.39673 18.7432 2.39673ZM12.0825 4.9151C12.0956 4.91034 12.1088 4.90584 12.1219 4.90114C12.1627 4.88658 12.2037 4.87275 12.245 4.85939C12.2763 4.84939 12.3078 4.83973 12.3394 4.83047C12.3625 4.82369 12.3856 4.81718 12.4087 4.81073C12.4501 4.79939 12.4916 4.78832 12.5335 4.77818C12.8436 4.70288 13.167 4.662 13.4998 4.662C13.8329 4.66227 14.1564 4.70321 14.4666 4.77852C14.5083 4.78859 14.5495 4.79959 14.5907 4.81087C14.6142 4.81738 14.6377 4.82396 14.661 4.83087C14.6922 4.84006 14.7234 4.8496 14.7543 4.85946C14.7961 4.87295 14.8377 4.88691 14.8789 4.90168C14.8916 4.90618 14.9043 4.91047 14.9169 4.9151C16.2869 5.42177 17.3142 6.64109 17.5467 8.12082C17.5485 8.13263 17.5502 8.14451 17.552 8.15639C17.5594 8.20653 17.5657 8.25707 17.5712 8.30774C17.5732 8.3264 17.5754 8.34499 17.5772 8.36372C17.5816 8.40996 17.5849 8.45654 17.5879 8.50325C17.5891 8.52325 17.5908 8.54319 17.5917 8.56325C17.5945 8.62292 17.5961 8.68292 17.5963 8.74326C17.5963 8.7485 17.5966 8.7536 17.5966 8.75883C17.5966 8.76125 17.5965 8.76373 17.5965 8.76615C17.5963 8.82454 17.5946 8.88253 17.592 8.94032C17.5912 8.95851 17.5904 8.9767 17.5893 8.99482C17.5862 9.05066 17.582 9.10623 17.5767 9.1614C17.5746 9.18275 17.5718 9.20402 17.5693 9.2253C17.5653 9.26101 17.5607 9.29664 17.5557 9.33208C17.5518 9.35967 17.5479 9.38732 17.5435 9.41477C17.5367 9.45658 17.5292 9.49813 17.5212 9.53954C17.514 9.57639 17.5061 9.6131 17.4979 9.64975C17.493 9.67183 17.4879 9.69391 17.4826 9.71586C17.4695 9.77029 17.4552 9.82439 17.4399 9.87828C17.4338 9.89969 17.4281 9.92124 17.4216 9.94245C17.4123 9.97332 17.4022 10.0039 17.3922 10.0345C17.3842 10.059 17.3759 10.0834 17.3674 10.1077C17.3577 10.1353 17.3482 10.1629 17.338 10.1903C17.3206 10.2368 17.3024 10.2829 17.2834 10.3286C17.2749 10.349 17.2659 10.3692 17.2571 10.3896C17.2405 10.4276 17.2235 10.4655 17.2058 10.5029C17.2037 10.5074 17.2016 10.5118 17.1995 10.5162C17.1932 10.5295 17.1868 10.5429 17.1803 10.5562C17.1605 10.5967 17.1398 10.6368 17.1186 10.6765C17.1103 10.6919 17.1023 10.7076 17.0939 10.723C17.0934 10.724 17.0928 10.7249 17.0923 10.7258C17.0691 10.7681 17.0448 10.8097 17.0202 10.8511C17.0104 10.8675 17.0007 10.8839 16.9907 10.9001C16.9639 10.9436 16.9363 10.9867 16.9079 11.0291C16.8903 11.0555 16.8718 11.0814 16.8535 11.1073C16.838 11.1293 16.8226 11.1514 16.8067 11.1731C16.7861 11.2012 16.7651 11.2289 16.7437 11.2565C16.7292 11.2752 16.7146 11.2938 16.6998 11.3123C16.6773 11.3405 16.6545 11.3686 16.6313 11.3961C16.6169 11.4133 16.6021 11.43 16.5874 11.4469C16.5632 11.4746 16.5391 11.5024 16.5143 11.5294C16.4995 11.5455 16.4842 11.5609 16.4692 11.5767C16.4288 11.6194 16.3874 11.661 16.3453 11.7019C16.3202 11.7262 16.2953 11.7504 16.2697 11.774C16.252 11.7903 16.2338 11.8062 16.2157 11.8222C16.1863 11.8483 16.1567 11.8741 16.1266 11.8994C16.1113 11.9122 16.0959 11.9249 16.0804 11.9375C16.0439 11.9672 16.007 11.9962 15.9695 12.0247C15.9593 12.0324 15.9492 12.0403 15.9389 12.0479C15.257 12.5548 14.413 12.8553 13.4999 12.8553C12.5868 12.8553 11.7426 12.5548 11.0607 12.0477C11.0506 12.0402 11.0407 12.0325 11.0307 12.0249C10.9931 11.9964 10.956 11.9671 10.9194 11.9373C10.904 11.9248 10.8886 11.9122 10.8735 11.8994C10.8432 11.8741 10.8135 11.8481 10.784 11.8219C10.7661 11.806 10.748 11.7902 10.7303 11.774C10.7046 11.7504 10.6796 11.726 10.6545 11.7018C10.6122 11.6608 10.5708 11.619 10.5302 11.5762C10.5154 11.5606 10.5002 11.5453 10.4857 11.5295C10.4608 11.5024 10.4367 11.4745 10.4125 11.4468C10.3978 11.43 10.383 11.4133 10.3686 11.3961C10.3453 11.3686 10.3226 11.3405 10.3001 11.3124C10.2853 11.2938 10.2706 11.2753 10.2561 11.2565C10.2349 11.2289 10.2138 11.2012 10.1932 11.1732C10.1773 11.1514 10.1618 11.1293 10.1463 11.1072C10.1281 11.0813 10.1097 11.0555 10.0921 11.0292C10.0636 10.9866 10.0358 10.9434 10.0089 10.8997C9.99907 10.8836 9.98954 10.8675 9.97987 10.8513C9.95484 10.8093 9.93034 10.7672 9.90678 10.7243C9.89812 10.7085 9.88994 10.6925 9.88141 10.6766C9.8602 10.6368 9.83946 10.5966 9.81953 10.556C9.81242 10.5415 9.8055 10.527 9.79859 10.5125C9.79752 10.5103 9.79651 10.508 9.7955 10.5058C9.77691 10.4666 9.75912 10.427 9.74174 10.3871C9.73349 10.3681 9.7251 10.3492 9.71718 10.3301C9.69771 10.2834 9.67912 10.2363 9.66133 10.1888C9.65174 10.1631 9.64288 10.1372 9.63382 10.1114C9.62449 10.0849 9.61549 10.0582 9.6067 10.0314C9.59724 10.0024 9.58771 9.97339 9.57885 9.94426C9.56563 9.9007 9.55314 9.85687 9.5414 9.81278C9.53314 9.78183 9.52569 9.75062 9.51811 9.71948C9.5122 9.69498 9.5065 9.67049 9.50106 9.64585C9.49435 9.61565 9.48757 9.58552 9.48153 9.55518C9.4722 9.50793 9.46367 9.46041 9.45602 9.41262C9.45186 9.38685 9.44824 9.36101 9.44455 9.33524C9.43911 9.29705 9.43421 9.25866 9.42985 9.22013C9.4277 9.20114 9.42522 9.18214 9.42327 9.16315C9.4177 9.10657 9.41347 9.04959 9.41025 8.9924C9.40931 8.97596 9.40857 8.95952 9.40783 8.94307C9.40508 8.88193 9.40313 8.82058 9.40313 8.75883C9.40313 8.69266 9.40501 8.62695 9.40817 8.56151C9.40904 8.54372 9.41052 8.52607 9.41152 8.50835C9.41448 8.45922 9.41803 8.41023 9.42273 8.3615C9.42434 8.34452 9.42629 8.32761 9.4281 8.31069C9.43387 8.25794 9.44039 8.20545 9.44817 8.1533C9.44965 8.14317 9.45112 8.13297 9.45273 8.12283C9.68449 6.64223 10.7119 5.4221 12.0825 4.9151ZM4.16008 6.49343C4.16008 4.23453 5.99781 2.39673 8.25677 2.39673C9.43555 2.39673 10.5491 2.90984 11.319 3.77458C9.53173 4.55099 8.29295 6.22979 8.09073 8.19102C8.08932 8.20431 8.08831 8.21767 8.08703 8.23102C8.08032 8.30089 8.07502 8.37103 8.07099 8.44157C8.06979 8.46305 8.06844 8.48446 8.06744 8.506C8.06361 8.58997 8.06099 8.6742 8.06099 8.75904C8.06099 8.84468 8.06348 8.93012 8.0675 9.01549C8.06911 9.04985 8.07193 9.08388 8.07415 9.11805C8.07744 9.16718 8.08079 9.2163 8.08536 9.2653C8.08938 9.30886 8.09435 9.35215 8.09945 9.39544C8.10388 9.43316 8.10858 9.47075 8.11381 9.50833C8.12066 9.55766 8.12804 9.60679 8.13616 9.65572C8.14106 9.68478 8.14643 9.71378 8.15174 9.74277C8.1618 9.79754 8.17207 9.85217 8.18375 9.90634C8.18764 9.92419 8.19207 9.94191 8.1961 9.9597C8.24167 10.1612 8.29825 10.3586 8.36564 10.551C8.36993 10.5634 8.37369 10.576 8.37805 10.5883C8.33758 10.5895 8.29704 10.5901 8.25664 10.5901C5.99781 10.5901 4.16008 8.75232 4.16008 6.49343ZM7.36861 15.0509C7.35385 15.0742 7.33975 15.0979 7.32525 15.1213C7.29458 15.1709 7.26418 15.2205 7.23478 15.2707C7.21834 15.2987 7.2025 15.3269 7.18652 15.355C7.16008 15.4016 7.13397 15.4482 7.1086 15.4953C7.09263 15.5248 7.07692 15.5546 7.06135 15.5843C7.03692 15.6311 7.01309 15.6781 6.98974 15.7253C6.97504 15.755 6.96041 15.7846 6.94618 15.8144C6.92242 15.8641 6.89953 15.9143 6.87691 15.9645C6.86463 15.9918 6.85201 16.0189 6.84013 16.0463C6.81396 16.1065 6.78899 16.1671 6.76449 16.2279C6.75731 16.2457 6.74966 16.2633 6.74268 16.2811C6.7116 16.3601 6.68187 16.4396 6.65368 16.5195C6.64724 16.5378 6.64147 16.5564 6.63509 16.5747C6.61388 16.6363 6.59321 16.6981 6.57368 16.7602C6.56475 16.7887 6.5565 16.8174 6.5479 16.846C6.53213 16.8986 6.51663 16.9513 6.50206 17.0043C6.4934 17.0359 6.48515 17.0675 6.47689 17.0991C6.4636 17.15 6.45085 17.201 6.43877 17.2522C6.43105 17.2847 6.42354 17.3171 6.41635 17.3496C6.40481 17.4014 6.394 17.4535 6.3836 17.5057C6.37736 17.537 6.37092 17.5684 6.36508 17.5998C6.35454 17.6566 6.34508 17.7137 6.33588 17.7708C6.33159 17.7976 6.32682 17.8243 6.32279 17.8512C6.31031 17.9351 6.29897 18.0192 6.28944 18.1037C6.2893 18.1047 6.28923 18.1057 6.28917 18.1067C6.28051 18.1836 6.27306 18.2605 6.26682 18.3378H2.34234V16.6548C2.34234 14.3555 3.66415 12.2913 5.73498 11.3102C6.48938 11.7068 7.34693 11.9325 8.25671 11.9325C8.51981 11.9325 8.78371 11.913 9.0456 11.8745C9.08641 11.9327 9.12789 11.9903 9.17084 12.0468C9.18534 12.0658 9.20037 12.0843 9.21514 12.1031C9.25756 12.1573 9.30058 12.2109 9.34501 12.2635C9.3632 12.285 9.38186 12.3061 9.40038 12.3274C9.442 12.3752 9.48428 12.4224 9.5275 12.4686C9.55019 12.493 9.57328 12.5169 9.59637 12.5409C9.6359 12.5816 9.67597 12.6218 9.71671 12.6613C9.73201 12.6761 9.74644 12.6918 9.76188 12.7065C9.70355 12.7418 9.64576 12.7779 9.58851 12.8147C9.57918 12.8207 9.57006 12.827 9.56079 12.833C9.50354 12.8702 9.4469 12.9082 9.39079 12.9469C9.37139 12.9604 9.35206 12.9739 9.33273 12.9875C9.28273 13.0227 9.23326 13.0586 9.1842 13.095C9.16869 13.1065 9.15299 13.1178 9.13762 13.1295C9.0752 13.1767 9.01352 13.2247 8.95264 13.2739C8.93936 13.2846 8.92633 13.2957 8.91305 13.3066C8.86459 13.3462 8.8166 13.3866 8.76921 13.4275C8.75082 13.4433 8.73257 13.4593 8.71431 13.4754C8.66686 13.5172 8.62001 13.5596 8.57363 13.6026C8.56155 13.6138 8.5492 13.6248 8.53719 13.6362C8.48027 13.6897 8.42423 13.7443 8.36899 13.7998C8.35463 13.8142 8.3406 13.8289 8.32637 13.8434C8.28409 13.8866 8.24228 13.9302 8.201 13.9744C8.18462 13.992 8.16825 14.0096 8.152 14.0274C8.10556 14.0781 8.05978 14.1296 8.01475 14.1817C8.0077 14.1899 8.00039 14.1978 7.99334 14.2061C7.94199 14.266 7.89179 14.3271 7.84226 14.3888C7.82843 14.4059 7.81494 14.4234 7.80132 14.4408C7.76407 14.4881 7.72735 14.5359 7.69124 14.5841C7.67728 14.6028 7.66326 14.6213 7.6495 14.6401C7.60225 14.7045 7.5556 14.7695 7.5103 14.8356C7.46164 14.9066 7.41452 14.9785 7.36861 15.0509ZM7.5856 20.6034V19.6802V18.9204C7.5856 18.8459 7.58701 18.7717 7.58976 18.6977C7.59064 18.6733 7.59258 18.6492 7.59379 18.6249C7.59621 18.5755 7.59849 18.526 7.60211 18.4768C7.60433 18.4469 7.60768 18.4173 7.61037 18.3875C7.61426 18.3442 7.61775 18.3007 7.62258 18.2577C7.62614 18.2261 7.63077 18.1948 7.6348 18.1633C7.64003 18.1223 7.64493 18.0812 7.65097 18.0404C7.65587 18.0079 7.66178 17.9757 7.66715 17.9433C7.67373 17.904 7.67983 17.8646 7.68722 17.8254C7.69346 17.7923 7.70071 17.7596 7.70749 17.7266C7.71527 17.6886 7.72272 17.6505 7.73125 17.6128C7.73876 17.5795 7.74735 17.5466 7.75541 17.5134C7.76447 17.4765 7.77313 17.4394 7.78286 17.4027C7.79172 17.3693 7.80152 17.3363 7.81091 17.3032C7.82112 17.2671 7.83105 17.231 7.84192 17.1953C7.85206 17.162 7.8632 17.1289 7.87387 17.0959C7.88528 17.0608 7.89635 17.0256 7.90837 16.9908C7.91978 16.9578 7.93206 16.9251 7.94401 16.8924C7.95663 16.8579 7.96898 16.8233 7.9822 16.7891C7.99482 16.7565 8.00824 16.7244 8.02133 16.692C8.03509 16.6583 8.04864 16.6243 8.06301 16.5908C8.0769 16.5585 8.09153 16.5266 8.10596 16.4946C8.12079 16.4617 8.13549 16.4286 8.15093 16.396C8.16603 16.3641 8.18187 16.3326 8.19751 16.301C8.21348 16.2688 8.22926 16.2365 8.24577 16.2046C8.26208 16.1732 8.27906 16.1422 8.2959 16.1111C8.31295 16.0796 8.3298 16.0482 8.34738 16.017C8.36483 15.9861 8.38295 15.9557 8.40087 15.9252C8.419 15.8945 8.43698 15.8637 8.45571 15.8332C8.4743 15.8029 8.4935 15.7731 8.51262 15.7432C8.53182 15.7132 8.55088 15.6832 8.57061 15.6535C8.59035 15.6238 8.61062 15.5946 8.63088 15.5653C8.65109 15.5361 8.67122 15.5069 8.69189 15.4781C8.7127 15.4491 8.73411 15.4205 8.75552 15.3918C8.77673 15.3634 8.79787 15.335 8.81955 15.3071C8.84143 15.2788 8.86385 15.2509 8.88627 15.223C8.90848 15.1954 8.93076 15.1678 8.95345 15.1405C8.97634 15.1132 8.99969 15.0861 9.02305 15.0591C9.04634 15.0322 9.0697 15.0053 9.09352 14.9787C9.11735 14.9521 9.14171 14.926 9.16601 14.8998C9.19031 14.8737 9.2146 14.8477 9.23937 14.8221C9.2642 14.7963 9.28951 14.7709 9.31488 14.7456C9.34018 14.7203 9.36562 14.6951 9.39139 14.6702C9.4171 14.6455 9.4432 14.621 9.46945 14.5967C9.49576 14.5723 9.5222 14.5479 9.54898 14.5239C9.57569 14.5 9.60267 14.4764 9.62986 14.453C9.65711 14.4294 9.68456 14.406 9.71228 14.3829C9.73986 14.36 9.76771 14.3373 9.79577 14.3149C9.82403 14.2922 9.85248 14.2697 9.88121 14.2475C9.9096 14.2256 9.93826 14.204 9.96705 14.1825C9.99632 14.1607 10.0258 14.1391 10.0556 14.1179C10.0847 14.097 10.1141 14.0765 10.1437 14.0561C10.174 14.0352 10.2045 14.0146 10.2353 13.9942C10.2651 13.9745 10.2953 13.955 10.3255 13.9357C10.3569 13.9158 10.3884 13.8961 10.4202 13.8768C10.4508 13.8581 10.4816 13.8397 10.5126 13.8215C10.5448 13.8027 10.5773 13.7841 10.61 13.7658C10.6413 13.7482 10.6729 13.7308 10.7046 13.7138C10.7378 13.6959 10.7713 13.6784 10.805 13.6611C10.837 13.6446 10.869 13.6285 10.9014 13.6125C10.9268 13.6001 10.9525 13.588 10.9782 13.5758C11.7326 13.9724 12.5903 14.198 13.5 14.198C14.4097 14.198 15.2674 13.9724 16.0217 13.5758C16.0472 13.5879 16.0727 13.5999 16.0979 13.6123C16.1307 13.6284 16.1631 13.6448 16.1955 13.6613C16.2287 13.6785 16.2619 13.6958 16.2948 13.7134C16.3269 13.7307 16.3588 13.7483 16.3904 13.766C16.4227 13.7842 16.4548 13.8025 16.4866 13.8211C16.5181 13.8395 16.5493 13.8583 16.5803 13.8772C16.6117 13.8963 16.6427 13.9156 16.6736 13.9353C16.7043 13.9548 16.7348 13.9746 16.7651 13.9946C16.7955 14.0147 16.8256 14.0351 16.8556 14.0557C16.8854 14.0763 16.9152 14.0971 16.9446 14.1181C16.9741 14.1392 17.0032 14.1606 17.0322 14.1822C17.0613 14.2038 17.0903 14.2256 17.1189 14.2477C17.1474 14.2698 17.1756 14.292 17.2036 14.3145C17.2318 14.3371 17.2599 14.3599 17.2877 14.383C17.3152 14.4059 17.3425 14.4292 17.3696 14.4527C17.3969 14.4762 17.4241 14.4999 17.451 14.524C17.4775 14.5478 17.5038 14.572 17.5299 14.5962C17.5563 14.6208 17.5827 14.6455 17.6087 14.6705C17.6342 14.6951 17.6594 14.7201 17.6845 14.7451C17.71 14.7707 17.7355 14.7962 17.7605 14.8221C17.7851 14.8476 17.8093 14.8734 17.8334 14.8993C17.8579 14.9257 17.8824 14.9521 17.9065 14.9789C17.9301 15.0052 17.9533 15.0319 17.9763 15.0586C17.9999 15.0858 18.0235 15.113 18.0465 15.1407C18.0691 15.1677 18.0912 15.1952 18.1133 15.2226C18.1358 15.2507 18.1584 15.2787 18.1804 15.3071C18.202 15.335 18.223 15.3632 18.2441 15.3915C18.2656 15.4202 18.287 15.449 18.308 15.4781C18.3286 15.5068 18.3486 15.5359 18.3687 15.565C18.389 15.5944 18.4095 15.6238 18.4293 15.6536C18.4488 15.683 18.4678 15.7128 18.4868 15.7426C18.5061 15.7728 18.5254 15.8028 18.5442 15.8333C18.5627 15.8635 18.5805 15.8941 18.5985 15.9245C18.6166 15.9553 18.6349 15.9859 18.6524 16.017C18.6699 16.048 18.6867 16.0794 18.7037 16.1107C18.7206 16.1419 18.7377 16.1731 18.754 16.2045C18.7705 16.2364 18.7862 16.2686 18.8022 16.3008C18.8178 16.3324 18.8337 16.3639 18.8488 16.3959C18.8642 16.4285 18.8789 16.4615 18.8936 16.4944C18.9081 16.5265 18.9228 16.5585 18.9367 16.5909C18.951 16.6241 18.9644 16.6577 18.9781 16.6913C18.9914 16.7239 19.0049 16.7564 19.0176 16.7893C19.0308 16.8233 19.043 16.8577 19.0556 16.8921C19.0676 16.9249 19.0799 16.9576 19.0913 16.9907C19.1034 17.0257 19.1145 17.061 19.1259 17.0963C19.1366 17.1292 19.1477 17.162 19.1577 17.1953C19.1687 17.231 19.1785 17.2672 19.1888 17.3033C19.1982 17.3363 19.208 17.3693 19.2169 17.4027C19.2266 17.4394 19.2353 17.4764 19.2443 17.5134C19.2524 17.5465 19.261 17.5795 19.2685 17.6128C19.277 17.6505 19.2844 17.6886 19.2922 17.7265C19.299 17.7594 19.3063 17.7923 19.3125 17.8254C19.3198 17.8642 19.3259 17.9033 19.3324 17.9424C19.3379 17.9751 19.3439 18.0076 19.3488 18.0405C19.3549 18.0809 19.3597 18.1217 19.3649 18.1624C19.369 18.1942 19.3737 18.2257 19.3773 18.2576C19.3821 18.3007 19.3856 18.3441 19.3895 18.3875C19.3922 18.4173 19.3955 18.4469 19.3978 18.4767C19.4014 18.5259 19.4037 18.5755 19.4061 18.6249C19.4073 18.6492 19.4092 18.6733 19.4101 18.6976C19.4129 18.7716 19.4143 18.8459 19.4143 18.9204V19.6801V20.6034H7.5856V20.6034ZM20.7335 18.3378C20.7203 18.1743 20.7014 18.0118 20.6773 17.8503C20.6735 17.8248 20.669 17.7994 20.6649 17.7739C20.6555 17.7154 20.6458 17.6571 20.635 17.599C20.6293 17.5684 20.623 17.5379 20.6169 17.5074C20.6064 17.4543 20.5954 17.4013 20.5836 17.3486C20.5765 17.3167 20.5691 17.2849 20.5616 17.2532C20.5493 17.2014 20.5365 17.1498 20.523 17.0983C20.5149 17.0671 20.5068 17.036 20.4982 17.0048C20.4835 16.9513 20.4678 16.898 20.4518 16.8448C20.4434 16.8167 20.4353 16.7886 20.4265 16.7606C20.4067 16.6976 20.3858 16.6349 20.3642 16.5723C20.3582 16.5549 20.3527 16.5372 20.3465 16.5198C20.3182 16.4396 20.2885 16.3599 20.2573 16.2806C20.2505 16.2636 20.2432 16.2468 20.2364 16.2298C20.2116 16.1683 20.1862 16.1069 20.1597 16.0459C20.148 16.0189 20.1356 15.9922 20.1235 15.9653C20.1007 15.9145 20.0776 15.864 20.0536 15.8138C20.0395 15.7844 20.025 15.7552 20.0106 15.726C19.987 15.6783 19.9629 15.6309 19.9383 15.5837C19.9229 15.5542 19.9074 15.5248 19.8915 15.4955C19.866 15.4483 19.8399 15.4014 19.8133 15.3547C19.7973 15.3267 19.7815 15.2986 19.7652 15.2707C19.7357 15.2203 19.7051 15.1705 19.6743 15.1207C19.6599 15.0974 19.646 15.074 19.6313 15.051C19.5853 14.9786 19.5382 14.9067 19.4895 14.8356C19.4441 14.7694 19.3975 14.7045 19.3502 14.64C19.3365 14.6214 19.3226 14.6029 19.3088 14.5844C19.2724 14.5359 19.2356 14.488 19.1982 14.4404C19.1847 14.4233 19.1714 14.406 19.1577 14.389C19.1081 14.3271 19.0577 14.2659 19.0062 14.2059C18.9995 14.1981 18.9926 14.1905 18.9859 14.1827C18.9405 14.1302 18.8943 14.0783 18.8475 14.0272C18.8314 14.0096 18.8152 13.9922 18.799 13.9748C18.7575 13.9303 18.7154 13.8863 18.6729 13.843C18.6589 13.8287 18.6451 13.8142 18.6309 13.8001C18.5756 13.7445 18.5193 13.6897 18.4623 13.636C18.4505 13.625 18.4384 13.6142 18.4266 13.6032C18.38 13.5599 18.3329 13.5173 18.2852 13.4753C18.2671 13.4593 18.2488 13.4435 18.2306 13.4276C18.1831 13.3866 18.1351 13.3463 18.0866 13.3066C18.0733 13.2958 18.0604 13.2847 18.0471 13.2739C17.9863 13.2248 17.9246 13.1768 17.8622 13.1296C17.8467 13.1179 17.8308 13.1065 17.8152 13.0949C17.7663 13.0586 17.7171 13.0229 17.6673 12.9879C17.6478 12.9741 17.6283 12.9604 17.6087 12.9469C17.5531 12.9086 17.4971 12.871 17.4404 12.8342C17.4305 12.8277 17.4207 12.821 17.4108 12.8147C17.3536 12.7779 17.296 12.7419 17.2378 12.7067C17.2528 12.6924 17.2669 12.6772 17.2817 12.6627C17.3234 12.6224 17.3642 12.5815 17.4045 12.5399C17.427 12.5167 17.4493 12.4934 17.4714 12.4697C17.5153 12.4228 17.5581 12.3748 17.6004 12.3263C17.6184 12.3057 17.6365 12.2852 17.6541 12.2643C17.6992 12.211 17.7429 12.1566 17.7859 12.1015C17.8 12.0835 17.8145 12.0658 17.8283 12.0476C17.8714 11.9909 17.9131 11.933 17.9541 11.8746C18.216 11.9131 18.4799 11.9325 18.743 11.9325C19.6528 11.9325 20.5104 11.7069 21.2647 11.3103C23.3356 12.2914 24.6574 14.3556 24.6574 16.6549V18.3378H20.7335V18.3378Z" stroke="#231F20" stroke-opacity="0.32" stroke-width="0.5" stroke-linejoin="round" mask="url(#path-1-outside-1)"/>
</svg>
