<svg width="24" height="24" viewBox="0 0 24 24" fill="none" xmlns="http://www.w3.org/2000/svg">
<path d="M22.5011 12.2332C22.5011 11.3699 22.4296 10.7399 22.2749 10.0865H12.2154V13.9832H18.1201C18.0011 14.9515 17.3582 16.4099 15.9296 17.3898L15.9096 17.5203L19.0903 19.935L19.3106 19.9565C21.3344 18.1249 22.5011 15.4298 22.5011 12.2332Z" fill="#4285F4"/>
<path d="M12.2147 22.5C15.1075 22.5 17.5361 21.5666 19.3099 19.9566L15.929 17.3899C15.0242 18.0082 13.8099 18.4399 12.2147 18.4399C9.38143 18.4399 6.97669 16.6083 6.11947 14.0766L5.99382 14.087L2.68656 16.5954L2.64331 16.7132C4.40519 20.1432 8.02423 22.5 12.2147 22.5Z" fill="#34A853"/>
<path d="M6.12003 14.0768C5.89385 13.4234 5.76295 12.7234 5.76295 12.0001C5.76295 11.2767 5.89385 10.5767 6.10813 9.9234L6.10214 9.78426L2.75343 7.23563L2.64387 7.2867C1.91771 8.71005 1.50104 10.3084 1.50104 12.0001C1.50104 13.6917 1.91771 15.29 2.64387 16.7134L6.12003 14.0768Z" fill="#FBBC05"/>
<path d="M12.2148 5.55997C14.2267 5.55997 15.5838 6.41163 16.3576 7.12335L19.3814 4.23C17.5243 2.53834 15.1076 1.5 12.2148 1.5C8.02426 1.5 4.4052 3.85665 2.64331 7.28662L6.10759 9.92332C6.97671 7.39166 9.38146 5.55997 12.2148 5.55997Z" fill="#EB4335"/>
</svg>
