<svg width="26" height="25" viewBox="0 0 26 25" fill="none" xmlns="http://www.w3.org/2000/svg">
<path d="M10.4229 1.25073L1.25076 10.8398V23.3473H7.50451V18.7612L8.75526 16.6766L11.6737 14.1751L14.5921 15.4259L16.2598 16.6766L17.5105 19.5951V23.3473H23.3473V10.8398L21.6797 7.92139L13.3413 1.25073H10.4229Z" fill="#00A7A4" stroke="#00A7A4"/>
<path d="M24.0988 9.43026L16.193 1.52344C15.2146 0.547844 13.8892 0 12.5075 0C11.1258 0 9.80042 0.547844 8.82196 1.52344L0.916186 9.43026C0.624788 9.71979 0.393759 10.0643 0.23649 10.4438C0.0792216 10.8233 -0.00115736 11.2302 1.25903e-05 11.641V21.8731C1.25903e-05 22.7024 0.32945 23.4978 0.915852 24.0842C1.50225 24.6706 2.29759 25 3.12689 25H21.8881C22.7174 25 23.5128 24.6706 24.0992 24.0842C24.6856 23.4978 25.015 22.7024 25.015 21.8731V11.641C25.0162 11.2302 24.9358 10.8233 24.7785 10.4438C24.6212 10.0643 24.3902 9.71979 24.0988 9.43026V9.43026ZM15.6344 22.9154H9.38063V18.815C9.38063 17.9857 9.71007 17.1904 10.2965 16.604C10.8829 16.0176 11.6782 15.6882 12.5075 15.6882C13.3368 15.6882 14.1321 16.0176 14.7185 16.604C15.3049 17.1904 15.6344 17.9857 15.6344 18.815V22.9154ZM22.9304 21.8731C22.9304 22.1496 22.8206 22.4147 22.6251 22.6101C22.4297 22.8056 22.1646 22.9154 21.8881 22.9154H17.719V18.815C17.719 17.4329 17.1699 16.1073 16.1926 15.13C15.2152 14.1527 13.8897 13.6036 12.5075 13.6036C11.1253 13.6036 9.79979 14.1527 8.82245 15.13C7.84511 16.1073 7.29605 17.4329 7.29605 18.815V22.9154H3.12689C2.85045 22.9154 2.58534 22.8056 2.38987 22.6101C2.19441 22.4147 2.08459 22.1496 2.08459 21.8731V11.641C2.08556 11.3647 2.19527 11.1 2.38999 10.9041L10.2958 3.00037C10.8833 2.41557 11.6785 2.08726 12.5075 2.08726C13.3365 2.08726 14.1317 2.41557 14.7192 3.00037L22.625 10.9072C22.819 11.1024 22.9286 11.3658 22.9304 11.641V21.8731Z" fill="#00A7A4"/>
</svg>
