<svg width="26" height="25" viewBox="0 0 26 25" fill="none" xmlns="http://www.w3.org/2000/svg">
<path d="M23.0468 11.8165V13.8183C23.0468 14.3577 23.4839 14.795 24.0233 14.795C24.5627 14.795 24.9998 14.3577 24.9998 13.8183V7.86322C24.9998 5.70934 23.2476 3.95689 21.0937 3.95689H16.8909V2.68372C16.8909 1.20391 15.6869 0 14.2071 0H10.7927C9.31287 0 8.10896 1.20391 8.10896 2.68372V3.95689H3.90614C1.75226 3.95689 0 5.70915 0 7.86302V19.2399C0 21.3938 1.75226 23.1462 3.90614 23.1462H12.1582C12.6976 23.1462 13.1347 22.7089 13.1347 22.1696C13.1347 21.6304 12.6976 21.1931 12.1582 21.1931H3.90614C2.82929 21.1931 1.95316 20.3169 1.95316 19.2399V11.8165H11.5723V13.2831C11.5723 13.8223 12.0094 14.2596 12.5487 14.2596C13.0881 14.2596 13.5252 13.8223 13.5252 13.2831V11.8165H23.0468ZM10.0621 2.68372C10.0621 2.28095 10.3899 1.95316 10.7927 1.95316H14.2071C14.6099 1.95316 14.9377 2.28076 14.9377 2.68372V3.95689H10.0621V2.68372ZM1.95316 7.86322C1.95316 6.78618 2.82929 5.91005 3.90614 5.91005H21.0937C22.1705 5.91005 23.0468 6.78618 23.0468 7.86322V9.86331H1.95316V7.86322ZM24.7218 23.3328L22.4722 21.0832C22.8978 20.4066 23.1443 19.6066 23.1443 18.75C23.1443 16.3269 21.173 14.3554 18.75 14.3554C16.3269 14.3554 14.3554 16.3269 14.3554 18.75C14.3554 21.173 16.3269 23.1445 18.75 23.1445C19.6106 23.1445 20.4143 22.8955 21.0929 22.4661L23.3407 24.7138C23.5315 24.9046 23.7814 25 24.0313 25C24.2813 25 24.531 24.9046 24.7218 24.7138C25.1032 24.3324 25.1032 23.7142 24.7218 23.3328V23.3328ZM16.3085 18.75C16.3085 17.4037 17.4037 16.3085 18.75 16.3085C20.096 16.3085 21.1914 17.4037 21.1914 18.75C21.1914 20.0962 20.096 21.1914 18.75 21.1914C17.4037 21.1914 16.3085 20.096 16.3085 18.75Z" fill="#00A7A4"/>
</svg>
