<svg width="22" height="22" viewBox="0 0 22 22" fill="none" xmlns="http://www.w3.org/2000/svg">
<path d="M11.4918 6C10.1139 6 9 4.88119 9 3.49959C9 2.11922 10.1139 1 11.4918 1C12.8664 1 13.9816 2.11881 13.9816 3.49959C13.9816 4.88078 12.866 6 11.4918 6Z" fill="#231F20" fill-opacity="0.48"/>
<path d="M11.4918 13.7195C10.1141 13.7195 9 12.6009 9 11.2195C9 9.83975 10.1137 8.71948 11.4914 8.71948C12.8658 8.71948 13.9807 9.83934 13.9816 11.2195C13.9807 12.6017 12.865 13.7195 11.4918 13.7195Z" fill="#231F20" fill-opacity="0.48"/>
<path d="M11.492 21.4402C10.1142 21.4402 9 20.3215 9 18.94C9 17.5585 10.1138 16.4402 11.4916 16.4402C12.8661 16.4394 13.9811 17.5589 13.9811 18.94C13.9811 20.3211 12.8653 21.4402 11.492 21.4402Z" fill="#231F20" fill-opacity="0.48"/>
</svg>
