<svg width="26" height="28" viewBox="0 0 26 28" fill="none" xmlns="http://www.w3.org/2000/svg">
 <path
  d="M11.6666 28C9.25522 28 7.2916 26.0377 7.2916 23.625C7.2916 23.142 7.68359 22.75 8.1666 22.75C8.6496 22.75 9.0416 23.142 9.0416 23.625C9.0416 25.0729 10.2199 26.25 11.6666 26.25C13.1132 26.25 14.2916 25.0729 14.2916 23.625C14.2916 23.142 14.6836 22.75 15.1666 22.75C15.6496 22.75 16.0416 23.142 16.0416 23.625C16.0416 26.0377 14.0782 28 11.6666 28Z"
  fill="black" />
 <path
  d="M21.2916 24.5H2.0416C0.915802 24.5 0 23.5842 0 22.4584C0 21.8609 0.260193 21.2952 0.713928 20.9066C0.743195 20.881 0.774597 20.8577 0.807281 20.8366C2.5199 19.3421 3.5 17.192 3.5 14.9216V11.6666C3.5 7.16342 7.16449 3.5 11.6666 3.5C11.8533 3.5 12.0552 3.50342 12.2419 3.53503C12.7189 3.61429 13.041 4.06589 12.9616 4.54184C12.8823 5.01779 12.4226 5.33994 11.9548 5.26047C11.8614 5.2453 11.7589 5.25 11.6666 5.25C8.12943 5.25 5.25 8.12814 5.25 11.6666V14.9216C5.25 17.7403 4.0144 20.4074 1.86322 22.2377C1.8457 22.2518 1.83054 22.2646 1.81174 22.2775C1.78033 22.3172 1.75 22.3779 1.75 22.4584C1.75 22.6169 1.88309 22.75 2.0416 22.75H21.2916C21.4503 22.75 21.5834 22.6169 21.5834 22.4584C21.5834 22.3766 21.5531 22.3172 21.5204 22.2775C21.5029 22.2646 21.4877 22.2518 21.4702 22.2377C19.3177 20.4061 18.0834 17.7403 18.0834 14.9216V13.6501C18.0834 13.1671 18.4754 12.7751 18.9584 12.7751C19.4414 12.7751 19.8334 13.1671 19.8334 13.6501V14.9216C19.8334 17.1932 20.8146 19.3444 22.5295 20.8402C22.5609 20.8611 22.5913 20.8834 22.6193 20.9079C23.0732 21.2952 23.3334 21.8609 23.3334 22.4584C23.3334 23.5842 22.4176 24.5 21.2916 24.5Z"
  fill="black" />
 <circle cx="19.8516" cy="6" r="5" fill="#F33C3C" />
 <path
  d="M19.8334 11.6666C16.6169 11.6666 14 9.04993 14 5.8334C14 2.61688 16.6169 0 19.8334 0C23.0499 0 25.6666 2.61688 25.6666 5.8334C25.6666 9.04993 23.0499 11.6666 19.8334 11.6666ZM19.8334 1.75C17.5816 1.75 15.75 3.5816 15.75 5.8334C15.75 8.08499 17.5816 9.9166 19.8334 9.9166C22.085 9.9166 23.9166 8.08499 23.9166 5.8334C23.9166 3.5816 22.085 1.75 19.8334 1.75Z"
  fill="black" />
</svg>