<svg width="8" height="8" viewBox="0 0 8 8" fill="none" xmlns="http://www.w3.org/2000/svg">
<path d="M7.28571 3.28571H4.85714C4.77825 3.28571 4.71429 3.22175 4.71429 3.14286V0.714286C4.71429 0.319824 4.39446 0 4 0C3.60554 0 3.28571 0.319824 3.28571 0.714286V3.14286C3.28571 3.22175 3.22175 3.28571 3.14286 3.28571H0.714286C0.319824 3.28571 0 3.60554 0 4C0 4.39446 0.319824 4.71429 0.714286 4.71429H3.14286C3.22175 4.71429 3.28571 4.77825 3.28571 4.85714V7.28571C3.28571 7.68018 3.60554 8 4 8C4.39446 8 4.71429 7.68018 4.71429 7.28571V4.85714C4.71429 4.77825 4.77825 4.71429 4.85714 4.71429H7.28571C7.68018 4.71429 8 4.39446 8 4C8 3.60554 7.68018 3.28571 7.28571 3.28571Z" fill="#00A7A4"/>
</svg>
