<svg width="28" height="28" viewBox="0 0 28 28" fill="none" xmlns="http://www.w3.org/2000/svg">
<path d="M22.6093 15.1325H12.8675V5.39072C12.8675 4.99706 12.5526 4.68213 12.1589 4.68213C6.00735 4.68213 1 9.68948 1 15.8411C1 21.9926 6.00735 27 12.1589 27C18.3105 27 23.3179 21.9926 23.3179 15.8411C23.3179 15.4526 22.9977 15.1325 22.6093 15.1325ZM12.1589 25.5828C6.78942 25.5828 2.41717 21.2106 2.41717 15.8411C2.41717 10.7077 6.40626 6.48771 11.4503 6.12555V15.8411C11.4503 16.2347 11.7653 16.5496 12.1589 16.5496H21.8744C21.5123 21.5937 17.2923 25.5828 12.1589 25.5828Z" fill="#231F20" fill-opacity="0.32"/>
<path d="M22.6093 14.9825H13.0175V5.39072C13.0175 4.91421 12.6354 4.53213 12.1589 4.53213C5.9245 4.53213 0.85 9.60663 0.85 15.8411C0.85 22.0755 5.9245 27.15 12.1589 27.15C18.3934 27.15 23.4679 22.0755 23.4679 15.8411C23.4679 15.3698 23.0805 14.9825 22.6093 14.9825ZM12.1589 25.4328C6.87226 25.4328 2.56717 21.1277 2.56717 15.8411C2.56717 10.8416 6.41044 6.72171 11.3003 6.28806V15.8411C11.3003 16.3176 11.6824 16.6996 12.1589 16.6996H21.7119C21.2783 21.5896 17.1584 25.4328 12.1589 25.4328Z" stroke="#231F20" stroke-opacity="0.32" stroke-width="0.3"/>
<path d="M26.9948 12.1222C26.9843 9.41381 25.9922 6.80516 24.2024 4.77388C22.0819 2.37518 19.0376 1 15.8358 1C15.4422 1 15.1272 1.31493 15.1272 1.70859V12.1589C15.1272 12.5526 15.4422 12.8675 15.8358 12.8675H26.2862C26.6798 12.8675 26.9948 12.5526 26.9948 12.1589C26.9948 12.1484 26.9948 12.1379 26.9948 12.1222ZM16.5444 11.4556V2.44867C19.0743 2.63237 21.4468 3.80285 23.1369 5.71866C24.5541 7.31954 25.3939 9.33508 25.5513 11.4556H16.5444Z" fill="#231F20" fill-opacity="0.32"/>
<path d="M27.1448 12.1222L27.1448 12.1216C27.1341 9.37689 26.1288 6.73322 24.3149 4.67471L24.3148 4.67453C22.1659 2.2437 19.0807 0.85 15.8358 0.85C15.3593 0.85 14.9772 1.23208 14.9772 1.70859V12.1589C14.9772 12.6354 15.3593 13.0175 15.8358 13.0175H26.2862C26.7627 13.0175 27.1448 12.6354 27.1448 12.1589V12.1589V12.1588V12.1587V12.1587V12.1586V12.1586V12.1585V12.1584V12.1584V12.1583V12.1583V12.1582V12.1581V12.1581V12.158V12.1579V12.1579V12.1578V12.1578V12.1577V12.1576V12.1576V12.1575V12.1575V12.1574V12.1573V12.1573V12.1572V12.1571V12.1571V12.157V12.157V12.1569V12.1568V12.1568V12.1567V12.1567V12.1566V12.1565V12.1565V12.1564V12.1563V12.1563V12.1562V12.1562V12.1561V12.156V12.156V12.1559V12.1558V12.1558V12.1557V12.1557V12.1556V12.1555V12.1555V12.1554V12.1554V12.1553V12.1552V12.1552V12.1551V12.155V12.155V12.1549V12.1549V12.1548V12.1547V12.1547V12.1546V12.1545V12.1545V12.1544V12.1544V12.1543V12.1542V12.1542V12.1541V12.1541V12.154V12.1539V12.1539V12.1538V12.1537V12.1537V12.1536V12.1536V12.1535V12.1534V12.1534V12.1533V12.1532V12.1532V12.1531V12.1531V12.153V12.1529V12.1529V12.1528V12.1527V12.1527V12.1526V12.1526V12.1525V12.1524V12.1524V12.1523V12.1522V12.1522V12.1521V12.152V12.152V12.1519V12.1519V12.1518V12.1517V12.1517V12.1516V12.1515V12.1515V12.1514V12.1514V12.1513V12.1512V12.1512V12.1511V12.151V12.151V12.1509V12.1508V12.1508V12.1507V12.1507V12.1506V12.1505V12.1505V12.1504V12.1503V12.1503V12.1502V12.1501V12.1501V12.15V12.15V12.1499V12.1498V12.1498V12.1497V12.1496V12.1496V12.1495V12.1494V12.1494V12.1493V12.1493V12.1492V12.1491V12.1491V12.149V12.1489V12.1489V12.1488V12.1487V12.1487V12.1486V12.1485V12.1485V12.1484V12.1483V12.1483V12.1482V12.1482V12.1481V12.148V12.148V12.1479V12.1478V12.1478V12.1477V12.1476V12.1476V12.1475V12.1474V12.1474V12.1473V12.1472V12.1472V12.1471V12.147V12.147V12.1469V12.1468V12.1468V12.1467V12.1466V12.1466V12.1465V12.1464V12.1464V12.1463V12.1462V12.1462V12.1461V12.146V12.146V12.1459V12.1459V12.1458V12.1457V12.1457V12.1456V12.1455V12.1455V12.1454V12.1453V12.1452V12.1452V12.1451V12.145V12.145V12.1449V12.1448V12.1448V12.1447V12.1446V12.1446V12.1445V12.1444V12.1444V12.1443V12.1442V12.1442V12.1441V12.144V12.144V12.1439V12.1438V12.1438V12.1437V12.1436V12.1436V12.1435V12.1434V12.1434V12.1433V12.1432V12.1431V12.1431V12.143V12.1429V12.1429V12.1428V12.1427V12.1427V12.1426V12.1425V12.1425V12.1424V12.1423V12.1423V12.1422V12.1421V12.142V12.142V12.1419V12.1418V12.1418V12.1417V12.1416V12.1416V12.1415V12.1414V12.1413V12.1413V12.1412V12.1411V12.1411V12.141V12.1409V12.1408V12.1408V12.1407V12.1406V12.1406V12.1405V12.1404V12.1404V12.1403V12.1402V12.1401V12.1401V12.14V12.1399V12.1399V12.1398V12.1397V12.1396V12.1396V12.1395V12.1394V12.1393V12.1393V12.1392V12.1391V12.1391V12.139V12.1389V12.1388V12.1388V12.1387V12.1386V12.1386V12.1385V12.1384V12.1383V12.1383V12.1382V12.1381V12.138V12.138V12.1379V12.1378V12.1377V12.1377V12.1376V12.1375V12.1374V12.1374V12.1373V12.1372V12.1372V12.1371V12.137V12.1369V12.1369V12.1368V12.1367V12.1366V12.1366V12.1365V12.1364V12.1363V12.1363V12.1362V12.1361V12.136V12.136V12.1359V12.1358V12.1357V12.1356V12.1356V12.1355V12.1354V12.1353V12.1353V12.1352V12.1351V12.135V12.135V12.1349V12.1348V12.1347V12.1347V12.1346V12.1345V12.1344V12.1343V12.1343V12.1342V12.1341V12.134V12.134V12.1339V12.1338V12.1337V12.1336V12.1336V12.1335V12.1334V12.1333V12.1333V12.1332V12.1331V12.133V12.1329V12.1329V12.1328V12.1327V12.1326V12.1325V12.1325V12.1324V12.1323V12.1322V12.1321V12.1321V12.132V12.1319V12.1318V12.1317V12.1317V12.1316V12.1315V12.1314V12.1313V12.1313V12.1312V12.1311V12.131V12.1309V12.1309V12.1308V12.1307V12.1306V12.1305V12.1304V12.1304V12.1303V12.1302V12.1301V12.13V12.13V12.1299V12.1298V12.1297V12.1296V12.1295V12.1295V12.1294V12.1293V12.1292V12.1291V12.129V12.129V12.1289V12.1288V12.1287V12.1286V12.1285V12.1284V12.1284V12.1283V12.1282V12.1281V12.128V12.1279V12.1279V12.1278V12.1277V12.1276V12.1275V12.1274V12.1273V12.1273V12.1272V12.1271V12.127V12.1269V12.1268V12.1267V12.1267V12.1266V12.1265V12.1264V12.1263V12.1262V12.1261V12.126V12.126V12.1259V12.1258V12.1257V12.1256V12.1255V12.1254V12.1253V12.1253V12.1252V12.1251V12.125V12.1249V12.1248V12.1247V12.1246V12.1245V12.1245V12.1244V12.1243V12.1242V12.1241V12.124V12.1239V12.1238V12.1237V12.1236V12.1236V12.1235V12.1234V12.1233V12.1232V12.1231V12.123V12.1229V12.1228V12.1227V12.1226V12.1226V12.1225V12.1224V12.1223L27.1448 12.1222ZM23.0244 5.8179L23.0246 5.81809C24.3838 7.35351 25.2037 9.27657 25.3884 11.3056H16.6944V2.61132C19.1248 2.82917 21.3962 3.97224 23.0244 5.8179Z" stroke="#231F20" stroke-opacity="0.32" stroke-width="0.3"/>
</svg>
