<svg width="21" height="18" viewBox="0 0 21 18" fill="none" xmlns="http://www.w3.org/2000/svg">
<path fill-rule="evenodd" clip-rule="evenodd" d="M13.5541 11.391L14.3733 11.2807L20.2873 15.6953L18.9628 17.4264L13.0398 13.0235L12.923 12.2159L12.6016 11.9674C11.5645 13.1284 10.1171 13.9381 8.44764 14.1629C4.72506 14.6641 1.27707 12.0957 0.745931 8.42581C0.214794 4.75595 2.80173 1.37495 6.5243 0.873732C10.2469 0.372516 13.6949 2.94097 14.226 6.61082C14.4642 8.25663 14.0714 9.85192 13.2239 11.1541L13.5541 11.391ZM2.81938 8.15891C3.18775 10.7043 5.56934 12.4784 8.1513 12.1308C10.7333 11.7832 12.5201 9.44783 12.1517 6.90244C11.7834 4.35706 9.40178 2.58296 6.81982 2.93058C4.23787 3.2782 2.451 5.61352 2.81938 8.15891Z" fill="#231F20" fill-opacity="0.32"/>
</svg>
