<svg width="12" height="12" viewBox="0 0 12 12" fill="none" xmlns="http://www.w3.org/2000/svg">
<g clip-path="url(#clip0)">
<path d="M11.9655 2.91669C11.9563 2.80986 11.8859 2.7181 11.7854 2.68151C11.6846 2.64469 11.5718 2.66975 11.496 2.74544L9.94496 4.29639L8.22548 3.75195L7.68104 2.0325L9.23212 0.48142C9.30803 0.405586 9.33279 0.292762 9.29623 0.192168C9.25928 0.0913738 9.16775 0.0211681 9.0607 0.011914C8.11871 -0.0692465 7.19573 0.267076 6.52841 0.934493C5.61446 1.84852 5.37243 3.18325 5.80102 4.32095C5.75418 4.36042 5.70796 4.40224 5.66236 4.44733L0.484869 9.33287C0.483044 9.33465 0.481243 9.3366 0.479267 9.33835C-0.129625 9.94727 -0.129625 10.938 0.479267 11.547C1.08826 12.1559 2.07176 12.1485 2.68056 11.5396C2.68318 11.5371 2.68558 11.5347 2.68798 11.532L7.5309 6.31415C7.57505 6.2698 7.61604 6.22341 7.65468 6.17579C8.79268 6.60515 10.1283 6.3637 11.043 5.44907C11.7102 4.7816 12.0467 3.85855 11.9655 2.91669ZM1.90034 10.8893C1.67597 11.1136 1.31258 11.1134 1.08823 10.8893C0.86396 10.6651 0.86396 10.3014 1.08823 10.0772C1.31258 9.85308 1.67597 9.85308 1.90034 10.0772C2.12461 10.3014 2.12461 10.6651 1.90034 10.8893Z" fill="#00A7A4" fill-opacity="0.72"/>
</g>
<defs>
<clipPath id="clip0">
<rect width="12" height="12" fill="white"/>
</clipPath>
</defs>
</svg>
