<svg width="45" height="45" viewBox="0 0 35 35" fill="none" xmlns="http://www.w3.org/2000/svg">
<path d="M13.2115 6.1196C12.9939 6.1196 12.7852 6.03317 12.6314 5.87933C12.4776 5.7255 12.3911 5.51685 12.3911 5.29929C12.3906 4.79182 12.1887 4.30531 11.8299 3.94648C11.4711 3.58765 10.9845 3.3858 10.4771 3.38522C10.2595 3.38522 10.0509 3.2988 9.89703 3.14496C9.74319 2.99112 9.65677 2.78247 9.65677 2.56491C9.65677 2.34735 9.74319 2.1387 9.89703 1.98486C10.0509 1.83102 10.2595 1.7446 10.4771 1.7446C11.4195 1.74567 12.323 2.12052 12.9894 2.78692C13.6558 3.45332 14.0307 4.35685 14.0318 5.29929C14.0318 5.51685 13.9453 5.7255 13.7915 5.87933C13.6377 6.03317 13.429 6.1196 13.2115 6.1196V6.1196Z" fill="#9595AC"/>
<path d="M21.4146 6.1196C21.197 6.1196 20.9884 6.03317 20.8345 5.87933C20.6807 5.7255 20.5943 5.51685 20.5943 5.29929C20.5937 4.79182 20.3919 4.30531 20.033 3.94648C19.6742 3.58765 19.1877 3.3858 18.6802 3.38522C18.4627 3.38522 18.254 3.2988 18.1002 3.14496C17.9463 2.99112 17.8599 2.78247 17.8599 2.56491C17.8599 2.34735 17.9463 2.1387 18.1002 1.98486C18.254 1.83102 18.4627 1.7446 18.6802 1.7446C19.6227 1.74567 20.5262 2.12052 21.1926 2.78692C21.859 3.45332 22.2338 4.35685 22.2349 5.29929C22.2349 5.51685 22.1485 5.7255 21.9946 5.87933C21.8408 6.03317 21.6322 6.1196 21.4146 6.1196V6.1196Z" fill="#9595AC"/>
<path d="M29.6177 6.1196C29.4002 6.1196 29.1915 6.03317 29.0377 5.87933C28.8838 5.7255 28.7974 5.51685 28.7974 5.29929C28.7968 4.79182 28.595 4.30531 28.2362 3.94648C27.8773 3.58765 27.3908 3.3858 26.8833 3.38522C26.6658 3.38522 26.4571 3.2988 26.3033 3.14496C26.1495 2.99112 26.063 2.78247 26.063 2.56491C26.063 2.34735 26.1495 2.1387 26.3033 1.98486C26.4571 1.83102 26.6658 1.7446 26.8833 1.7446C27.8258 1.74567 28.7293 2.12052 29.3957 2.78692C30.0621 3.45332 30.437 4.35685 30.438 5.29929C30.438 5.51685 30.3516 5.7255 30.1978 5.87933C30.0439 6.03317 29.8353 6.1196 29.6177 6.1196V6.1196Z" fill="#9595AC"/>
<path d="M33.9927 5.29935H31.2583C30.8053 5.29935 30.438 5.66662 30.438 6.11967V27.9947C30.438 28.4477 30.8053 28.815 31.2583 28.815H33.9927C34.4458 28.815 34.813 28.4477 34.813 27.9947V6.11967C34.813 5.66662 34.4458 5.29935 33.9927 5.29935Z" fill="url(#paint0_linear)"/>
<path d="M31.2583 5.29935H5.55522C5.10218 5.29935 4.73491 5.66662 4.73491 6.11967V27.9947C4.73491 28.4477 5.10218 28.815 5.55522 28.815H31.2583C31.7114 28.815 32.0786 28.4477 32.0786 27.9947V6.11967C32.0786 5.66662 31.7114 5.29935 31.2583 5.29935Z" fill="url(#paint1_linear)"/>
<path d="M31.9033 5.6123C31.8266 5.5147 31.7286 5.43581 31.6169 5.38157C31.5053 5.32732 31.3827 5.29914 31.2586 5.29914H5.55542C5.37133 5.29908 5.19257 5.36095 5.0479 5.47478C4.90322 5.58862 4.80105 5.74781 4.7578 5.92675L0.382799 23.9736C0.353548 24.0943 0.352071 24.22 0.37848 24.3414C0.404889 24.4627 0.458494 24.5764 0.535255 24.674C0.612015 24.7716 0.709929 24.8505 0.821614 24.9048C0.9333 24.959 1.05584 24.9872 1.18001 24.9872H26.8831C27.0671 24.9872 27.2457 24.9254 27.3903 24.8116C27.5349 24.6979 27.637 24.5389 27.6803 24.3601L32.0554 6.31325C32.0848 6.19253 32.0863 6.06671 32.06 5.94528C32.0337 5.82385 31.9801 5.70999 31.9033 5.6123V5.6123Z" fill="url(#paint2_linear)"/>
<path d="M32.0555 6.31292C32.0848 6.19225 32.0863 6.06652 32.0599 5.94519C32.0335 5.82387 31.9799 5.71013 31.9031 5.61253C31.8263 5.51494 31.7284 5.43604 31.6167 5.38179C31.505 5.32755 31.3825 5.29936 31.2583 5.29935H5.55521C5.37119 5.29933 5.1925 5.36119 5.04787 5.47498C4.90324 5.58877 4.80108 5.74789 4.7578 5.92676L3.51776 11.0419H30.9094L32.0555 6.31292Z" fill="url(#paint3_linear)"/>
<path d="M20.0474 15.4165H17.8599C17.6423 15.4165 17.4337 15.33 17.2798 15.1762C17.126 15.0224 17.0396 14.8137 17.0396 14.5962C17.0396 14.3786 17.126 14.17 17.2798 14.0161C17.4337 13.8623 17.6423 13.7758 17.8599 13.7758H20.0474C20.265 13.7758 20.4736 13.8623 20.6274 14.0161C20.7813 14.17 20.8677 14.3786 20.8677 14.5962C20.8677 14.8137 20.7813 15.0224 20.6274 15.1762C20.4736 15.33 20.265 15.4165 20.0474 15.4165Z" fill="#A0DDD8"/>
<path d="M14.5786 15.4165H12.3911C12.1736 15.4165 11.9649 15.33 11.8111 15.1762C11.6573 15.0224 11.5708 14.8137 11.5708 14.5962C11.5708 14.3786 11.6573 14.17 11.8111 14.0161C11.9649 13.8623 12.1736 13.7758 12.3911 13.7758H14.5786C14.7962 13.7758 15.0049 13.8623 15.1587 14.0161C15.3125 14.17 15.399 14.3786 15.399 14.5962C15.399 14.8137 15.3125 15.0224 15.1587 15.1762C15.0049 15.33 14.7962 15.4165 14.5786 15.4165Z" fill="#A0DDD8"/>
<path d="M9.10989 15.4165H6.92239C6.70483 15.4165 6.49618 15.33 6.34235 15.1762C6.18851 15.0224 6.10208 14.8137 6.10208 14.5962C6.10208 14.3786 6.18851 14.17 6.34235 14.0161C6.49618 13.8623 6.70483 13.7758 6.92239 13.7758H9.10989C9.32746 13.7758 9.5361 13.8623 9.68994 14.0161C9.84378 14.17 9.93021 14.3786 9.93021 14.5962C9.93021 14.8137 9.84378 15.0224 9.68994 15.1762C9.5361 15.33 9.32746 15.4165 9.10989 15.4165Z" fill="#A0DDD8"/>
<path d="M25.5161 15.4165H23.3286C23.1111 15.4165 22.9024 15.33 22.7486 15.1762C22.5948 15.0224 22.5083 14.8137 22.5083 14.5962C22.5083 14.3786 22.5948 14.17 22.7486 14.0161C22.9024 13.8623 23.1111 13.7758 23.3286 13.7758H25.5161C25.7337 13.7758 25.9424 13.8623 26.0962 14.0161C26.25 14.17 26.3365 14.3786 26.3365 14.5962C26.3365 14.8137 26.25 15.0224 26.0962 15.1762C25.9424 15.33 25.7337 15.4165 25.5161 15.4165Z" fill="#A0DDD8"/>
<path d="M18.9536 18.6977H16.7661C16.5486 18.6977 16.3399 18.6113 16.1861 18.4575C16.0323 18.3036 15.9458 18.095 15.9458 17.8774C15.9458 17.6599 16.0323 17.4512 16.1861 17.2974C16.3399 17.1435 16.5486 17.0571 16.7661 17.0571H18.9536C19.1712 17.0571 19.3799 17.1435 19.5337 17.2974C19.6875 17.4512 19.774 17.6599 19.774 17.8774C19.774 18.095 19.6875 18.3036 19.5337 18.4575C19.3799 18.6113 19.1712 18.6977 18.9536 18.6977V18.6977Z" fill="#A0DDD8"/>
<path d="M13.4849 18.6977H11.2974C11.0798 18.6977 10.8712 18.6113 10.7173 18.4575C10.5635 18.3036 10.4771 18.095 10.4771 17.8774C10.4771 17.6599 10.5635 17.4512 10.7173 17.2974C10.8712 17.1435 11.0798 17.0571 11.2974 17.0571H13.4849C13.7025 17.0571 13.9111 17.1435 14.0649 17.2974C14.2188 17.4512 14.3052 17.6599 14.3052 17.8774C14.3052 18.095 14.2188 18.3036 14.0649 18.4575C13.9111 18.6113 13.7025 18.6977 13.4849 18.6977V18.6977Z" fill="#A0DDD8"/>
<path d="M8.01614 18.6977H5.82864C5.61108 18.6977 5.40243 18.6113 5.2486 18.4575C5.09476 18.3036 5.00833 18.095 5.00833 17.8774C5.00833 17.6599 5.09476 17.4512 5.2486 17.2974C5.40243 17.1435 5.61108 17.0571 5.82864 17.0571H8.01614C8.2337 17.0571 8.44235 17.1435 8.59619 17.2974C8.75003 17.4512 8.83646 17.6599 8.83646 17.8774C8.83646 18.095 8.75003 18.3036 8.59619 18.4575C8.44235 18.6113 8.2337 18.6977 8.01614 18.6977V18.6977Z" fill="#A0DDD8"/>
<path d="M24.4224 18.6977H22.2349C22.0173 18.6977 21.8087 18.6113 21.6548 18.4575C21.501 18.3036 21.4146 18.095 21.4146 17.8774C21.4146 17.6599 21.501 17.4512 21.6548 17.2974C21.8087 17.1435 22.0173 17.0571 22.2349 17.0571H24.4224C24.64 17.0571 24.8486 17.1435 25.0024 17.2974C25.1563 17.4512 25.2427 17.6599 25.2427 17.8774C25.2427 18.095 25.1563 18.3036 25.0024 18.4575C24.8486 18.6113 24.64 18.6977 24.4224 18.6977V18.6977Z" fill="#A0DDD8"/>
<path d="M18.4068 21.979H16.2193C16.0017 21.979 15.7931 21.8925 15.6392 21.7387C15.4854 21.5849 15.399 21.3762 15.399 21.1587C15.399 20.9411 15.4854 20.7325 15.6392 20.5786C15.7931 20.4248 16.0017 20.3383 16.2193 20.3383H18.4068C18.6243 20.3383 18.833 20.4248 18.9868 20.5786C19.1407 20.7325 19.2271 20.9411 19.2271 21.1587C19.2271 21.3762 19.1407 21.5849 18.9868 21.7387C18.833 21.8925 18.6243 21.979 18.4068 21.979V21.979Z" fill="#A0DDD8"/>
<path d="M12.938 21.979H10.7505C10.533 21.979 10.3243 21.8925 10.1705 21.7387C10.0166 21.5849 9.93021 21.3762 9.93021 21.1587C9.93021 20.9411 10.0166 20.7325 10.1705 20.5786C10.3243 20.4248 10.533 20.3383 10.7505 20.3383H12.938C13.1556 20.3383 13.3642 20.4248 13.5181 20.5786C13.6719 20.7325 13.7583 20.9411 13.7583 21.1587C13.7583 21.3762 13.6719 21.5849 13.5181 21.7387C13.3642 21.8925 13.1556 21.979 12.938 21.979V21.979Z" fill="#A0DDD8"/>
<path d="M7.46927 21.979H5.28177C5.06421 21.979 4.85556 21.8925 4.70172 21.7387C4.54788 21.5849 4.46146 21.3762 4.46146 21.1587C4.46146 20.9411 4.54788 20.7325 4.70172 20.5786C4.85556 20.4248 5.06421 20.3383 5.28177 20.3383H7.46927C7.68683 20.3383 7.89548 20.4248 8.04932 20.5786C8.20316 20.7325 8.28958 20.9411 8.28958 21.1587C8.28958 21.3762 8.20316 21.5849 8.04932 21.7387C7.89548 21.8925 7.68683 21.979 7.46927 21.979V21.979Z" fill="#A0DDD8"/>
<path d="M23.8755 21.979H21.688C21.4705 21.979 21.2618 21.8925 21.108 21.7387C20.9541 21.5849 20.8677 21.3762 20.8677 21.1587C20.8677 20.9411 20.9541 20.7325 21.108 20.5786C21.2618 20.4248 21.4705 20.3383 21.688 20.3383H23.8755C24.0931 20.3383 24.3017 20.4248 24.4556 20.5786C24.6094 20.7325 24.6958 20.9411 24.6958 21.1587C24.6958 21.3762 24.6094 21.5849 24.4556 21.7387C24.3017 21.8925 24.0931 21.979 23.8755 21.979V21.979Z" fill="#A0DDD8"/>
<path d="M26.8833 8.85397C25.9406 8.85397 25.0364 8.47946 24.3698 7.81283C23.7032 7.1462 23.3287 6.24205 23.3287 5.29929C23.3287 4.35652 23.7032 3.45238 24.3698 2.78574C25.0364 2.11911 25.9406 1.7446 26.8833 1.7446C27.1009 1.7446 27.3096 1.83102 27.4634 1.98486C27.6172 2.1387 27.7037 2.34735 27.7037 2.56491C27.7037 2.78247 27.6172 2.99112 27.4634 3.14496C27.3096 3.2988 27.1009 3.38522 26.8833 3.38522C26.3757 3.38522 25.8889 3.58688 25.5299 3.94584C25.1709 4.3048 24.9693 4.79165 24.9693 5.29929C24.9693 5.80693 25.1709 6.29378 25.5299 6.65273C25.8889 7.01169 26.3757 7.21335 26.8833 7.21335C27.1009 7.21335 27.3096 7.29977 27.4634 7.45361C27.6172 7.60745 27.7037 7.8161 27.7037 8.03366C27.7037 8.25122 27.6172 8.45987 27.4634 8.61371C27.3096 8.76755 27.1009 8.85397 26.8833 8.85397V8.85397Z" fill="#9595AC"/>
<path d="M18.6802 8.85397C17.7374 8.85397 16.8333 8.47946 16.1667 7.81283C15.5 7.1462 15.1255 6.24205 15.1255 5.29929C15.1255 4.35652 15.5 3.45238 16.1667 2.78574C16.8333 2.11911 17.7374 1.7446 18.6802 1.7446C18.8978 1.7446 19.1064 1.83102 19.2603 1.98486C19.4141 2.1387 19.5005 2.34735 19.5005 2.56491C19.5005 2.78247 19.4141 2.99112 19.2603 3.14496C19.1064 3.2988 18.8978 3.38522 18.6802 3.38522C18.1726 3.38522 17.6857 3.58688 17.3268 3.94584C16.9678 4.3048 16.7661 4.79165 16.7661 5.29929C16.7661 5.80693 16.9678 6.29378 17.3268 6.65273C17.6857 7.01169 18.1726 7.21335 18.6802 7.21335C18.8978 7.21335 19.1064 7.29977 19.2603 7.45361C19.4141 7.60745 19.5005 7.8161 19.5005 8.03366C19.5005 8.25122 19.4141 8.45987 19.2603 8.61371C19.1064 8.76755 18.8978 8.85397 18.6802 8.85397Z" fill="#9595AC"/>
<path d="M10.4771 8.85397C9.53434 8.85397 8.63019 8.47946 7.96355 7.81283C7.29692 7.1462 6.92241 6.24205 6.92241 5.29929C6.92241 4.35652 7.29692 3.45238 7.96355 2.78574C8.63019 2.11911 9.53434 1.7446 10.4771 1.7446C10.6947 1.7446 10.9033 1.83102 11.0571 1.98486C11.211 2.1387 11.2974 2.34735 11.2974 2.56491C11.2974 2.78247 11.211 2.99112 11.0571 3.14496C10.9033 3.2988 10.6947 3.38522 10.4771 3.38522C9.96946 3.38522 9.48261 3.58688 9.12365 3.94584C8.76469 4.3048 8.56303 4.79165 8.56303 5.29929C8.56303 5.80693 8.76469 6.29378 9.12365 6.65273C9.48261 7.01169 9.96946 7.21335 10.4771 7.21335C10.6947 7.21335 10.9033 7.29977 11.0571 7.45361C11.211 7.60745 11.2974 7.8161 11.2974 8.03366C11.2974 8.25122 11.211 8.45987 11.0571 8.61371C10.9033 8.76755 10.6947 8.85397 10.4771 8.85397Z" fill="#9595AC"/>
<path d="M27.4121 33.7131C31.0365 33.7131 33.9746 30.7749 33.9746 27.1506C33.9746 23.5262 31.0365 20.5881 27.4121 20.5881C23.7877 20.5881 20.8496 23.5262 20.8496 27.1506C20.8496 30.7749 23.7877 33.7131 27.4121 33.7131Z" fill="url(#paint4_linear)"/>
<path d="M27.4121 19.7677C25.9519 19.7677 24.5245 20.2007 23.3104 21.012C22.0963 21.8232 21.15 22.9762 20.5913 24.3253C20.0325 25.6743 19.8863 27.1587 20.1711 28.5909C20.456 30.023 21.1591 31.3385 22.1916 32.371C23.2242 33.4035 24.5396 34.1066 25.9718 34.3915C27.4039 34.6764 28.8883 34.5302 30.2374 33.9714C31.5864 33.4126 32.7394 32.4663 33.5507 31.2522C34.3619 30.0381 34.7949 28.6107 34.7949 27.1506C34.7927 25.1932 34.0142 23.3166 32.6301 21.9326C31.246 20.5485 29.3695 19.77 27.4121 19.7677V19.7677ZM28.2324 32.833V32.0724C28.2324 31.8549 28.146 31.6462 27.9921 31.4924C27.8383 31.3385 27.6296 31.2521 27.4121 31.2521C27.1945 31.2521 26.9859 31.3385 26.832 31.4924C26.6782 31.6462 26.5918 31.8549 26.5918 32.0724V32.833C25.3658 32.654 24.2304 32.0841 23.3544 31.2081C22.4783 30.332 21.9084 29.1966 21.7294 27.9707H22.4902C22.7078 27.9707 22.9164 27.8842 23.0703 27.7304C23.2241 27.5766 23.3105 27.3679 23.3105 27.1503C23.3105 26.9328 23.2241 26.7241 23.0703 26.5703C22.9164 26.4165 22.7078 26.33 22.4902 26.33H21.7294C21.9084 25.1041 22.4783 23.9688 23.3544 23.0927C24.2305 22.2167 25.3659 21.6469 26.5918 21.4679V22.2287C26.5918 22.4462 26.6782 22.6549 26.832 22.8087C26.9859 22.9626 27.1945 23.049 27.4121 23.049C27.6296 23.049 27.8383 22.9626 27.9921 22.8087C28.146 22.6549 28.2324 22.4462 28.2324 22.2287V21.4679C29.4583 21.6469 30.5938 22.2168 31.4698 23.0928C32.3459 23.9689 32.9158 25.1043 33.0947 26.3302H32.334C32.1164 26.3302 31.9078 26.4167 31.7539 26.5705C31.6001 26.7243 31.5136 26.933 31.5136 27.1506C31.5136 27.3681 31.6001 27.5768 31.7539 27.7306C31.9078 27.8844 32.1164 27.9709 32.334 27.9709H33.0947C32.9157 29.1968 32.3458 30.3321 31.4698 31.2082C30.5937 32.0842 29.4583 32.654 28.2324 32.833Z" fill="#FDECBF"/>
<path d="M27.4121 27.9709C27.2849 27.9709 27.1593 27.9412 27.0456 27.8843L24.8581 26.7905C24.6635 26.6932 24.5155 26.5226 24.4467 26.3162C24.3779 26.1098 24.3939 25.8846 24.4911 25.69C24.5884 25.4954 24.759 25.3474 24.9654 25.2786C25.1718 25.2098 25.3971 25.2258 25.5917 25.323L27.2504 26.1524L29.0199 24.383C29.1738 24.2298 29.3823 24.144 29.5994 24.1443C29.8166 24.1446 30.0248 24.231 30.1784 24.3846C30.3319 24.5381 30.4183 24.7463 30.4186 24.9635C30.4189 25.1807 30.3331 25.3891 30.1799 25.5431L27.9924 27.7306C27.9162 27.8068 27.8257 27.8672 27.7262 27.9085C27.6266 27.9497 27.5199 27.9709 27.4121 27.9709V27.9709Z" fill="#83839E"/>
<defs>
<linearGradient id="paint0_linear" x1="25.8931" y1="23.7895" x2="39.3579" y2="10.3247" gradientUnits="userSpaceOnUse">
<stop offset="0.015" stop-color="#A6A6B9"/>
<stop offset="1" stop-color="#CACAD5"/>
</linearGradient>
<linearGradient id="paint1_linear" x1="5.93215" y1="29.5317" x2="30.8813" y2="4.58255" gradientUnits="userSpaceOnUse">
<stop offset="0.015" stop-color="#CACAD5"/>
<stop offset="1" stop-color="#DCDCE3"/>
</linearGradient>
<linearGradient id="paint2_linear" x1="3.60793" y1="27.7544" x2="28.8306" y2="2.53175" gradientUnits="userSpaceOnUse">
<stop offset="0.015" stop-color="#BFE8E5"/>
<stop offset="1" stop-color="#DFF4F2"/>
</linearGradient>
<linearGradient id="paint3_linear" x1="1.04315" y1="25.1896" x2="26.2658" y2="-0.0330201" gradientUnits="userSpaceOnUse">
<stop offset="0.011" stop-color="#60C6BE"/>
<stop offset="1" stop-color="#80D1CB"/>
</linearGradient>
<linearGradient id="paint4_linear" x1="22.7717" y1="31.7909" x2="32.0525" y2="22.5102" gradientUnits="userSpaceOnUse">
<stop offset="0.011" stop-color="#F8C73F"/>
<stop offset="1" stop-color="#FADA7F"/>
</linearGradient>
</defs>
</svg>
