<svg width="45" height="45" viewBox="0 0 35 35" fill="none" xmlns="http://www.w3.org/2000/svg">
<path d="M16.6416 15.0664H3.98851C2.85627 15.0664 1.93848 14.1008 1.93848 12.9096V3.97852C1.93848 1.78124 3.63147 0 5.71998 0H12.4222C13.3992 0 14.2608 0.650713 14.5813 1.60645C14.6121 1.69818 14.7222 1.73428 14.7991 1.67556L15.533 1.11508C16.3615 0.482412 17.5111 0.614277 18.1904 1.42003C18.5134 1.80305 18.6917 2.29729 18.6917 2.8093V12.9097C18.6917 14.1008 17.7739 15.0664 16.6416 15.0664V15.0664Z" fill="#365E7D"/>
<path d="M18.1904 1.42003C17.6313 0.756879 16.7538 0.550707 15.9988 0.85101C16.2923 0.967358 16.5634 1.15774 16.7846 1.42003C17.1075 1.80305 17.2858 2.29729 17.2858 2.8093V12.9096C17.2858 14.1008 16.368 15.0664 15.2358 15.0664H16.6416C17.7739 15.0664 18.6917 14.1008 18.6917 12.9096V2.80923C18.6917 2.29729 18.5134 1.80305 18.1904 1.42003Z" fill="#2B4D66"/>
<path d="M20.1134 35H0.516729C0.231328 35 0 34.7687 0 34.4833V24.5811C0 20.7992 3.06592 17.7333 6.84783 17.7333H13.7822C17.5642 17.7333 20.6301 20.7992 20.6301 24.5811V34.4833C20.6301 34.7687 20.3988 35 20.1134 35Z" fill="#DD636E"/>
<path d="M13.7823 17.7332H11.8438C15.6258 17.7332 18.6917 20.7992 18.6917 24.5811V35H20.1134C20.3988 35 20.6301 34.7687 20.6301 34.4833V24.5811C20.6301 20.7992 17.5643 17.7332 13.7823 17.7332V17.7332Z" fill="#DA4A54"/>
<path d="M10.3151 23.5383L7.72305 24.9976C7.43539 25.1595 7.07247 25.0043 6.99092 24.6844L5.21774 17.7332L6.71598 16.2671L7.72995 19.0607L10.3151 23.5383Z" fill="#F6F1F1"/>
<path d="M10.3151 23.5383L12.9071 24.9976C13.1948 25.1595 13.5577 25.0043 13.6393 24.6844L15.4124 17.7332L13.9142 16.2671L12.9002 19.0607L10.3151 23.5383Z" fill="#F6F1F1"/>
<path d="M10.3151 23.5383L12.9002 19.0607H7.72995L10.3151 23.5383Z" fill="#E2A770"/>
<path d="M10.3151 20.1035C6.63291 20.1035 3.64786 17.1185 3.64786 13.4362V7.66309C3.64786 7.18745 3.77672 6.74632 3.99929 6.36932C4.69307 5.19409 6.27853 4.92954 7.36257 5.75867C9.35197 7.28021 11.5255 7.77021 13.9301 6.9661C15.3693 6.48485 16.9116 7.47073 16.9796 8.98667C16.9813 9.02502 16.9822 9.06357 16.9822 9.10226V13.4363C16.9822 17.1185 13.9973 20.1035 10.3151 20.1035V20.1035Z" fill="#F1D0A5"/>
<path d="M16.9797 8.98658C16.9116 7.47065 15.3693 6.48477 13.9301 6.96602C13.9176 6.97019 13.9053 6.97381 13.8927 6.97791C14.7247 7.27124 15.3664 8.02101 15.4098 8.98658C15.4115 9.02493 15.4124 9.06349 15.4124 9.10218V13.4362C15.4124 16.8528 12.8423 19.6687 9.53012 20.0572C9.78763 20.0874 10.0494 20.1034 10.315 20.1034C13.9972 20.1034 16.9822 17.1184 16.9822 13.4362V9.10211C16.9822 9.06349 16.9814 9.02493 16.9797 8.98658V8.98658Z" fill="#F1B986"/>
<path d="M7.25718 11.863C6.96542 11.863 6.72903 11.6265 6.72903 11.3348V10.5993C6.72903 10.3076 6.96549 10.0712 7.25718 10.0712C7.54894 10.0712 7.78532 10.3076 7.78532 10.5993V11.3348C7.78532 11.6265 7.54887 11.863 7.25718 11.863Z" fill="#2B4D66"/>
<path d="M13.373 11.863C13.0813 11.863 12.8449 11.6265 12.8449 11.3348V10.5993C12.8449 10.3076 13.0813 10.0712 13.373 10.0712C13.6647 10.0712 13.9012 10.3076 13.9012 10.5993V11.3348C13.9012 11.6265 13.6648 11.863 13.373 11.863Z" fill="#2B4D66"/>
<path d="M10.3151 16.9574C9.82987 16.9574 9.34499 16.8115 8.87331 16.5196C8.62524 16.3661 8.54861 16.0405 8.70221 15.7925C8.85575 15.5444 9.18141 15.4679 9.42928 15.6214C10.0335 15.9954 10.5964 15.9955 11.2008 15.6214C11.4488 15.4678 11.7743 15.5444 11.9279 15.7925C12.0814 16.0406 12.0049 16.366 11.7568 16.5196C11.2852 16.8114 10.8 16.9574 10.3151 16.9574Z" fill="#DD636E"/>
<path d="M3.64785 12.8142H2.57884C1.83721 12.8142 1.23599 12.213 1.23599 11.4713C1.23599 10.7297 1.83721 10.1285 2.57884 10.1285H3.64785V12.8142Z" fill="#E2A770"/>
<path d="M16.9822 12.8142H18.0512C18.7929 12.8142 19.3941 12.213 19.3941 11.4713C19.3941 10.7297 18.7929 10.1285 18.0512 10.1285H16.9822V12.8142Z" fill="#E2A770"/>
<path d="M17.4372 27.7095H14.3796C14.0879 27.7095 13.8515 27.4731 13.8515 27.1814C13.8515 26.8897 14.0879 26.6533 14.3796 26.6533H17.4372C17.729 26.6533 17.9653 26.8897 17.9653 27.1814C17.9653 27.4731 17.729 27.7095 17.4372 27.7095V27.7095Z" fill="#F6F1F1"/>
<path d="M35 0.836104C35 0.374336 34.6257 0 34.1639 0H32.02H29.9082H22.7127C22.251 0 21.8766 0.374336 21.8766 0.836104V6.52497C21.8766 6.6297 21.8208 6.72649 21.7301 6.77886L20.7343 7.35376C20.5885 7.43791 20.5885 7.64825 20.7343 7.7324L21.7301 8.3073C21.8208 8.35967 21.8766 8.45646 21.8766 8.56119V9.91628C21.8766 10.378 22.251 10.7524 22.7127 10.7524H34.164C34.6257 10.7524 35.0001 10.378 35.0001 9.91628V0.836104H35Z" fill="#DD636E"/>
<path d="M34.1639 0H32.7595C33.2212 0 33.5956 0.374336 33.5956 0.836104V9.91628C33.5956 10.378 33.2212 10.7524 32.7595 10.7524H34.1639C34.6257 10.7524 35 10.378 35 9.91628V0.836104C35 0.374336 34.6257 0 34.1639 0V0Z" fill="#DA4A54"/>
<path d="M28.5687 3.41516C28.5944 3.44736 28.6429 3.44736 28.6686 3.41516C28.8237 3.22082 29.3398 2.67046 30.2097 2.67046C31.1516 2.67046 31.8008 3.50376 31.8008 4.47426C31.8008 5.57231 30.9552 6.86704 28.7714 8.00372C28.6759 8.05335 28.5614 8.05335 28.466 8.00372C26.2821 6.86704 25.4366 5.57231 25.4366 4.47426C25.4366 3.50376 26.0857 2.67046 27.0276 2.67046C27.8975 2.67046 28.4136 3.22082 28.5687 3.41516V3.41516Z" fill="#F6F1F1"/>
<path d="M30.2097 2.67046C29.9318 2.67046 29.6905 2.72685 29.485 2.80964C30.0729 3.08581 30.4439 3.74069 30.4439 4.47426C30.4439 5.47927 29.7347 6.64897 27.9402 7.71148C28.1242 7.82045 28.3189 7.92832 28.5259 8.03469C28.5838 8.06442 28.6536 8.06435 28.7115 8.03462C30.9398 6.89055 31.8007 5.58229 31.8007 4.47419C31.8008 3.50376 31.1516 2.67046 30.2097 2.67046V2.67046Z" fill="#DAE4EA"/>
<path d="M10.3151 27.7588C10.0233 27.7588 9.78696 27.5224 9.78696 27.2307V26.5709C9.78696 26.2791 10.0234 26.0427 10.3151 26.0427C10.6068 26.0427 10.8432 26.2792 10.8432 26.5709V27.2307C10.8432 27.5224 10.6069 27.7588 10.3151 27.7588Z" fill="#F6F1F1"/>
<path d="M10.3151 30.79C10.0233 30.79 9.78696 30.5535 9.78696 30.2618V29.602C9.78696 29.3103 10.0234 29.0739 10.3151 29.0739C10.6068 29.0739 10.8432 29.3104 10.8432 29.602V30.2618C10.8432 30.5535 10.6069 30.79 10.3151 30.79Z" fill="#F6F1F1"/>
<path d="M10.3151 33.8213C10.0233 33.8213 9.78696 33.5848 9.78696 33.2931V32.6332C9.78696 32.3415 10.0234 32.1051 10.3151 32.1051C10.6068 32.1051 10.8432 32.3416 10.8432 32.6332V33.2931C10.8432 33.5848 10.6069 33.8213 10.3151 33.8213Z" fill="#F6F1F1"/>
</svg>
