<svg width="45" height="45" viewBox="0 0 36 35" fill="none" xmlns="http://www.w3.org/2000/svg">
<g clip-path="url(#clip0)">
<path d="M35.4268 18.6044V20.4152C35.4268 20.4152 34.8421 21.4328 34.4556 21.5914H27.4452L26.9302 21.4328L26.7043 21.9415H9.20945L9.16293 21.9251L8.3733 21.6549L2.42392 22.4175C2.42392 22.4175 2.23565 22.4087 1.96542 22.3737C1.20791 22.2764 -0.19084 21.9733 0.140296 21.0827C0.140296 21.0827 -0.175336 19.3944 0.140296 18.4141C0.140296 18.4141 0.236647 17.0475 1.42608 16.5704C2.61662 16.0945 6.1218 15.1721 8.05103 14.8877C8.05103 14.8877 9.75544 14.3789 10.4952 13.7115C10.4952 13.7115 12.1642 12.4795 14.2252 11.5866C15.336 11.1063 16.5244 10.8229 17.7315 10.7113C20.0672 10.4947 25.1439 10.161 28.3755 10.9466C31.1209 11.6151 32.9405 13.1469 33.8985 14.171C34.4246 14.7334 34.7114 15.4675 34.7114 16.2334V16.9206L34.9362 17.7149C34.9373 17.7149 35.4268 18.0639 35.4268 18.6044Z" fill="#E14B4B"/>
<path d="M9.17733 21.6024C9.17733 21.7107 9.1729 21.819 9.16293 21.9251L8.3733 21.6549L2.42392 22.4175C2.42392 22.4175 2.23565 22.4087 1.96542 22.3737C1.91005 22.1254 1.88126 21.8671 1.88126 21.6024C1.88126 19.6121 3.51479 17.9983 5.52929 17.9983C7.5438 17.9983 9.17733 19.6121 9.17733 21.6024Z" fill="#2E3235"/>
<path d="M5.52929 24.5478C7.17584 24.5478 8.51063 23.2291 8.51063 21.6024C8.51063 19.9757 7.17584 18.657 5.52929 18.657C3.88275 18.657 2.54796 19.9757 2.54796 21.6024C2.54796 23.2291 3.88275 24.5478 5.52929 24.5478Z" fill="#3E4347"/>
<path d="M26.8605 21.5892L26.9302 21.4317L27.4452 21.5903H34.1554C34.1488 19.6056 32.5186 17.9983 30.5085 17.9983C28.4973 17.9983 26.8671 19.6056 26.8605 21.5892Z" fill="#2E3235"/>
<path d="M30.5074 24.5478C32.1539 24.5478 33.4887 23.2291 33.4887 21.6024C33.4887 19.9757 32.1539 18.657 30.5074 18.657C28.8609 18.657 27.5261 19.9757 27.5261 21.6024C27.5261 23.2291 28.8609 24.5478 30.5074 24.5478Z" fill="#3E4347"/>
<path d="M19.9 11.3963C19.2809 11.417 18.8888 11.4378 18.8811 11.4389L18.8589 11.44H18.8368C18.7748 11.4378 18.7127 11.4378 18.6507 11.4378C15.9474 11.4378 13.254 13.0243 11.8884 13.9697C11.2716 14.3964 10.7865 14.9971 10.5052 15.6754L19.1203 14.996L19.9 11.3963Z" fill="#3E4347"/>
<path d="M27.948 11.9291C27.0919 11.5593 25.0531 11.3558 22.198 11.3558C21.8635 11.3558 21.539 11.3591 21.2334 11.3634L20.9233 14.8526L29.4608 14.1797C29.4885 14.0222 29.5118 13.8723 29.5284 13.7355L29.5295 13.7246L29.5317 13.7136C29.6214 13.1972 28.649 12.3514 27.948 11.9291Z" fill="#3E4347"/>
<path d="M0.762709 17.8801C0.762709 17.8801 1.94882 16.5157 3.2778 16.6186C3.60118 16.6437 4.56801 17.0715 3.0563 17.8801C2.58341 18.1328 1.65312 18.2816 0.945443 18.2926C0.371768 18.3002 0.762709 17.8801 0.762709 17.8801Z" fill="#FFD83B"/>
<path d="M34.7125 16.9205V16.2334C34.7125 15.9369 34.6571 15.6492 34.5741 15.3702C34.0956 15.3111 33.4965 15.2815 33.3016 15.4741C33.0424 15.7301 33.0424 16.6667 33.3016 16.9227C33.5186 17.1372 34.2429 17.077 34.7358 17.0059L34.7125 16.9205Z" fill="#FFD83B"/>
<path d="M5.52931 23.5685C6.62844 23.5685 7.51945 22.6883 7.51945 21.6024C7.51945 20.5165 6.62844 19.6362 5.52931 19.6362C4.43019 19.6362 3.53917 20.5165 3.53917 21.6024C3.53917 22.6883 4.43019 23.5685 5.52931 23.5685Z" fill="#CBD6E0"/>
<path d="M5.5293 23.2064C6.42597 23.2064 7.15286 22.4882 7.15286 21.6024C7.15286 20.7165 6.42597 19.9984 5.5293 19.9984C4.63263 19.9984 3.90573 20.7165 3.90573 21.6024C3.90573 22.4882 4.63263 23.2064 5.5293 23.2064Z" fill="#939799"/>
<path d="M5.52929 22.7567C6.17458 22.7567 6.69768 22.2399 6.69768 21.6024C6.69768 20.9649 6.17458 20.4481 5.52929 20.4481C4.88401 20.4481 4.3609 20.9649 4.3609 21.6024C4.3609 22.2399 4.88401 22.7567 5.52929 22.7567Z" fill="#CBD6E0"/>
<path d="M30.5074 23.5685C31.6065 23.5685 32.4975 22.6883 32.4975 21.6024C32.4975 20.5165 31.6065 19.6362 30.5074 19.6362C29.4083 19.6362 28.5172 20.5165 28.5172 21.6024C28.5172 22.6883 29.4083 23.5685 30.5074 23.5685Z" fill="#CBD6E0"/>
<path d="M30.5074 23.2064C31.4041 23.2064 32.1309 22.4882 32.1309 21.6024C32.1309 20.7165 31.4041 19.9984 30.5074 19.9984C29.6107 19.9984 28.8838 20.7165 28.8838 21.6024C28.8838 22.4882 29.6107 23.2064 30.5074 23.2064Z" fill="#939799"/>
<path d="M30.5074 22.7567C31.1527 22.7567 31.6758 22.2399 31.6758 21.6024C31.6758 20.9648 31.1527 20.448 30.5074 20.448C29.8621 20.448 29.339 20.9648 29.339 21.6024C29.339 22.2399 29.8621 22.7567 30.5074 22.7567Z" fill="#CBD6E0"/>
<path d="M12.5197 15.5157L14.3327 15.3723L16.613 11.7092C15.82 11.9105 15.068 12.207 14.3759 12.5341L12.5197 15.5157Z" fill="#5A5F63"/>
<path d="M14.9717 15.322L15.9174 15.2476L18.2731 11.463C17.9486 11.4805 17.6263 11.5155 17.3062 11.5713L14.9717 15.322Z" fill="#5A5F63"/>
<path d="M21.4161 14.8143L23.2291 14.671L25.2303 11.4553C24.7253 11.4181 24.1649 11.3908 23.5558 11.3755L21.4161 14.8143Z" fill="#5A5F63"/>
<path d="M23.8669 14.6207L24.8127 14.5463L26.6412 11.6085C26.3865 11.5691 26.1129 11.533 25.8072 11.5035L23.8669 14.6207Z" fill="#5A5F63"/>
</g>
<defs>
<clipPath id="clip0">
<rect width="35.4268" height="35" fill="white"/>
</clipPath>
</defs>
</svg>
