<svg width="45" height="45" viewBox="0 0 35 35" fill="none" xmlns="http://www.w3.org/2000/svg">
<g clip-path="url(#clip0)">
<path d="M22.1767 21.5833V23.9167H22.76H27.4267H28.01V21.5833H26.26H23.9267H22.1767Z" fill="#E69C5A"/>
<path d="M25.8517 19.1917C25.5601 19.25 25.3267 19.25 25.0934 19.25C24.8017 19.25 24.5101 19.25 24.2184 19.1917C24.1601 19.1917 24.1017 19.1917 23.9851 19.1917C23.9268 19.1917 23.9268 19.1917 23.8684 19.1917V21.5834H26.2017V19.1917C26.1434 19.1917 25.9684 19.1917 25.8517 19.1917Z" fill="#FFDECC"/>
<path d="M22.76 32.0833C22.76 33.3666 23.81 34.4166 25.0934 34.4166C26.3767 34.4166 27.4267 33.3666 27.4267 32.0833V23.9167H22.76V32.0833H22.76Z" fill="#E69C5A"/>
<path d="M15.9351 11.6667H15.7601C13.8351 11.6667 12.2601 10.0917 12.2601 8.1667L11.9101 8.22501C11.5017 8.28332 11.1517 8.40001 10.7434 8.5167C10.5684 8.57501 10.3934 8.63339 10.2184 8.6917C10.0434 8.75001 9.81006 8.80839 9.63506 8.8667C9.40175 8.92501 9.16837 9.0417 8.93506 9.10001C8.81837 9.15832 8.64337 9.2167 8.52675 9.27501C8.23506 9.3917 8.00175 9.50833 7.76843 9.5667C7.65175 9.62501 7.59343 9.62502 7.47675 9.68339C7.18506 9.80008 6.89343 9.9167 6.60174 10.0917C6.54343 10.0917 6.48506 10.15 6.42675 10.15C6.13506 10.325 5.84343 10.4417 5.49343 10.6167L5.37674 10.675C5.08506 10.85 4.73506 11.025 4.44343 11.2H4.38512C4.03512 11.375 3.74343 11.6083 3.45181 11.7833C3.51012 14.35 4.6185 16.7416 6.60181 18.375C6.7185 18.4917 6.83512 18.55 6.95181 18.6667C7.0685 18.725 7.18512 18.8417 7.30181 18.9L7.36012 18.9583C7.47681 19.0166 7.59343 19.075 7.71012 19.1333L7.82681 19.1916C7.9435 19.25 8.06012 19.3083 8.17681 19.3666C8.23512 19.3666 8.23512 19.425 8.2935 19.425C8.41019 19.4833 8.52681 19.4833 8.6435 19.5416L8.76019 19.6C8.87688 19.6583 8.9935 19.6583 9.11019 19.7166C9.1685 19.7166 9.1685 19.7166 9.22688 19.7166C9.34357 19.7166 9.46019 19.775 9.57688 19.775H9.63519C10.2185 19.8333 10.8019 19.8333 11.3852 19.775H11.4435C11.5602 19.775 11.6768 19.7166 11.7935 19.7166C11.8518 19.7166 11.8518 19.7166 11.9102 19.7166C12.0269 19.7166 12.1435 19.6583 12.2602 19.6L12.3769 19.5416C12.4936 19.4833 12.6102 19.4833 12.7269 19.425C12.7852 19.425 12.7852 19.3666 12.8436 19.3666C12.9603 19.3083 13.0769 19.25 13.1936 19.1916L13.3103 19.1333C13.427 19.075 13.5436 19.0166 13.6603 18.9583L13.7186 18.9C13.8353 18.8417 13.9519 18.7833 14.0686 18.6667C14.1853 18.55 14.3019 18.4917 14.4186 18.375C15.6436 17.3833 16.5769 16.0417 17.0436 14.525C16.5184 13.7083 16.1101 12.7167 15.9351 11.6667Z" fill="#FFDECC"/>
<path d="M23.9268 19.1917C24.0435 19.1917 24.2184 19.25 24.3351 19.25C24.5684 19.25 24.8018 19.3083 25.0934 19.3083C25.385 19.3083 25.5601 19.3083 25.8517 19.25C25.9684 19.25 26.1434 19.25 26.26 19.1917C31.3933 18.55 35.01 13.8834 34.3683 8.75001C33.7268 3.6167 29.0601 1.22918e-05 23.9268 0.641702C20.6018 1.05001 17.7435 3.2667 16.4601 6.35839C16.2268 6.88339 16.0518 7.4667 15.9351 8.05008C15.9351 8.10839 15.9351 8.16677 15.9351 8.16677C15.8768 8.40008 15.8184 8.69177 15.8184 8.92508C15.8184 9.21677 15.7601 9.56677 15.7601 9.85839C15.7601 10.1501 15.7601 10.4417 15.8184 10.7334C15.8767 11.0251 15.8767 11.3167 15.9351 11.6084C16.2268 13.0084 16.8101 14.3501 17.6851 15.4584L17.7434 15.5167C17.8601 15.6917 17.9767 15.8084 18.0934 15.925L18.1517 15.9833C18.385 16.2166 18.6184 16.45 18.8517 16.6833C18.91 16.7416 18.9684 16.8 19.0267 16.8583C19.1434 16.975 19.26 17.0333 19.3767 17.15C19.435 17.2083 19.5517 17.2667 19.6684 17.325C19.8434 17.4417 20.0184 17.5583 20.1934 17.675C20.3101 17.7333 20.4267 17.85 20.5434 17.9083C20.6601 17.9666 20.7767 18.025 20.8351 18.0833C21.0101 18.2 21.1851 18.2583 21.3601 18.3166C21.4768 18.3749 21.5351 18.3749 21.6518 18.4333C21.8268 18.4916 22.0601 18.6083 22.2351 18.6666C22.2934 18.6666 22.4101 18.7249 22.4684 18.7249C22.7017 18.7833 22.9351 18.8416 23.2267 18.8999H23.285C23.4601 19.1333 23.6935 19.1333 23.9268 19.1917ZM18.0934 9.9167C18.0934 6.0667 21.2434 2.9167 25.0934 2.9167C28.9434 2.9167 32.0934 6.0667 32.0934 9.9167C32.0934 13.7667 28.9434 16.9167 25.0934 16.9167C21.2434 16.9167 18.0934 13.7667 18.0934 9.9167Z" fill="#FFDECC"/>
<path d="M25.0934 16.9167C28.9434 16.9167 32.0934 13.7667 32.0934 9.9167C32.0934 6.0667 28.9434 2.9167 25.0934 2.9167C21.2434 2.9167 18.0934 6.0667 18.0934 9.9167C18.0934 13.7667 21.2434 16.9167 25.0934 16.9167Z" fill="#98CDF4"/>
<path d="M10.5101 24.5L7.01007 22.75V25.6667L10.5101 24.5Z" fill="#98CDF4"/>
<path d="M14.0101 22.75L10.5101 24.5L14.0101 25.6667V22.75Z" fill="#98CDF4"/>
<path d="M14.0101 25.6667V34.4167H20.4268L19.2601 23.3333L14.0101 21.5833V22.75V25.6667Z" fill="#98CDF4"/>
<path d="M7.01007 22.75V21.5833L1.76007 23.3333L0.593445 34.4167H7.01007V25.6667V22.75Z" fill="#98CDF4"/>
<path d="M13.6017 18.9583C13.485 19.0166 13.3684 19.075 13.2517 19.1333L13.135 19.1916C13.0183 19.2499 12.9017 19.3083 12.785 19.3666C12.7267 19.3666 12.7267 19.4249 12.6683 19.4249C12.5517 19.4832 12.435 19.4832 12.3183 19.5416C12.26 19.5416 12.26 19.5416 12.2017 19.5999C12.085 19.6582 11.9683 19.6582 11.8517 19.7166C11.7933 19.7166 11.7933 19.7166 11.735 19.7166C11.6183 19.7166 11.5017 19.7749 11.385 19.7749H11.3267C10.7433 19.8332 10.16 19.8332 9.57666 19.7749H9.51835C9.40166 19.7749 9.28504 19.7166 9.16835 19.7166C9.11004 19.7166 9.11004 19.7166 9.05166 19.7166C8.93497 19.7166 8.81835 19.6583 8.70166 19.5999C8.64335 19.5999 8.64335 19.5999 8.58497 19.5416C8.46828 19.4833 8.35166 19.4833 8.23497 19.4249C8.17666 19.4249 8.17666 19.3666 8.11828 19.3666C8.00159 19.3083 7.88497 19.2499 7.76828 19.1916L7.65159 19.1333C7.5349 19.075 7.41828 19.0166 7.30159 18.9583L7.24328 18.9C7.12659 18.8417 7.00997 18.7833 6.89328 18.6667V22.75L10.3933 24.5L13.8933 22.75V18.725C13.7766 18.7833 13.66 18.9 13.5433 18.9583H13.6017Z" fill="#FFDECC"/>
<path d="M5.43504 10.675L5.55173 10.6167C5.84342 10.4417 6.13504 10.325 6.48504 10.15C6.54335 10.15 6.60173 10.0917 6.66004 10.0917C6.95173 9.97501 7.24335 9.80001 7.53504 9.68339C7.65173 9.62508 7.71004 9.62508 7.82673 9.5667C8.06004 9.45001 8.35173 9.33339 8.58504 9.27501C8.70173 9.2167 8.87673 9.15832 8.99335 9.10001C9.22666 9.0417 9.46004 8.92501 9.69335 8.8667C9.86835 8.80839 10.1017 8.75001 10.2767 8.6917C10.4517 8.63339 10.6267 8.57501 10.8017 8.5167C11.21 8.40001 11.56 8.3417 11.9684 8.22501L12.26 8.1667C12.26 10.0917 13.835 11.6667 15.76 11.6667H15.935C15.8767 11.375 15.8184 11.0834 15.8184 10.7917C15.8184 10.5 15.76 10.2084 15.76 9.9167C15.76 9.62501 15.76 9.27501 15.8184 8.98339C15.8184 8.75008 15.8767 8.45839 15.935 8.22508C15.935 8.16677 15.935 8.10839 15.935 8.10839C16.0517 7.52508 16.2267 6.9417 16.46 6.4167C13.8934 3.0917 9.11004 2.50839 5.84335 5.13339C3.97673 6.53332 2.92673 8.75001 2.92673 11.0833V12.25C3.45173 11.9 3.91842 11.55 4.44342 11.2583H4.50173C4.79342 11.025 5.14342 10.85 5.43504 10.675Z" fill="#E69C5A"/>
<path d="M10.51 24.5L12.26 30.9167L10.51 34.4167H14.01V25.6667L10.51 24.5Z" fill="#98CDF4"/>
<path d="M10.51 24.5L7.01004 25.6667V34.4167H10.51L8.76004 30.9167L10.51 24.5Z" fill="#98CDF4"/>
<path d="M10.51 24.5L8.76004 30.9167L10.51 34.4167L12.26 30.9167L10.51 24.5Z" fill="#98CDF4"/>
<path d="M25.0946 0C21.4196 0 18.0363 2.04169 16.2863 5.36669C13.1362 2.15831 7.94457 2.1 4.79457 5.25C3.21957 6.825 2.34457 8.925 2.34457 11.0833V12.25C2.34457 12.6 2.57788 12.8333 2.92788 12.8333H2.98619C3.27788 15.225 4.4445 17.3833 6.25288 18.9C6.31119 18.9583 6.36957 18.9583 6.42788 19.0167V21.175L1.58619 22.8083C1.35288 22.8666 1.17788 23.0416 1.17788 23.275L0.011186 34.3583C-0.0471246 34.65 0.186186 34.9416 0.536186 35H0.594497H20.4278C20.7778 35 21.0111 34.7667 21.0111 34.4167V34.3584L19.8446 23.275C19.8446 23.0417 19.6696 22.8667 19.4363 22.8083L14.5946 21.175V19.0167C14.6529 18.9584 14.7113 18.9584 14.7696 18.9C15.7613 18.0833 16.5779 17.0333 17.1613 15.8083C18.6779 17.85 20.8946 19.1916 23.3446 19.6583V21H22.1779C21.8279 21 21.5946 21.2333 21.5946 21.5833V23.9166C21.5946 24.2666 21.8279 24.4999 22.1779 24.4999V32.0832C22.1779 33.7166 23.4612 34.9999 25.0946 34.9999C26.7279 34.9999 28.0113 33.7166 28.0113 32.0832V24.5C28.3613 24.5 28.5946 24.2667 28.5946 23.9167V21.5834C28.5946 21.2334 28.3613 21.0001 28.0113 21.0001H26.8446V19.6584C32.2113 18.6667 35.8279 13.5334 34.8363 8.16669C34.0196 3.44169 29.8779 0 25.0946 0ZM3.51119 11.0833C3.51119 7.23331 6.60288 4.08331 10.5112 4.08331C12.5529 4.08331 14.4779 4.95831 15.8195 6.53331C15.2945 7.99162 15.1195 9.50831 15.2945 11.025C13.8362 10.7917 12.8445 9.56669 12.8445 8.16669C12.8445 7.81669 12.6112 7.58338 12.2612 7.58338C12.2029 7.58338 12.2029 7.58338 12.1445 7.58338L11.7945 7.64169C8.87781 8.28338 6.0195 9.45 3.51119 11.1417C3.51119 11.1417 3.51119 11.0833 3.51119 11.0833ZM11.6196 30.8583L10.5113 33.1333L9.40295 30.8583L10.5113 26.7166L11.6196 30.8583ZM13.4279 24.85L12.0279 24.3833L13.4279 23.6833V24.85ZM7.59457 24.85V23.6833L8.99457 24.3833L7.59457 24.85ZM2.28619 23.7417L6.42788 22.3417V33.8334H1.23619L2.28619 23.7417ZM7.59457 26.075L9.63626 25.375L8.17795 30.7417C8.11964 30.8584 8.17795 31.0334 8.23626 31.15L9.57795 33.8333H7.59464V26.075H7.59457ZM11.4446 33.8333L12.7863 31.15C12.8446 31.0333 12.8446 30.9167 12.8446 30.7417L11.3862 25.375L13.4279 26.075V33.8333H11.4446ZM18.7362 23.7417L19.7862 33.8334H14.5945V22.4L18.7362 23.7417ZM13.4279 22.4L10.5112 23.8583L7.5945 22.4V19.7167C9.46119 20.65 11.5612 20.65 13.4278 19.7167V22.4H13.4279ZM14.0112 17.9667C11.9695 19.6584 9.05288 19.6584 7.01119 17.9667C5.26119 16.5084 4.21119 14.4084 4.0945 12.1334C6.42781 10.6167 8.9945 9.50838 11.7362 8.86669C12.0862 10.675 13.6029 12.075 15.4695 12.25C15.6445 13.0667 15.9945 13.8833 16.4028 14.6417C15.8779 15.925 15.0612 17.0917 14.0112 17.9667ZM26.8446 32.0833C26.8446 33.075 26.0863 33.8333 25.0946 33.8333C24.1029 33.8333 23.3446 33.075 23.3446 32.0833V24.5H26.8446V32.0833V32.0833ZM27.4279 23.3333H22.7612V22.1666H27.4279V23.3333ZM25.6779 21H24.5112V19.775C24.6862 19.775 24.9195 19.8333 25.0945 19.8333C25.2695 19.8333 25.5028 19.8333 25.6778 19.775V21H25.6779ZM25.0946 18.6667C20.2529 18.6667 16.3446 14.7584 16.3446 9.91669C16.3446 5.075 20.2529 1.16669 25.0946 1.16669C29.9363 1.16669 33.8446 5.075 33.8446 9.91669C33.8446 14.7584 29.9362 18.6667 25.0946 18.6667Z" fill="black"/>
<path d="M25.0934 2.33331C20.8934 2.33331 17.5101 5.71662 17.5101 9.91662C17.5101 14.1166 20.8934 17.5 25.0934 17.5C29.2934 17.5 32.6767 14.1167 32.6767 9.91669C32.6767 5.71669 29.2934 2.33331 25.0934 2.33331ZM25.0934 16.3333C21.5351 16.3333 18.6767 13.475 18.6767 9.91662C18.6767 6.35824 21.535 3.5 25.0934 3.5C28.6518 3.5 31.5101 6.35831 31.5101 9.91669C31.5101 13.4751 28.6517 16.3333 25.0934 16.3333Z" fill="black"/>
<path d="M28.1851 6.82499C29.8767 8.51668 29.8767 11.3167 28.1851 13.0083L29.0017 13.825C31.1601 11.6667 31.1601 8.16668 29.0017 6.0083L28.1851 6.82499Z" fill="black"/>
<path d="M27.1132 15.1005L28.261 14.5266L27.7393 13.4832L26.5915 14.0571L27.1132 15.1005Z" fill="black"/>
</g>
<defs>
<clipPath id="clip0">
<rect width="35" height="35" fill="white"/>
</clipPath>
</defs>
</svg>
