<svg width="45" height="45" viewBox="0 0 35 35" fill="none" xmlns="http://www.w3.org/2000/svg">
<g clip-path="url(#clip0)">
<path d="M30.4221 7.53092V32.6218C30.4219 33.9352 29.3573 34.9999 28.0439 35H6.95613C5.64273 34.9999 4.57809 33.9352 4.57794 32.6218V7.53092C4.5784 6.21768 5.64289 5.15319 6.95613 5.15273H11.2372V7.7291H23.7234V5.15273H28.0439C29.3571 5.15319 30.4217 6.21768 30.4221 7.53092Z" fill="#D4E1F4"/>
<path d="M23.7234 5.15273V7.7291H11.2372V3.96364C11.2372 3.08807 11.947 2.37826 12.8226 2.37818H14.5273C14.8447 1.03039 15.9935 -1.07173e-06 17.4605 -1.07173e-06C18.8793 -0.00539223 20.1057 0.988935 20.3938 2.37818H22.1379C23.0135 2.37826 23.7233 3.08807 23.7234 3.96364V5.15273V5.15273Z" fill="#00ACEA"/>
<path d="M22.8973 27.772H18.1811C17.7618 27.772 17.4218 27.4321 17.4218 27.0127C17.4218 26.5934 17.7618 26.2534 18.1811 26.2534H22.8973C23.3166 26.2534 23.6566 26.5934 23.6566 27.0127C23.6566 27.4321 23.3166 27.772 22.8973 27.772Z" fill="#00ACEA"/>
<path d="M26.0682 30.9429H18.1811C17.7618 30.9429 17.4218 30.603 17.4218 30.1836C17.4218 29.7643 17.7618 29.4243 18.1811 29.4243H26.0682C26.4875 29.4243 26.8275 29.7643 26.8275 30.1836C26.8275 30.603 26.4875 30.9429 26.0682 30.9429Z" fill="#00ACEA"/>
<path d="M25.7895 19.3011V21.5882C25.7896 22.2359 25.2646 22.7612 24.6168 22.7613C24.6166 22.7613 24.6165 22.7613 24.6163 22.7613H23.6391C22.9913 22.7615 22.4661 22.2364 22.4659 21.5886C22.4659 21.5885 22.4659 21.5883 22.4659 21.5882V20.4743H24.6163C25.2642 20.4741 25.7893 19.949 25.7895 19.3011Z" fill="#00ACEA"/>
<path d="M25.7895 19.008V19.3011C25.7893 19.949 25.2642 20.4741 24.6163 20.4743H10.3837C9.73584 20.4741 9.21069 19.949 9.21054 19.3011V16.3815C9.21039 15.8647 9.4375 15.3741 9.83166 15.0398L10.5006 14.4718H24.734V14.4916L25.2382 14.9677C25.59 15.3003 25.7894 15.763 25.7895 16.2471V19.008ZM23.6725 18.617V16.7004H21.2731V18.617H23.6725ZM13.727 18.617V16.7004H11.3275V18.617H13.727Z" fill="#00EFD1"/>
<path d="M23.4819 11.4194L24.7925 14.4718H22.1409C22.1418 13.3937 21.2683 12.5189 20.1902 12.5182C19.112 12.5174 18.2373 13.3908 18.2365 14.469C18.2365 14.4699 18.2365 14.4709 18.2365 14.4718H10.4421L11.7527 11.4194C11.9421 10.9787 12.3756 10.6929 12.8553 10.6927H22.3794C22.859 10.6929 23.2925 10.9787 23.4819 11.4194Z" fill="#00ACEA"/>
<path d="M12.5341 20.4932V21.5882C12.5342 22.2359 12.0092 22.7612 11.3614 22.7613C11.3612 22.7613 11.3611 22.7613 11.3609 22.7613H10.3837C9.73591 22.7615 9.21069 22.2364 9.21054 21.5886C9.21054 21.5885 9.21054 21.5883 9.21054 21.5882V19.3011C9.21069 19.949 9.73584 20.4741 10.3837 20.4743H12.5341V20.4932Z" fill="#00ACEA"/>
<path d="M22.9003 14.4718H21.3816C21.3816 13.8131 20.8475 13.279 20.1888 13.279C19.53 13.279 18.9959 13.8131 18.9959 14.4718H17.4772C17.4772 12.9743 18.6912 11.7603 20.1888 11.7603C21.6863 11.7603 22.9003 12.9743 22.9003 14.4718Z" fill="#00EFD1"/>
<path d="M18.8926 18.6435H16.1074C15.688 18.6435 15.3481 18.3036 15.3481 17.8842C15.3481 17.4648 15.688 17.1249 16.1074 17.1249H18.8926C19.3119 17.1249 19.6519 17.4648 19.6519 17.8842C19.6519 18.3036 19.3119 18.6435 18.8926 18.6435Z" fill="#00ACEA"/>
<path d="M15.4772 25.4379H8.93185V31.7592H15.4772V25.4379Z" fill="#3BB54A"/>
<path d="M11.9399 30.1707C11.7683 30.1709 11.6018 30.1126 11.4676 30.0057L10.5731 29.2942C10.2435 29.035 10.1864 28.5576 10.4456 28.2279C10.7049 27.8983 11.1822 27.8412 11.5119 28.1005C11.5141 28.1022 11.5163 28.104 11.5185 28.1057L11.846 28.3662L12.7922 27.2856C13.0684 26.9701 13.5481 26.9382 13.8637 27.2143C14.1793 27.4905 14.2112 27.9702 13.935 28.2858L12.512 29.9115C12.3678 30.0766 12.1591 30.1712 11.9399 30.1707Z" fill="#D4E1F4"/>
</g>
<defs>
<clipPath id="clip0">
<rect width="35" height="35" fill="white"/>
</clipPath>
</defs>
</svg>
