<svg width="45" height="45" viewBox="0 0 35 35" fill="none" xmlns="http://www.w3.org/2000/svg">
<g clip-path="url(#clip0)">
<path d="M3.64146 35C2.67896 35 1.89146 34.2125 1.89146 33.25V13.1717H33.1071V33.25C33.1071 34.2169 32.324 35 31.3571 35H3.64146Z" fill="#FFB74D"/>
<path d="M21.7569 19.3915H13.2431C12.46 19.3915 11.8242 18.7556 11.8242 17.9725C11.8242 17.1894 12.46 16.5535 13.2431 16.5535H21.7569C22.54 16.5535 23.1758 17.1894 23.1758 17.9725C23.1758 18.7556 22.54 19.3915 21.7569 19.3915Z" fill="#795548"/>
<path d="M34.2708 13.1717H0.729167C0.326667 13.1717 0 12.845 0 12.4425V6.55083H35V12.444C35 12.8465 34.6733 13.1717 34.2708 13.1717V13.1717Z" fill="#FFCC80"/>
<path d="M35 6.55083L29.7981 0H5.20188L0 6.55083H35Z" fill="#FFA726"/>
<path d="M17.5 13.1717H1.89146V33.25C1.89146 34.2125 2.67896 35 3.64146 35H17.5V19.3915H13.2431C12.46 19.3915 11.8242 18.7556 11.8242 17.9725C11.8242 17.1894 12.46 16.5535 13.2431 16.5535H17.5V13.1717Z" fill="#DE9F43"/>
<path d="M17.5 16.555H13.2431C12.46 16.555 11.8242 17.1908 11.8242 17.9739C11.8242 18.7571 12.46 19.3929 13.2431 19.3929H17.5V16.555Z" fill="#694A3F"/>
<path d="M17.5 6.55083H0V12.444C0 12.8465 0.326667 13.1731 0.729166 13.1731H17.5V6.55083Z" fill="#DEB26F"/>
<path d="M17.5 0H5.20188L0 6.55083H17.5V0Z" fill="#DE9121"/>
</g>
<defs>
<clipPath id="clip0">
<rect width="35" height="35" fill="white"/>
</clipPath>
</defs>
</svg>
