<svg width="45" height="45" viewBox="0 0 32 32" fill="none" xmlns="http://www.w3.org/2000/svg">
<g clip-path="url(#clip0)">
<path d="M30.9101 25.299L24.3398 18.7289L24.0645 19.0042C23.6083 19.4604 22.8681 19.4604 22.4122 19.0042C21.956 18.5483 21.956 17.8081 22.4122 17.3519L22.6875 17.0766L21.0352 15.4243L15.5274 20.932L17.1797 22.5844L17.4552 22.3088C17.9112 21.8529 18.6514 21.8529 19.1076 22.3088C19.5635 22.765 19.5635 23.5052 19.1076 23.9613L18.832 24.2367L25.4023 30.8067C25.6017 31.0046 25.8214 31.1803 26.0583 31.3305L31.4339 25.9551C31.2828 25.7183 31.1072 25.4979 30.9101 25.299Z" fill="#88B337"/>
<path d="M31.4339 25.9551L26.0583 31.3305C27.8658 32.4917 30.2729 31.968 31.4339 30.1602C32.2567 28.8791 32.2567 27.2356 31.4339 25.9551Z" fill="#DADDDF"/>
<path d="M6.71505 4.40879L6.16442 2.20564L2.30898 0.00270844L0.105835 2.20564L2.30898 6.06109L4.51212 6.61193L17.1797 19.2797L19.3829 17.0766L6.71505 4.40879Z" fill="#CFD2D4"/>
<path d="M31.8644 4.59504L28.1952 8.26424L24.8906 7.16277L23.7892 3.85795L27.4584 0.188752C24.2297 -0.635112 20.9449 1.31457 20.121 4.54322C19.8715 5.52191 19.8715 6.54742 20.121 7.52611L7.62946 20.0177C4.36771 19.1899 1.0527 21.1622 0.224881 24.424C-0.603144 27.6855 1.36922 31.0007 4.63096 31.8285C7.8927 32.6564 11.2077 30.684 12.0355 27.4225C12.285 26.4388 12.285 25.4076 12.0355 24.424L24.5271 11.9324C27.758 12.7542 31.0427 10.8012 31.8644 7.57023C32.1123 6.59383 32.1123 5.57102 31.8644 4.59504ZM7.81675 28.643H4.51214L2.85962 25.889L4.51214 23.1352H7.81675L9.46905 25.889L7.81675 28.643Z" fill="#DADDDF"/>
<path d="M9.62906 21.6437L21.746 9.52677L22.5249 10.3057L10.408 22.4227L9.62906 21.6437Z" fill="#B6B8BA"/>
<path d="M21.7465 22.4231L22.5254 21.6442L28.0329 27.1519L27.254 27.9308L21.7465 22.4231Z" fill="#6B962A"/>
<path d="M32.0507 28.053C32.05 27.3088 31.8359 26.5807 31.4339 25.9551L29.8475 27.5413V31.557C31.1937 30.9087 32.0496 29.5467 32.0507 28.053Z" fill="#CFD2D4"/>
</g>
<defs>
<clipPath id="clip0">
<rect width="32" height="32" fill="white"/>
</clipPath>
</defs>
</svg>
